<svg width="105" height="105" viewBox="0 0 105 105" fill="none" xmlns="http://www.w3.org/2000/svg">
<path d="M52.5 96.25C61.1529 96.25 69.6115 93.6841 76.8062 88.8768C84.0008 84.0695 89.6084 77.2367 92.9197 69.2424C96.231 61.2482 97.0974 52.4515 95.4093 43.9648C93.7212 35.4782 89.5544 27.6826 83.4359 21.5641C77.3174 15.4456 69.5218 11.2788 61.0352 9.59066C52.5485 7.90256 43.7518 8.76895 35.7576 12.0803C27.7633 15.3916 20.9305 20.9992 16.1232 28.1938C11.3159 35.3885 8.74998 43.8471 8.74998 52.5C8.74997 64.1032 13.3593 75.2312 21.5641 83.4359C29.7688 91.6407 40.8967 96.25 52.5 96.25ZM36.3562 44.3625L49.4812 31.85C49.671 31.6649 49.8935 31.5165 50.1375 31.4125C50.3433 31.2267 50.5803 31.0786 50.8375 30.975C51.3612 30.7436 51.9274 30.624 52.5 30.624C53.0725 30.624 53.6388 30.7436 54.1625 30.975C54.6995 31.1832 55.1901 31.4955 55.6062 31.8938L68.7312 45.0188C69.5551 45.8426 70.0179 46.96 70.0179 48.125C70.0179 49.2901 69.5551 50.4074 68.7312 51.2313C67.9074 52.0551 66.79 52.5179 65.625 52.5179C64.4599 52.5179 63.3426 52.0551 62.5187 51.2313L56.875 45.5438L56.875 70C56.875 71.1603 56.414 72.2731 55.5936 73.0936C54.7731 73.9141 53.6603 74.375 52.5 74.375C51.3397 74.375 50.2269 73.9141 49.4064 73.0936C48.5859 72.2731 48.125 71.1603 48.125 70L48.125 45.2375L42.3937 50.7063C41.5525 51.5069 40.4277 51.9405 39.2667 51.9118C38.1057 51.8831 37.0037 51.3944 36.2031 50.5531C35.4025 49.7119 34.9688 48.5871 34.9975 47.4261C35.0263 46.2652 35.515 45.1631 36.3562 44.3625Z" fill="#FFFCF2"/>
</svg>
