<svg width="619" height="413" viewBox="0 0 619 413" fill="none" xmlns="http://www.w3.org/2000/svg">
<g clip-path="url(#clip0_20_4813)">
<path d="M111.618 229.225V208.927C115.288 202.983 119.402 197.544 123.958 192.612C128.515 187.553 133.704 182.495 139.526 177.436C146.614 171.365 151.74 166.686 154.904 163.398C158.068 160.11 159.65 156.695 159.65 153.154C159.65 147.21 155.284 144.238 146.551 144.238C140.855 144.238 135.349 144.87 130.033 146.135C124.844 147.4 119.908 149.044 115.225 151.067V112.937C120.794 110.534 127.375 108.637 134.97 107.246C142.564 105.855 150.474 105.159 158.701 105.159C174.902 105.159 186.926 108.827 194.773 116.162C202.621 123.497 206.544 133.109 206.544 144.997C206.544 150.182 205.975 154.672 204.836 158.466C203.696 162.26 201.798 165.864 199.14 169.279C196.609 172.567 193.128 176.171 188.698 180.092C186.167 182.368 183.382 184.834 180.344 187.49C177.307 190.02 175.092 192.296 173.7 194.32H207.493V229.225H111.618ZM293.906 231.122C272.01 231.122 256.252 225.684 246.633 214.807C237.014 203.931 232.204 188.375 232.204 168.14C232.204 147.779 237.014 132.223 246.633 121.473C256.252 110.597 272.01 105.159 293.906 105.159C315.803 105.159 331.56 110.597 341.18 121.473C350.799 132.223 355.609 147.779 355.609 168.14C355.609 188.375 350.799 203.931 341.18 214.807C331.56 225.684 315.803 231.122 293.906 231.122ZM293.906 192.043C299.349 192.043 303.146 190.083 305.297 186.162C307.576 182.242 308.715 176.234 308.715 168.14C308.715 160.046 307.576 154.039 305.297 150.119C303.146 146.198 299.349 144.238 293.906 144.238C288.464 144.238 284.603 146.198 282.325 150.119C280.174 154.039 279.098 160.046 279.098 168.14C279.098 176.234 280.174 182.242 282.325 186.162C284.603 190.083 288.464 192.043 293.906 192.043ZM441.932 231.122C420.036 231.122 404.278 225.684 394.659 214.807C385.04 203.931 380.23 188.375 380.23 168.14C380.23 147.779 385.04 132.223 394.659 121.473C404.278 110.597 420.036 105.159 441.932 105.159C463.829 105.159 479.586 110.597 489.206 121.473C498.825 132.223 503.635 147.779 503.635 168.14C503.635 188.375 498.825 203.931 489.206 214.807C479.586 225.684 463.829 231.122 441.932 231.122ZM441.932 192.043C447.375 192.043 451.172 190.083 453.323 186.162C455.602 182.242 456.741 176.234 456.741 168.14C456.741 160.046 455.602 154.039 453.323 150.119C451.172 146.198 447.375 144.238 441.932 144.238C436.49 144.238 432.629 146.198 430.351 150.119C428.2 154.039 427.124 160.046 427.124 168.14C427.124 176.234 428.2 182.242 430.351 186.162C432.629 190.083 436.49 192.043 441.932 192.043Z" fill="black"/>
<path d="M109.957 308.268L129.575 257.364H149.43L169.048 308.268H149.114L145.475 298.783H133.53L129.891 308.268H109.957ZM135.587 285.741H143.339L139.463 276.018L135.587 285.741ZM212.608 309.058C203.01 309.058 195.653 306.845 190.538 302.419C185.475 297.992 182.944 291.457 182.944 282.816C182.944 274.175 185.607 267.64 190.933 263.213C196.26 258.787 203.934 256.574 213.952 256.574C217.224 256.574 220.15 256.758 222.733 257.127C225.371 257.443 227.903 258.022 230.327 258.866V275.149C227.903 274.2 225.423 273.568 222.891 273.252C220.413 272.882 217.856 272.699 215.218 272.699C211.528 272.699 208.469 273.436 206.042 274.912C203.669 276.334 202.482 278.969 202.482 282.816C202.482 286.663 203.327 289.323 205.014 290.799C206.754 292.222 209.234 292.934 212.45 292.934C214.138 292.934 215.72 292.75 217.196 292.38V289.298H208.732V277.757H233.017V304.079C230.855 305.397 228.087 306.555 224.711 307.557C221.337 308.558 217.303 309.058 212.608 309.058ZM253.572 308.268V257.364H294.312V271.118H272.716V275.702H291.306V289.93H272.716V294.514H294.312V308.268H253.572ZM313.273 308.268V257.364H329.332L343.571 277.283V257.364H362.714V308.268H346.577L332.417 288.349V308.268H313.273ZM412.97 309.058C402.951 309.058 395.357 306.845 390.188 302.419C385.073 297.992 382.514 291.457 382.514 282.816C382.514 274.175 385.046 267.64 390.108 263.213C395.225 258.787 402.793 256.574 412.812 256.574C416.083 256.574 418.956 256.811 421.434 257.285C423.966 257.759 426.446 258.445 428.87 259.34V276.018C424.072 273.805 419.14 272.699 414.077 272.699C410.387 272.699 407.46 273.436 405.297 274.912C403.135 276.334 402.053 278.969 402.053 282.816C402.053 286.663 403.161 289.323 405.376 290.799C407.591 292.222 410.545 292.934 414.236 292.934C419.298 292.934 424.231 291.827 429.028 289.614V306.292C426.604 307.136 424.124 307.794 421.592 308.268C419.114 308.796 416.241 309.058 412.97 309.058ZM463.263 308.268V289.772L444.832 257.364H464.766L472.835 273.568L480.904 257.364H500.838L482.407 289.772V308.268H463.263Z" fill="black"/>
<path d="M193.808 327.041H543.85" stroke="black" stroke-width="3"/>
<path d="M243.249 329.017V363.598H131.513M294.668 327.041V395.215M347.075 329.017V380.395H441.013M375.751 363.598H478.588M216.551 111.648V85.9593H74.1614M243.249 92.8756V63.2344H110.748M270.936 92.8756V40.5095H164.144M294.668 92.8756V18.7727M320.377 92.8756V63.2344H402.449M346.086 85.9593H447.935" stroke="black" stroke-width="3"/>
<path d="M108.77 165.002H40.5416M108.77 183.775H18.7876" stroke="black" stroke-width="3"/>
<path d="M600.212 165.002H510.23M578.458 183.775H510.23" stroke="black" stroke-width="3"/>
<path d="M35.5974 170.931C32.3207 170.931 29.6645 168.277 29.6645 165.002C29.6645 161.728 32.3207 159.074 35.5974 159.074C38.874 159.074 41.5303 161.728 41.5303 165.002C41.5303 168.277 38.874 170.931 35.5974 170.931Z" fill="#EB5E28"/>
<path d="M9.88819 193.656C4.4271 193.656 9.53674e-06 189.232 9.53674e-06 183.775C9.53674e-06 178.318 4.4271 173.895 9.88819 173.895C15.3493 173.895 19.7764 178.318 19.7764 183.775C19.7764 189.232 15.3493 193.656 9.88819 193.656Z" fill="#EB5E28"/>
<path d="M583.403 177.847C586.679 177.847 589.336 180.501 589.336 183.775C589.336 187.049 586.679 189.703 583.403 189.703C580.126 189.703 577.47 187.049 577.47 183.775C577.47 180.501 580.126 177.847 583.403 177.847Z" fill="#EB5E28"/>
<path d="M482.543 357.67C485.82 357.67 488.476 360.324 488.476 363.598C488.476 366.872 485.82 369.526 482.543 369.526C479.267 369.526 476.61 366.872 476.61 363.598C476.61 360.324 479.267 357.67 482.543 357.67Z" fill="#EB5E28"/>
<path d="M444.968 374.467C448.245 374.467 450.901 377.121 450.901 380.395C450.901 383.669 448.245 386.323 444.968 386.323C441.691 386.323 439.035 383.669 439.035 380.395C439.035 377.121 441.691 374.467 444.968 374.467Z" fill="#EB5E28"/>
<path d="M516.163 357.67C519.44 357.67 522.096 360.324 522.096 363.598C522.096 366.872 519.44 369.526 516.163 369.526C512.886 369.526 510.23 366.872 510.23 363.598C510.23 360.324 512.886 357.67 516.163 357.67Z" fill="#EB5E28"/>
<path d="M106.792 57.3061C110.069 57.3061 112.725 59.9603 112.725 63.2344C112.725 66.5084 110.069 69.1626 106.792 69.1626C103.516 69.1626 100.859 66.5084 100.859 63.2344C100.859 59.9603 103.516 57.3061 106.792 57.3061Z" fill="#EB5E28"/>
<path d="M359.93 33.5932C363.206 33.5932 365.863 36.2474 365.863 39.5215C365.863 42.7955 363.206 45.4497 359.93 45.4497C356.653 45.4497 353.997 42.7955 353.997 39.5215C353.997 36.2474 356.653 33.5932 359.93 33.5932Z" fill="#EB5E28"/>
<path d="M609.112 154.134C614.573 154.134 619 158.558 619 164.014C619 169.471 614.573 173.895 609.112 173.895C603.651 173.895 599.224 169.471 599.224 164.014C599.224 158.558 603.651 154.134 609.112 154.134Z" fill="#EB5E28"/>
<path d="M456.834 75.0908C462.295 75.0908 466.722 79.5144 466.722 84.9712C466.722 90.428 462.295 94.8516 456.834 94.8516C451.373 94.8516 446.946 90.428 446.946 84.9712C446.946 79.5144 451.373 75.0908 456.834 75.0908Z" fill="#EB5E28"/>
<path d="M411.348 52.3659C416.809 52.3659 421.236 56.7895 421.236 62.2463C421.236 67.7031 416.809 72.1267 411.348 72.1267C405.887 72.1267 401.46 67.7031 401.46 62.2463C401.46 56.7895 405.887 52.3659 411.348 52.3659Z" fill="#EB5E28"/>
<path d="M294.668 -2.28882e-05C300.129 -2.28882e-05 304.556 4.42358 304.556 9.88036C304.556 15.3371 300.129 19.7607 294.668 19.7607C289.207 19.7607 284.78 15.3371 284.78 9.88036C284.78 4.42358 289.207 -2.28882e-05 294.668 -2.28882e-05Z" fill="#EB5E28"/>
<path d="M156.233 29.6411C161.694 29.6411 166.121 34.0647 166.121 39.5215C166.121 44.9783 161.694 49.4019 156.233 49.4019C150.772 49.4019 146.345 44.9783 146.345 39.5215C146.345 34.0647 150.772 29.6411 156.233 29.6411Z" fill="#EB5E28"/>
<path d="M65.262 76.0788C70.723 76.0788 75.1501 80.5024 75.1501 85.9592C75.1501 91.416 70.723 95.8396 65.262 95.8396C59.8009 95.8396 55.3738 91.416 55.3738 85.9592C55.3738 80.5024 59.8009 76.0788 65.262 76.0788Z" fill="#EB5E28"/>
<path d="M187.875 353.718C193.337 353.718 197.764 358.141 197.764 363.598C197.764 369.055 193.337 373.479 187.875 373.479C182.414 373.479 177.987 369.055 177.987 363.598C177.987 358.141 182.414 353.718 187.875 353.718Z" fill="#EB5E28"/>
<path d="M294.668 393.239C300.129 393.239 304.556 397.663 304.556 403.12C304.556 408.576 300.129 413 294.668 413C289.207 413 284.78 408.576 284.78 403.12C284.78 397.663 289.207 393.239 294.668 393.239Z" fill="#EB5E28"/>
<path d="M551.76 317.16C557.221 317.16 561.648 321.584 561.648 327.041C561.648 332.498 557.221 336.921 551.76 336.921C546.299 336.921 541.872 332.498 541.872 327.041C541.872 321.584 546.299 317.16 551.76 317.16Z" fill="#EB5E28"/>
</g>
<defs>
<clipPath id="clip0_20_4813">
<rect width="619" height="413" fill="white"/>
</clipPath>
</defs>
</svg>
