<svg width="568" height="580" viewBox="0 0 568 580" fill="none" xmlns="http://www.w3.org/2000/svg">
<g clip-path="url(#clip0_20_5433)">
<path d="M483.765 299.909C372.598 235.833 192.96 235.833 82.5175 299.909C-27.9255 363.984 -27.3482 467.865 83.8195 531.941C194.987 596.016 374.637 596.016 485.08 531.941C595.523 467.865 594.933 363.984 483.765 299.909Z" fill="#F5F5F5"/>
<path d="M120.891 512.013C114.307 508.211 103.657 508.211 97.1101 512.013C90.5629 515.814 90.5998 521.971 97.1838 525.76C103.768 529.562 114.418 529.562 120.965 525.76C127.512 521.958 127.476 515.802 120.891 512.013Z" fill="#E0E0E0"/>
<path d="M351.26 283.108L334.579 273.506C329.359 270.502 322.934 270.502 317.726 273.506L225.193 327.047L217.024 322.35L150.041 361.482L157.767 365.934L48.2332 429.065C44.4867 431.223 44.4867 436.619 48.2332 438.789L65.0865 448.502C70.3071 451.506 76.7438 451.506 81.9644 448.502L191.437 385.297L204.237 392.655C214.665 398.652 227.514 398.652 237.931 392.643L277.288 369.956C282.287 367.074 282.287 359.863 277.288 356.994L258.838 346.386L274.377 337.385L279.757 334.27L351.285 292.833C355.032 290.675 355.032 285.266 351.285 283.108H351.26Z" fill="#E0E0E0"/>
<path d="M229.787 443.854C210.563 432.768 179.485 432.768 160.384 443.854C141.283 454.94 141.381 472.906 160.605 483.992C179.829 495.077 210.907 495.077 230.008 483.992C249.109 472.906 249.011 454.94 229.775 443.854H229.787Z" fill="#E0E0E0"/>
<path d="M391.994 511.952C374.575 501.908 346.421 501.908 329.101 511.952C311.793 521.995 311.879 538.281 329.31 548.324C346.728 558.368 374.895 558.368 392.202 548.324C409.51 538.281 409.424 521.995 391.994 511.952Z" fill="#E0E0E0"/>
<path d="M412.851 364.658C394.892 354.308 365.878 354.308 348.03 364.658C330.194 375.008 330.28 391.785 348.239 402.135C366.197 412.485 395.212 412.485 413.06 402.135C430.896 391.785 430.81 375.008 412.851 364.658Z" fill="#E0E0E0"/>
<path d="M495.926 356.871C488.875 352.812 477.501 352.812 470.499 356.871C463.497 360.93 463.534 367.516 470.585 371.575C477.636 375.634 489.01 375.634 496.012 371.575C503.014 367.516 502.977 360.93 495.926 356.871Z" fill="#E0E0E0"/>
<path d="M120.388 74.5602L116.715 72.4265L116.924 203.066L120.597 205.188L120.388 74.5602Z" fill="#F0F0F0"/>
<path d="M120.597 205.188L116.924 203.066L74.6924 227.274L78.3652 229.395L120.597 205.188Z" fill="#F5F5F5"/>
<path d="M124.835 207.604L74.1519 236.68L73.9062 96.3642L124.589 67.2881L124.835 207.604ZM78.3652 229.395L120.609 205.188L120.388 74.548L78.1441 98.7555L78.3652 229.395Z" fill="#E0E0E0"/>
<path d="M124.589 67.2759L120.916 65.1544L70.2456 94.2304L73.9062 96.3519L124.589 67.2759Z" fill="#F5F5F5"/>
<path d="M73.9062 96.3519L70.2456 94.2304L70.479 234.546L74.1518 236.667L73.9062 96.3519Z" fill="#F0F0F0"/>
<path d="M120.584 115.25L116.924 113.116L78.144 135.386V139.616L120.584 115.25Z" fill="#F5F5F5"/>
<path d="M120.584 115.25L78.144 139.616V144.46L120.597 120.106L120.584 115.25Z" fill="#E0E0E0"/>
<path d="M73.9062 101.22L70.2456 99.0866L70.4544 229.726L74.1273 231.848L73.9062 101.22Z" fill="#F0F0F0"/>
<path d="M74.1274 231.848L70.4546 229.726L28.2231 253.934L31.8837 256.055L74.1274 231.848Z" fill="#F5F5F5"/>
<path d="M78.3653 234.264L27.6827 263.34L27.437 123.024L78.1197 93.9483L78.3653 234.264ZM31.896 256.055L74.1397 231.848L73.9186 101.208L31.6749 125.416L31.896 256.055Z" fill="#E0E0E0"/>
<path d="M78.1197 93.9483L74.4468 91.8145L23.7642 120.891L27.437 123.012L78.1197 93.9483Z" fill="#F5F5F5"/>
<path d="M27.437 123.012L23.7642 120.891L24.0098 261.206L27.6827 263.328L27.437 123.012Z" fill="#F0F0F0"/>
<path d="M74.1151 141.91L70.4422 139.776L31.6748 162.046V166.277L74.1151 141.91Z" fill="#F5F5F5"/>
<path d="M74.1151 141.91L31.6748 166.277V171.121L74.1274 146.766L74.1151 141.91Z" fill="#E0E0E0"/>
<path d="M233.705 9.40589L230.032 7.27209L230.241 137.912L233.914 140.033L233.705 9.40589Z" fill="#F0F0F0"/>
<path d="M233.914 140.033L230.241 137.912L188.01 162.119L191.683 164.241L233.914 140.033Z" fill="#F5F5F5"/>
<path d="M238.152 142.449L187.469 171.525L187.224 31.2098L237.906 2.13379L238.152 142.449ZM191.683 164.241L233.926 140.033L233.705 9.3936L191.462 33.6011L191.683 164.241Z" fill="#E0E0E0"/>
<path d="M237.906 2.1338L234.233 0L183.563 29.076L187.224 31.1976L237.906 2.1338Z" fill="#F5F5F5"/>
<path d="M187.224 31.1976L183.563 29.076L183.796 169.392L187.469 171.513L187.224 31.1976Z" fill="#F0F0F0"/>
<path d="M233.902 50.0952L230.241 47.9614L191.461 70.2313V74.4621L233.902 50.0952Z" fill="#F5F5F5"/>
<path d="M233.902 50.0952L191.461 74.4621V79.3061L233.914 54.9514L233.902 50.0952Z" fill="#E0E0E0"/>
<path d="M187.224 36.066L183.563 33.9323L183.772 164.572L187.445 166.706L187.224 36.066Z" fill="#F0F0F0"/>
<path d="M187.445 166.706L183.772 164.572L141.541 188.78L145.201 190.901L187.445 166.706Z" fill="#F5F5F5"/>
<path d="M191.683 169.109L141 198.185L140.754 57.87L191.437 28.7939L191.683 169.109ZM145.213 190.901L187.457 166.694L187.236 36.0538L144.992 60.2613L145.213 190.901Z" fill="#E0E0E0"/>
<path d="M191.437 28.794L187.764 26.6602L137.082 55.7362L140.754 57.8577L191.437 28.794Z" fill="#F5F5F5"/>
<path d="M140.754 57.8577L137.082 55.7362L137.327 196.052L141 198.185L140.754 57.8577Z" fill="#F0F0F0"/>
<path d="M187.432 76.7553L183.76 74.6215L144.992 96.8915V101.122L187.432 76.7553Z" fill="#F5F5F5"/>
<path d="M187.433 76.7553L144.993 101.122V105.966L187.445 81.6115L187.433 76.7553Z" fill="#E0E0E0"/>
<path d="M459.578 148.863L459.492 179.496L455.771 181.655L455.869 146.729L459.578 148.863Z" fill="#F0F0F0"/>
<path d="M499.636 202.649L499.623 206.941L455.771 181.655L459.492 179.496L499.636 202.649Z" fill="#F5F5F5"/>
<path d="M451.262 184.23L504.107 214.692L504.23 169.453L451.385 138.991L451.262 184.23ZM455.771 181.667L455.869 146.741L459.579 148.875L499.734 172.016L499.648 202.649V206.941L455.771 181.667Z" fill="#E0E0E0"/>
<path d="M451.385 138.991L455.107 136.833L507.952 167.295L504.242 169.453L451.385 138.991Z" fill="#F5F5F5"/>
<path d="M507.952 167.295L507.829 212.533L504.107 214.692L504.242 169.453L507.952 167.295Z" fill="#F0F0F0"/>
<path d="M472.329 160.501L461.384 169.109L461.36 177.51L497.781 198.504L497.805 190.092L490.865 176.333L484.625 181.164L486.836 187.995L483.63 181.937L472.329 160.501Z" fill="#E0E0E0"/>
<path d="M484.293 164.732C482.574 163.738 481.186 164.535 481.173 166.497C481.173 168.46 482.549 170.863 484.269 171.844C485.989 172.837 487.377 172.04 487.389 170.078C487.389 168.116 486.013 165.713 484.293 164.732Z" fill="#E0E0E0"/>
<path d="M459.578 80.2626L459.492 110.908L455.771 113.054L455.869 78.1288L459.578 80.2626Z" fill="#F0F0F0"/>
<path d="M499.636 134.049L499.623 138.341L455.771 113.054L459.492 110.908L499.636 134.049Z" fill="#F5F5F5"/>
<path d="M451.262 115.63L504.107 146.091L504.23 100.853L451.385 70.3907L451.262 115.63ZM455.771 113.067L455.869 78.1411L459.579 80.2749L499.734 103.416L499.648 134.049V138.341L455.771 113.067Z" fill="#E0E0E0"/>
<path d="M451.385 70.3907L455.107 68.2324L507.952 98.6942L504.242 100.853L451.385 70.3907Z" fill="#F5F5F5"/>
<path d="M507.952 98.6942L507.829 143.933L504.107 146.091L504.242 100.853L507.952 98.6942Z" fill="#F0F0F0"/>
<path d="M472.329 91.9004L461.384 100.509L461.36 108.909L497.781 129.904L497.805 121.504L490.865 107.732L484.625 112.564L486.836 119.407L483.63 113.336L472.329 91.9004Z" fill="#E0E0E0"/>
<path d="M484.293 96.1312C482.574 95.1379 481.186 95.935 481.173 97.8971C481.173 99.8592 482.549 102.263 484.269 103.244C485.989 104.237 487.377 103.44 487.389 101.478C487.389 99.5158 486.013 97.1122 484.293 96.1312Z" fill="#E0E0E0"/>
<path d="M263.641 359.765L231.556 378.087C222.171 383.446 210.636 383.433 201.264 378.037L177.458 364.339C174.633 362.721 172.889 359.716 172.889 356.454L172.864 340.242L167.901 343.112V357.202C167.901 361.004 169.928 364.511 173.233 366.412L201.497 382.673C210.722 387.983 222.085 387.995 231.322 382.722L263.641 364.266C268.468 361.507 270.421 356.27 269.537 351.475C268.923 354.774 266.97 357.864 263.641 359.765Z" fill="#EB5E28"/>
<path opacity="0.1" d="M263.641 359.765L231.556 378.087C222.171 383.446 210.636 383.433 201.264 378.037L177.458 364.339C174.633 362.721 172.889 359.716 172.889 356.454L172.864 340.242L167.901 343.112V357.202C167.901 361.004 169.928 364.511 173.233 366.412L201.497 382.673C210.722 387.983 222.085 387.995 231.322 382.722L263.641 364.266C268.468 361.507 270.421 356.27 269.537 351.475C268.923 354.774 266.97 357.864 263.641 359.765Z" fill="black"/>
<path d="M177.458 364.34L201.264 378.037C210.636 383.433 222.171 383.446 231.555 378.087L263.641 359.765C266.969 357.865 268.923 354.774 269.537 351.475C268.935 348.25 267.068 345.233 263.862 343.308L237.538 327.55C234.332 325.625 232.366 322.166 232.366 318.438V305.918L172.864 340.255L172.888 356.467C172.888 359.716 174.633 362.721 177.458 364.352V364.34Z" fill="#EB5E28"/>
<path opacity="0.4" d="M177.458 364.339C174.633 362.721 172.889 359.716 172.889 356.454L172.864 340.242L167.901 343.112V357.202C167.901 361.004 169.928 364.511 173.233 366.412L183.256 372.176V367.675L177.458 364.339Z" fill="black"/>
<path opacity="0.3" d="M177.458 364.34L183.256 367.675L245.375 332.234L237.538 327.538C234.332 325.612 232.366 322.154 232.366 318.426V305.905L172.864 340.242L172.888 356.454C172.888 359.704 174.633 362.709 177.458 364.34Z" fill="black"/>
<path d="M72.2967 404.698C72.2967 404.698 72.2477 404.673 72.2231 404.661L72.2967 404.698Z" fill="#FFA8A7"/>
<path d="M69.4712 398.786L69.0167 195.647C69.0045 189.883 73.0581 182.856 78.0944 179.95L331.029 34.5328C333.522 33.098 335.795 32.9508 337.441 33.8706L327.921 28.3644C326.25 27.322 323.904 27.4078 321.3 28.904L68.378 174.309C63.3417 177.215 59.288 184.242 59.3003 190.006L59.7548 393.145C59.7548 395.868 60.6884 397.805 62.1747 398.811C62.3344 398.921 62.5064 399.019 62.6783 399.105L72.0754 404.562C70.4662 403.606 69.4712 401.607 69.459 398.762L69.4712 398.786Z" fill="#EB5E28"/>
<path opacity="0.3" d="M327.921 28.3525C326.251 27.3101 323.904 27.3959 321.3 28.8921L68.3784 174.309C65.5777 175.928 63.0841 178.81 61.4258 182.047L71.1545 187.664C72.8128 184.438 75.3064 181.544 78.1071 179.938L331.029 34.5331C333.523 33.0983 335.795 32.9512 337.441 33.8709L327.921 28.3647V28.3525Z" fill="white"/>
<path opacity="0.2" d="M59.3009 190.006L59.7554 393.146C59.7554 395.868 60.6889 397.806 62.1753 398.811C62.3349 398.922 62.5069 399.02 62.6789 399.106L72.0759 404.563C70.4668 403.606 69.4718 401.607 69.4595 398.762L69.005 195.622C69.005 193.059 69.8034 190.239 71.1424 187.651L61.4137 182.035C60.087 184.622 59.2886 187.431 59.2886 189.994L59.3009 190.006Z" fill="black"/>
<path d="M337.551 33.9316L337.503 33.9077C337.503 33.9077 337.527 33.9316 337.551 33.9316Z" fill="#FFA8A7"/>
<path d="M340.168 39.7205C340.168 36.8877 339.161 34.8888 337.552 33.92C337.539 33.92 337.527 33.8954 337.503 33.8954C337.478 33.8954 337.466 33.8709 337.441 33.8586C335.795 32.9389 333.523 33.0861 331.029 34.5209L78.0948 179.938C73.0585 182.844 69.0048 189.871 69.0171 195.635L69.4716 398.774C69.4716 401.607 70.4789 403.606 72.088 404.575C72.1372 404.6 72.1863 404.636 72.2355 404.661C72.26 404.661 72.2846 404.685 72.3092 404.698C73.9552 405.556 76.1785 405.397 78.623 403.986L331.557 258.569C336.581 255.675 340.647 248.636 340.635 242.873L340.18 39.7327L340.168 39.7205ZM327.049 250.795L78.451 393.71L78.0088 195.61C78.0088 193.059 80.355 189 82.5906 187.713L331.189 44.7974L331.631 242.897C331.631 245.448 329.285 249.507 327.049 250.795Z" fill="#EB5E28"/>
<path d="M331.189 44.7974L324.752 48.5009L325.182 239.758C325.182 242.308 322.836 246.368 320.6 247.655L78.4268 386.867V393.71L327.049 250.795C329.285 249.507 331.644 245.448 331.631 242.897L331.189 44.7974Z" fill="#EB5E28"/>
<path opacity="0.3" d="M331.189 44.7974L324.752 48.5009L325.182 239.758C325.182 242.308 322.836 246.368 320.6 247.655L78.4268 386.867V393.71L327.049 250.795C329.285 249.507 331.644 245.448 331.631 242.897L331.189 44.7974Z" fill="black"/>
<path d="M325.182 239.758L324.752 48.5009L82.5785 187.713C80.3428 189 77.9843 193.059 77.9966 195.61L78.4266 386.867L320.6 247.655C322.836 246.368 325.194 242.308 325.182 239.758Z" fill="#545454"/>
<path d="M107.797 409.051L107.367 217.046C107.355 211.601 111.187 204.955 115.953 202.208L355.019 64.7619C357.378 63.4007 359.527 63.2658 361.087 64.1365L352.083 58.9246C350.511 57.9313 348.288 58.0172 345.831 59.4397L106.765 196.886C102.011 199.633 98.1665 206.279 98.1787 211.724L98.6087 403.729C98.6087 406.304 99.4931 408.131 100.893 409.088C101.053 409.186 101.213 409.284 101.373 409.37L110.254 414.533C108.73 413.625 107.797 411.737 107.785 409.051H107.797Z" fill="#EB5E28"/>
<path opacity="0.4" d="M352.084 58.9246C350.512 57.9313 348.288 58.0172 345.832 59.4397L106.766 196.886C104.125 198.406 101.766 201.141 100.194 204.207L109.394 209.517C110.967 206.463 113.325 203.741 115.966 202.22L355.032 64.7742C357.391 63.413 359.54 63.2781 361.1 64.1488L352.096 58.9369L352.084 58.9246Z" fill="white"/>
<path opacity="0.3" d="M98.1789 211.724L98.6089 403.729C98.6089 406.304 99.4933 408.131 100.894 409.088C101.053 409.186 101.213 409.284 101.373 409.37L110.254 414.533C108.731 413.625 107.797 411.737 107.785 409.051L107.355 217.046C107.355 214.618 108.104 211.957 109.369 209.504L100.169 204.194C98.916 206.635 98.1544 209.296 98.1667 211.712L98.1789 211.724Z" fill="white"/>
<path d="M107.392 228.169L107.797 409.039C107.797 411.724 108.743 413.613 110.266 414.52C110.315 414.545 110.352 414.569 110.401 414.594C110.426 414.594 110.45 414.619 110.463 414.619C112.01 415.428 114.111 415.281 116.433 413.944L355.498 276.498C360.252 273.764 364.097 267.105 364.072 261.66L363.667 80.4833L107.379 228.157L107.392 228.169Z" fill="#EB5E28"/>
<path opacity="0.5" d="M107.392 228.169L107.797 409.039C107.797 411.724 108.743 413.613 110.266 414.52C110.315 414.545 110.352 414.569 110.401 414.594C110.426 414.594 110.45 414.619 110.463 414.619C112.01 415.428 114.111 415.281 116.433 413.944L355.498 276.498C360.252 273.764 364.097 267.105 364.072 261.66L363.667 80.4833L107.379 228.157L107.392 228.169Z" fill="white"/>
<path d="M353.754 92.5503C355.965 91.2749 357.783 92.2928 357.783 94.8435C357.783 97.3943 355.99 100.497 353.779 101.772L148.849 220.038C146.638 221.314 144.82 220.296 144.82 217.745C144.82 215.195 146.614 212.092 148.825 210.817L353.754 92.5503Z" fill="#EB5E28"/>
<g opacity="0.8">
<path d="M353.754 92.5503C355.965 91.2749 357.783 92.2928 357.783 94.8435C357.783 97.3943 355.99 100.497 353.779 101.772L148.849 220.038C146.638 221.314 144.82 220.296 144.82 217.745C144.82 215.195 146.614 212.092 148.825 210.817L353.754 92.5503Z" fill="white"/>
</g>
<path d="M118.73 230.241C118.828 230.18 118.926 230.168 119 230.205C119.16 230.278 119.172 230.573 119.025 230.842L117.735 233.221L122.108 230.707C122.329 230.585 122.513 230.683 122.513 230.94C122.513 231.198 122.329 231.505 122.108 231.639L117.735 234.153L119.037 235.036C119.184 235.134 119.184 235.441 119.012 235.711C118.939 235.833 118.84 235.932 118.742 235.993C118.631 236.054 118.521 236.066 118.447 236.017L116.519 234.718C116.519 234.718 116.457 234.656 116.445 234.619C116.42 234.57 116.42 234.521 116.42 234.472C116.42 234.411 116.42 234.362 116.445 234.301C116.47 234.227 116.494 234.166 116.519 234.104L118.435 230.585C118.509 230.438 118.619 230.327 118.73 230.266V230.241Z" fill="#EB5E28"/>
<path d="M129.761 223.877C129.871 223.816 129.982 223.803 130.056 223.852L131.984 225.152C131.984 225.152 132.046 225.214 132.058 225.25C132.07 225.299 132.082 225.348 132.082 225.41C132.082 225.471 132.082 225.52 132.058 225.581C132.033 225.655 132.009 225.716 131.984 225.778L130.068 229.297C129.994 229.444 129.884 229.555 129.773 229.616C129.675 229.677 129.577 229.69 129.503 229.653C129.343 229.579 129.331 229.285 129.478 229.015L130.78 226.636L126.407 229.15C126.186 229.273 126.002 229.175 126.002 228.917C126.002 228.659 126.186 228.353 126.407 228.218L130.78 225.704L129.478 224.833C129.331 224.735 129.343 224.429 129.503 224.159C129.577 224.036 129.675 223.938 129.773 223.877H129.761Z" fill="#EB5E28"/>
<path d="M137.831 219.229C138.31 218.947 138.777 218.849 139.17 218.91C139.194 218.665 139.366 218.395 139.563 218.285C139.563 218.285 139.575 218.285 139.588 218.285C139.809 218.162 139.981 218.285 139.968 218.542L139.932 219.572C139.932 219.818 139.76 220.112 139.551 220.235L138.666 220.786H138.654C138.433 220.921 138.261 220.836 138.249 220.59C138.249 220.37 138.371 220.1 138.556 219.94C138.335 219.94 138.089 220.026 137.831 220.173C136.897 220.713 136.136 222.013 136.148 223.092C136.148 224.159 136.91 224.6 137.843 224.061C138.457 223.705 139.035 222.982 139.33 222.184C139.403 221.988 139.538 221.817 139.686 221.743C139.747 221.706 139.821 221.682 139.882 221.694C140.079 221.694 140.153 221.939 140.042 222.234C139.6 223.411 138.765 224.465 137.843 225.005C136.468 225.802 135.337 225.152 135.337 223.583C135.337 222.001 136.455 220.075 137.831 219.278V219.229Z" fill="#EB5E28"/>
<g opacity="0.7">
<path d="M118.73 230.241C118.828 230.18 118.926 230.168 119 230.205C119.16 230.278 119.172 230.573 119.025 230.842L117.735 233.221L122.108 230.707C122.329 230.585 122.513 230.683 122.513 230.94C122.513 231.198 122.329 231.505 122.108 231.639L117.735 234.153L119.037 235.036C119.184 235.134 119.184 235.441 119.012 235.711C118.939 235.833 118.84 235.932 118.742 235.993C118.631 236.054 118.521 236.066 118.447 236.017L116.519 234.718C116.519 234.718 116.457 234.656 116.445 234.619C116.42 234.57 116.42 234.521 116.42 234.472C116.42 234.411 116.42 234.362 116.445 234.301C116.47 234.227 116.494 234.166 116.519 234.104L118.435 230.585C118.509 230.438 118.619 230.327 118.73 230.266V230.241Z" fill="white"/>
<path d="M129.761 223.877C129.871 223.816 129.982 223.803 130.056 223.852L131.984 225.152C131.984 225.152 132.046 225.214 132.058 225.25C132.07 225.299 132.082 225.348 132.082 225.41C132.082 225.471 132.082 225.52 132.058 225.581C132.033 225.655 132.009 225.716 131.984 225.778L130.068 229.297C129.994 229.444 129.884 229.555 129.773 229.616C129.675 229.677 129.577 229.69 129.503 229.653C129.343 229.579 129.331 229.285 129.478 229.015L130.78 226.636L126.407 229.15C126.186 229.273 126.002 229.175 126.002 228.917C126.002 228.659 126.186 228.353 126.407 228.218L130.78 225.704L129.478 224.833C129.331 224.735 129.343 224.429 129.503 224.159C129.577 224.036 129.675 223.938 129.773 223.877H129.761Z" fill="white"/>
<path d="M137.831 219.229C138.31 218.947 138.777 218.849 139.17 218.91C139.194 218.665 139.366 218.395 139.563 218.285C139.563 218.285 139.575 218.285 139.588 218.285C139.809 218.162 139.981 218.285 139.968 218.542L139.932 219.572C139.932 219.818 139.76 220.112 139.551 220.235L138.666 220.786H138.654C138.433 220.921 138.261 220.836 138.249 220.59C138.249 220.37 138.371 220.1 138.556 219.94C138.335 219.94 138.089 220.026 137.831 220.173C136.897 220.713 136.136 222.013 136.148 223.092C136.148 224.159 136.91 224.6 137.843 224.061C138.457 223.705 139.035 222.982 139.33 222.184C139.403 221.988 139.538 221.817 139.686 221.743C139.747 221.706 139.821 221.682 139.882 221.694C140.079 221.694 140.153 221.939 140.042 222.234C139.6 223.411 138.765 224.465 137.843 225.005C136.468 225.802 135.337 225.152 135.337 223.583C135.337 222.001 136.455 220.075 137.831 219.278V219.229Z" fill="white"/>
</g>
<g opacity="0.5">
<path d="M122.329 338.673C121.616 338.673 120.965 338.501 120.376 338.17C118.988 337.373 118.214 335.742 118.214 333.583L118.005 258.974C118.005 254.768 120.965 249.63 124.626 247.508L214.285 195.831C216.176 194.739 217.994 194.58 219.395 195.377C220.783 196.174 221.557 197.805 221.557 199.964L221.766 274.573C221.766 278.779 218.805 283.917 215.145 286.027L125.486 337.704C124.392 338.341 123.311 338.66 122.341 338.66L122.329 338.673ZM217.429 196.076C216.668 196.076 215.796 196.346 214.887 196.873L125.228 248.55C121.899 250.476 119.196 255.148 119.209 258.962L119.418 333.571C119.418 335.288 119.97 336.539 120.978 337.115C121.985 337.692 123.373 337.532 124.884 336.674L214.543 284.997C217.872 283.071 220.574 278.399 220.562 274.585L220.353 199.976C220.353 198.259 219.8 196.996 218.793 196.42C218.4 196.187 217.933 196.076 217.442 196.076H217.429Z" fill="white"/>
</g>
<path d="M295.407 287.805C295.112 287.805 294.829 287.731 294.571 287.584C293.994 287.253 293.675 286.591 293.675 285.745L293.318 158.404C293.318 156.895 294.338 155.105 295.652 154.357L346.04 125.318C346.765 124.901 347.514 124.839 348.092 125.17C348.669 125.501 348.988 126.164 349 127.01L349.357 254.351C349.357 255.859 348.337 257.637 347.023 258.398L296.635 287.437C296.217 287.67 295.8 287.793 295.419 287.793L295.407 287.805ZM346.642 126.372L296.254 155.411C295.308 155.951 294.51 157.337 294.522 158.416L294.878 285.757C294.878 286.149 294.989 286.444 295.173 286.554C295.37 286.664 295.677 286.615 296.021 286.407L346.409 257.368C347.354 256.828 348.153 255.442 348.141 254.363L347.784 127.022C347.784 126.63 347.674 126.335 347.49 126.225C347.305 126.115 346.986 126.176 346.642 126.372Z" fill="white"/>
<path d="M169.105 319.444C170.972 318.365 172.483 319.235 172.495 321.369L172.606 361.102C172.606 363.236 171.107 365.848 169.24 366.927L121.506 394.446C119.639 395.525 118.128 394.654 118.115 392.52L118.005 352.788C118.005 350.641 119.503 348.042 121.371 346.963L169.105 319.444Z" fill="#EB5E28"/>
<g opacity="0.2">
<path d="M169.105 319.444C170.972 318.365 172.483 319.235 172.495 321.369L172.606 361.102C172.606 363.236 171.107 365.848 169.24 366.927L121.506 394.446C119.639 395.525 118.128 394.654 118.115 392.52L118.005 352.788C118.005 350.641 119.503 348.042 121.371 346.963L169.105 319.444Z" fill="white"/>
</g>
<path d="M169.462 322.056C169.56 321.995 169.67 321.995 169.732 322.056C169.842 322.166 169.818 322.424 169.658 322.645L145.865 356.614L169.769 363.089C169.916 363.125 169.953 363.358 169.842 363.591C169.781 363.739 169.67 363.849 169.572 363.91C169.499 363.947 169.437 363.972 169.376 363.947L145.3 357.423L121.334 391.637C121.273 391.723 121.199 391.785 121.137 391.821C121.039 391.883 120.929 391.883 120.867 391.821C120.757 391.711 120.781 391.453 120.941 391.233L144.734 357.264L120.83 350.789C120.683 350.752 120.646 350.519 120.757 350.286C120.818 350.151 120.929 350.028 121.027 349.967C121.101 349.93 121.162 349.906 121.223 349.93L145.3 356.454L169.265 322.24C169.327 322.154 169.4 322.093 169.462 322.044V322.056Z" fill="white"/>
<path d="M227.686 286.493C229.553 285.414 231.064 286.284 231.077 288.418L231.187 328.151C231.187 330.285 229.689 332.897 227.821 333.976L180.087 361.494C178.22 362.574 176.709 361.703 176.696 359.569L176.586 319.836C176.586 317.69 178.085 315.091 179.952 314.011L227.686 286.493Z" fill="#EB5E28"/>
<g opacity="0.2">
<path d="M227.686 286.493C229.553 285.414 231.064 286.284 231.077 288.418L231.187 328.151C231.187 330.285 229.689 332.897 227.821 333.976L180.087 361.494C178.22 362.574 176.709 361.703 176.696 359.569L176.586 319.836C176.586 317.69 178.085 315.091 179.952 314.011L227.686 286.493Z" fill="white"/>
</g>
<path d="M228.043 289.117C228.141 289.056 228.252 289.056 228.313 289.117C228.423 289.227 228.399 289.485 228.239 289.706L204.446 323.675L228.35 330.15C228.497 330.186 228.534 330.419 228.423 330.652C228.362 330.8 228.252 330.91 228.153 330.971C228.08 331.008 228.018 331.033 227.957 331.008L203.881 324.484L179.915 358.698C179.854 358.784 179.78 358.846 179.719 358.882C179.62 358.944 179.51 358.944 179.448 358.882C179.338 358.772 179.362 358.514 179.522 358.294L203.316 324.325L179.411 317.85C179.264 317.813 179.227 317.58 179.338 317.347C179.399 317.212 179.51 317.089 179.608 317.028C179.682 316.991 179.743 316.967 179.805 316.991L203.881 323.515L227.846 289.301C227.908 289.215 227.981 289.154 228.043 289.105V289.117Z" fill="white"/>
<path d="M285.543 253.259C287.41 252.18 288.921 253.051 288.933 255.185L289.044 294.918C289.044 297.051 287.545 299.663 285.678 300.743L237.943 328.261C236.076 329.34 234.565 328.47 234.553 326.336L234.442 286.603C234.442 284.457 235.941 281.857 237.808 280.778L285.543 253.259Z" fill="#EB5E28"/>
<g opacity="0.2">
<path d="M285.543 253.259C287.41 252.18 288.921 253.051 288.933 255.185L289.044 294.918C289.044 297.051 287.545 299.663 285.678 300.743L237.943 328.261C236.076 329.34 234.565 328.47 234.553 326.336L234.442 286.603C234.442 284.457 235.941 281.857 237.808 280.778L285.543 253.259Z" fill="white"/>
</g>
<path d="M285.899 255.871C285.997 255.81 286.107 255.81 286.169 255.871C286.279 255.982 286.255 256.239 286.095 256.46L262.302 290.429L286.206 296.904C286.353 296.941 286.39 297.174 286.279 297.407C286.218 297.554 286.107 297.664 286.009 297.726C285.936 297.763 285.874 297.787 285.813 297.763L261.737 291.239L237.771 325.453C237.71 325.539 237.636 325.6 237.574 325.637C237.476 325.698 237.366 325.698 237.304 325.637C237.194 325.526 237.218 325.269 237.378 325.048L261.172 291.079L237.267 284.604C237.12 284.567 237.083 284.334 237.194 284.101C237.255 283.966 237.366 283.844 237.464 283.783C237.538 283.746 237.599 283.721 237.66 283.746L261.737 290.27L285.702 256.055C285.764 255.97 285.837 255.908 285.899 255.859V255.871Z" fill="white"/>
<path d="M280.9 164.83C284.02 163.039 286.55 164.474 286.562 168.055C286.562 171.623 284.057 175.977 280.936 177.767L233.964 204.844C230.843 206.635 228.325 205.2 228.313 201.631C228.313 198.063 230.819 193.709 233.927 191.919L280.9 164.842V164.83Z" fill="#EB5E28"/>
<g opacity="0.2">
<path d="M280.9 164.83C284.02 163.039 286.55 164.474 286.562 168.055C286.562 171.623 284.057 175.977 280.936 177.767L233.964 204.844C230.843 206.635 228.325 205.2 228.313 201.631C228.313 198.063 230.819 193.709 233.927 191.919L280.9 164.842V164.83Z" fill="white"/>
</g>
<path d="M280.9 182.991C284.02 181.201 286.55 182.636 286.562 186.217C286.562 189.785 284.057 194.139 280.936 195.929L233.964 223.006C230.843 224.797 228.325 223.362 228.313 219.793C228.313 216.225 230.819 211.871 233.927 210.081L280.9 183.004V182.991Z" fill="#EB5E28"/>
<g opacity="0.2">
<path d="M280.9 182.991C284.02 181.201 286.55 182.636 286.562 186.217C286.562 189.785 284.057 194.139 280.936 195.929L233.964 223.006C230.843 224.797 228.325 223.362 228.313 219.793C228.313 216.225 230.819 211.871 233.927 210.081L280.9 183.004V182.991Z" fill="white"/>
</g>
<path d="M280.9 201.141C284.02 199.35 286.55 200.785 286.562 204.366C286.562 207.935 284.057 212.288 280.936 214.079L233.964 241.156C230.843 242.946 228.325 241.511 228.313 237.943C228.313 234.374 230.819 230.021 233.927 228.23L280.9 201.153V201.141Z" fill="#EB5E28"/>
<g opacity="0.2">
<path d="M280.9 201.141C284.02 199.35 286.55 200.785 286.562 204.366C286.562 207.935 284.057 212.288 280.936 214.079L233.964 241.156C230.843 242.946 228.325 241.511 228.313 237.943C228.313 234.374 230.819 230.021 233.927 228.23L280.9 201.153V201.141Z" fill="white"/>
</g>
<path d="M363.655 69.6795C363.655 66.9938 362.709 65.1053 361.186 64.1978C361.174 64.1978 361.161 64.1733 361.149 64.1733C361.124 64.1733 361.112 64.1488 361.088 64.1365C359.528 63.2658 357.378 63.4007 355.019 64.7619L115.954 202.208C111.2 204.955 107.355 211.601 107.367 217.046L107.392 228.181L363.68 80.5079L363.655 69.6795Z" fill="#EB5E28"/>
<path opacity="0.3" d="M363.655 69.6795C363.655 66.9938 362.709 65.1053 361.186 64.1978C361.174 64.1978 361.161 64.1733 361.149 64.1733C361.124 64.1733 361.112 64.1488 361.088 64.1365C359.528 63.2658 357.378 63.4007 355.019 64.7619L115.954 202.208C111.2 204.955 107.355 211.601 107.367 217.046L107.392 228.181L363.68 80.5079L363.655 69.6795Z" fill="black"/>
<g opacity="0.5">
<path d="M118.754 209.983C120.056 209.235 121.101 209.836 121.113 211.319C121.113 212.803 120.069 214.618 118.779 215.366C117.477 216.114 116.433 215.513 116.42 214.03C116.42 212.546 117.465 210.731 118.754 209.983Z" fill="white"/>
<path d="M125.166 206.291C126.468 205.543 127.513 206.144 127.525 207.628C127.525 209.112 126.481 210.927 125.191 211.675C123.889 212.423 122.845 211.822 122.833 210.338C122.833 208.854 123.877 207.04 125.166 206.291Z" fill="white"/>
<path d="M131.579 202.6C132.881 201.852 133.925 202.453 133.937 203.937C133.937 205.421 132.893 207.236 131.603 207.984C130.301 208.732 129.257 208.131 129.245 206.647C129.245 205.163 130.289 203.348 131.579 202.6Z" fill="white"/>
</g>
<path d="M118.754 209.983C120.056 209.235 121.101 209.836 121.113 211.319C121.113 212.803 120.069 214.618 118.779 215.366C117.477 216.114 116.433 215.513 116.42 214.03C116.42 212.546 117.465 210.731 118.754 209.983Z" fill="#EB5E28"/>
<path d="M125.166 206.291C126.468 205.543 127.513 206.144 127.525 207.628C127.525 209.112 126.481 210.927 125.191 211.675C123.889 212.423 122.845 211.822 122.833 210.338C122.833 208.854 123.877 207.04 125.166 206.291Z" fill="#EB5E28"/>
<path d="M131.579 202.6C132.881 201.852 133.925 202.453 133.937 203.937C133.937 205.421 132.893 207.236 131.603 207.984C130.301 208.732 129.257 208.131 129.245 206.647C129.245 205.163 130.289 203.348 131.579 202.6Z" fill="#EB5E28"/>
<path d="M124.982 490.16L109.025 490.626L93.0688 490.16C92.3809 500.915 94.4814 511.878 97.3804 517.225C97.8963 518.402 98.9404 519.518 100.537 520.425C105.242 523.136 112.846 523.136 117.526 520.425C119.147 519.481 120.191 518.341 120.683 517.139C123.557 511.755 125.645 500.853 124.957 490.16H124.982Z" fill="white"/>
<path d="M120.277 483.648C126.529 487.254 126.554 493.091 120.351 496.696C114.147 500.302 104.038 500.302 97.7977 496.696C91.5452 493.091 91.5207 487.254 97.724 483.648C103.927 480.043 114.037 480.043 120.277 483.648Z" fill="#EBEBEB"/>
<path d="M117.808 485.083C122.685 487.891 122.71 492.453 117.87 495.261C113.03 498.07 105.144 498.07 100.267 495.261C95.3906 492.453 95.366 487.891 100.206 485.083C105.046 482.275 112.932 482.275 117.808 485.083Z" fill="#E0E0E0"/>
<g opacity="0.15">
<path d="M117.808 485.083C122.685 487.891 122.71 492.453 117.87 495.261C113.03 498.07 105.144 498.07 100.267 495.261C95.3906 492.453 95.366 487.891 100.206 485.083C105.046 482.275 112.932 482.275 117.808 485.083Z" fill="black"/>
</g>
<path d="M100.906 457.577C98.3141 454.351 95.3045 451.469 92.9215 448.085C91.3 445.779 89.9366 442.959 90.6244 440.224C91.2632 437.686 93.634 435.797 96.2135 435.319C98.7931 434.841 101.483 435.601 103.707 436.987C105.93 438.372 107.736 440.322 109.369 442.37C118.3 453.554 122.636 468.27 121.223 482.495C121.064 484.126 120.781 485.843 119.749 487.106C118.631 488.468 116.666 489.056 114.983 488.566C110.635 487.278 111.212 481.416 110.5 477.97C109.529 473.249 107.834 468.675 105.512 464.444C104.186 462.028 102.65 459.723 100.918 457.577H100.906Z" fill="#EB5E28"/>
<path opacity="0.2" d="M100.906 457.577C98.3141 454.351 95.3045 451.469 92.9215 448.085C91.3 445.779 89.9366 442.959 90.6244 440.224C91.2632 437.686 93.634 435.797 96.2135 435.319C98.7931 434.841 101.483 435.601 103.707 436.987C105.93 438.372 107.736 440.322 109.369 442.37C118.3 453.554 122.636 468.27 121.223 482.495C121.064 484.126 120.781 485.843 119.749 487.106C118.631 488.468 116.666 489.056 114.983 488.566C110.635 487.278 111.212 481.416 110.5 477.97C109.529 473.249 107.834 468.675 105.512 464.444C104.186 462.028 102.65 459.723 100.918 457.577H100.906Z" fill="white"/>
<path d="M115.241 484.2C115.069 484.163 114.946 484.028 114.934 483.844C114.627 476.879 112.367 453.113 95.9557 439.623C95.796 439.488 95.7714 439.255 95.9066 439.084C96.0417 438.924 96.2751 438.9 96.447 439.035C113.091 452.72 115.401 476.756 115.708 483.808C115.708 484.016 115.548 484.2 115.339 484.2C115.303 484.2 115.278 484.2 115.253 484.2H115.241Z" fill="#F0F0F0"/>
<path d="M117.636 484.948C117.145 487.683 114.787 491.067 112.305 492.318C109.848 493.569 106.999 493.9 104.247 493.667C101.446 493.422 98.7317 492.625 96.0662 491.73C94.7518 491.288 93.29 490.687 93.1426 489.068C93.0689 488.21 93.4497 487.376 94.0762 486.775C94.3341 486.518 94.6167 486.272 94.9238 486.039C95.538 485.561 95.2554 484.58 94.4693 484.531C93.6831 484.482 92.9092 484.396 92.1354 484.249C90.3542 483.906 88.5976 483.231 87.2342 482.042C86.2146 481.146 85.4407 479.981 84.9739 478.694C84.5809 477.602 84.4703 476.229 85.2933 475.407C85.7724 474.941 86.448 474.757 87.1113 474.622C87.6887 474.5 88.2783 474.389 88.8679 474.304C89.6418 474.181 89.7769 473.126 89.0521 472.82L86.5831 471.79C85.8952 471.508 85.1828 471.201 84.7037 470.625C83.9421 469.717 84.0035 468.38 84.2246 467.215C84.5317 465.67 85.0599 464.174 85.4284 462.641C85.797 461.108 85.9812 459.49 85.5881 457.969C90.2068 457.503 94.9606 457.724 99.4442 458.889C100.783 459.244 102.147 459.674 103.228 460.544C104.775 461.783 105.168 463.622 105.009 465.633C104.972 466.014 105.5 466.161 105.684 465.817L107.269 462.911C107.748 462.028 108.829 461.709 109.726 462.126C111.089 462.764 112.305 463.794 113.337 464.971C114.455 466.234 115.02 467.914 114.885 469.594C114.701 471.863 114.307 474.169 113.73 476.376C113.583 476.952 114.234 477.394 114.713 477.038L114.787 476.989C115.216 476.683 115.745 476.486 116.273 476.56C117.673 476.732 118.029 478.142 118.115 479.356C118.251 481.097 117.943 483.145 117.612 484.96L117.636 484.948Z" fill="#EB5E28"/>
<path opacity="0.2" d="M117.636 484.948C117.145 487.683 114.787 491.067 112.305 492.318C109.848 493.569 106.999 493.9 104.247 493.667C101.446 493.422 98.7317 492.625 96.0662 491.73C94.7518 491.288 93.29 490.687 93.1426 489.068C93.0689 488.21 93.4497 487.376 94.0762 486.775C94.3341 486.518 94.6167 486.272 94.9238 486.039C95.538 485.561 95.2554 484.58 94.4693 484.531C93.6831 484.482 92.9092 484.396 92.1354 484.249C90.3542 483.906 88.5976 483.231 87.2342 482.042C86.2146 481.146 85.4407 479.981 84.9739 478.694C84.5809 477.602 84.4703 476.229 85.2933 475.407C85.7724 474.941 86.448 474.757 87.1113 474.622C87.6887 474.5 88.2783 474.389 88.8679 474.304C89.6418 474.181 89.7769 473.126 89.0521 472.82L86.5831 471.79C85.8952 471.508 85.1828 471.201 84.7037 470.625C83.9421 469.717 84.0035 468.38 84.2246 467.215C84.5317 465.67 85.0599 464.174 85.4284 462.641C85.797 461.108 85.9812 459.49 85.5881 457.969C90.2068 457.503 94.9606 457.724 99.4442 458.889C100.783 459.244 102.147 459.674 103.228 460.544C104.775 461.783 105.168 463.622 105.009 465.633C104.972 466.014 105.5 466.161 105.684 465.817L107.269 462.911C107.748 462.028 108.829 461.709 109.726 462.126C111.089 462.764 112.305 463.794 113.337 464.971C114.455 466.234 115.02 467.914 114.885 469.594C114.701 471.863 114.307 474.169 113.73 476.376C113.583 476.952 114.234 477.394 114.713 477.038L114.787 476.989C115.216 476.683 115.745 476.486 116.273 476.56C117.673 476.732 118.029 478.142 118.115 479.356C118.251 481.097 117.943 483.145 117.612 484.96L117.636 484.948Z" fill="black"/>
<path opacity="0.2" d="M117.636 484.948C117.145 487.683 114.787 491.067 112.305 492.318C109.848 493.569 106.999 493.9 104.247 493.667C101.446 493.422 98.7317 492.625 96.0662 491.73C94.7518 491.288 93.29 490.687 93.1426 489.068C93.0689 488.21 93.4497 487.376 94.0762 486.775C94.3341 486.518 94.6167 486.272 94.9238 486.039C95.538 485.561 95.2554 484.58 94.4693 484.531C93.6831 484.482 92.9092 484.396 92.1354 484.249C90.3542 483.906 88.5976 483.231 87.2342 482.042C86.2146 481.146 85.4407 479.981 84.9739 478.694C84.5809 477.602 84.4703 476.229 85.2933 475.407C85.7724 474.941 86.448 474.757 87.1113 474.622C87.6887 474.5 88.2783 474.389 88.8679 474.304C89.6418 474.181 89.7769 473.126 89.0521 472.82L86.5831 471.79C85.8952 471.508 85.1828 471.201 84.7037 470.625C83.9421 469.717 84.0035 468.38 84.2246 467.215C84.5317 465.67 85.0599 464.174 85.4284 462.641C85.797 461.108 85.9812 459.49 85.5881 457.969C90.2068 457.503 94.9606 457.724 99.4442 458.889C100.783 459.244 102.147 459.674 103.228 460.544C104.775 461.783 105.168 463.622 105.009 465.633C104.972 466.014 105.5 466.161 105.684 465.817L107.269 462.911C107.748 462.028 108.829 461.709 109.726 462.126C111.089 462.764 112.305 463.794 113.337 464.971C114.455 466.234 115.02 467.914 114.885 469.594C114.701 471.863 114.307 474.169 113.73 476.376C113.583 476.952 114.234 477.394 114.713 477.038L114.787 476.989C115.216 476.683 115.745 476.486 116.273 476.56C117.673 476.732 118.029 478.142 118.115 479.356C118.251 481.097 117.943 483.145 117.612 484.96L117.636 484.948Z" fill="white"/>
<path d="M110.291 491.95C110.266 491.852 109.321 487.217 106.557 481.159C106.557 481.048 106.508 480.95 106.422 480.877C106.336 480.693 106.25 480.509 106.164 480.313C106.95 473.065 109.824 468.013 109.861 467.964C109.972 467.78 109.898 467.547 109.726 467.448C109.542 467.35 109.308 467.412 109.21 467.583C109.185 467.632 106.532 472.28 105.574 479.062C102.417 472.746 97.3807 465.351 89.6174 459.956C89.4455 459.833 89.2121 459.882 89.0892 460.054C88.9664 460.225 89.0155 460.458 89.1875 460.581C97.2088 466.149 102.257 473.874 105.341 480.276C99.0759 477.234 92.4181 478.436 92.1233 478.485C91.9145 478.522 91.7794 478.718 91.8162 478.927C91.8408 479.086 91.9636 479.197 92.111 479.233C92.1602 479.233 92.2093 479.233 92.2584 479.233C92.3321 479.221 99.5795 477.909 105.857 481.404C108.584 487.401 109.542 491.999 109.554 492.085C109.591 492.245 109.701 492.355 109.849 492.38C109.898 492.38 109.947 492.38 109.996 492.38C110.205 492.343 110.34 492.134 110.291 491.938V491.95Z" fill="#F0F0F0"/>
<path d="M500.311 333.51L483.249 334L466.187 333.51C465.45 345.013 467.698 356.724 470.806 362.451C471.358 363.702 472.476 364.891 474.184 365.885C479.22 368.791 487.352 368.791 492.351 365.885C494.083 364.879 495.201 363.653 495.729 362.365C498.8 356.614 501.036 344.951 500.299 333.51H500.311Z" fill="white"/>
<path d="M495.275 326.532C501.957 330.383 501.994 336.625 495.348 340.475C488.703 344.326 477.905 344.326 471.223 340.475C464.541 336.625 464.504 330.383 471.149 326.532C477.795 322.681 488.592 322.681 495.275 326.532Z" fill="#EBEBEB"/>
<path d="M492.634 328.065C497.842 331.069 497.879 335.938 492.695 338.942C487.511 341.947 479.085 341.947 473.877 338.942C468.668 335.938 468.631 331.069 473.815 328.065C478.999 325.06 487.425 325.06 492.634 328.065Z" fill="#E0E0E0"/>
<g opacity="0.15">
<path d="M492.634 328.065C497.842 331.069 497.879 335.938 492.695 338.942C487.511 341.947 479.085 341.947 473.877 338.942C468.668 335.938 468.631 331.069 473.815 328.065C478.999 325.06 487.425 325.06 492.634 328.065Z" fill="black"/>
</g>
<path d="M511.293 260.85C472.857 273.42 472.501 299.087 481.173 317.371C483.36 321.075 489.968 323.062 495.729 300.326L485.632 301.613L497.4 295.666L500.459 286.542L490.644 287.265L503.1 282.041C507.681 268.184 511.293 260.85 511.293 260.85Z" fill="#EB5E28"/>
<path opacity="0.2" d="M511.293 260.85C472.857 273.42 472.501 299.087 481.173 317.371C483.36 321.075 489.968 323.062 495.729 300.326L485.632 301.613L497.4 295.666L500.459 286.542L490.644 287.265L503.1 282.041C507.681 268.184 511.293 260.85 511.293 260.85Z" fill="black"/>
<path opacity="0.2" d="M511.293 260.85C472.857 273.42 472.501 299.087 481.173 317.371C483.36 321.075 489.968 323.062 495.729 300.326L485.632 301.613L497.4 295.666L500.459 286.542L490.644 287.265L503.1 282.041C507.681 268.184 511.293 260.85 511.293 260.85Z" fill="white"/>
<path d="M500.422 267.264C480.154 282.618 478.323 300.227 484.048 318.61C482.021 302.423 479.834 286.051 500.422 267.264Z" fill="white"/>
<path d="M446.189 286.922C484.084 292.244 488.678 316.096 483.642 334.564C482.217 338.378 476.395 341.321 467.243 321.099L476.861 320.633L464.909 317.04L460.549 309.057L469.811 308.113L457.343 305.304C450.759 293.164 446.177 286.934 446.177 286.934L446.189 286.922Z" fill="#EB5E28"/>
<path opacity="0.2" d="M446.189 286.922C484.084 292.244 488.678 316.096 483.642 334.564C482.217 338.378 476.395 341.321 467.243 321.099L476.861 320.633L464.909 317.04L460.549 309.057L469.811 308.113L457.343 305.304C450.759 293.164 446.177 286.934 446.177 286.934L446.189 286.922Z" fill="white"/>
<path opacity="0.1" d="M446.189 286.922C484.084 292.244 488.678 316.096 483.642 334.564C482.217 338.378 476.395 341.321 467.243 321.099L476.861 320.633L464.909 317.04L460.549 309.057L469.811 308.113L457.343 305.304C450.759 293.164 446.177 286.934 446.177 286.934L446.189 286.922Z" fill="black"/>
<path d="M457.379 291.104C478.815 302.042 483.445 318.144 481.173 336.208C480.362 320.793 479.687 305.194 457.379 291.104Z" fill="white"/>
<path d="M522.385 295.862C487.634 296.426 480.817 317.408 483.286 334.613C484.133 338.207 489.059 341.518 499.574 324.312L490.963 322.816L502.129 320.916L506.957 314.208L498.714 312.319L510.261 311.191C517.545 300.988 522.385 295.874 522.385 295.874V295.862Z" fill="#EB5E28"/>
<path d="M511.821 298.376C491.27 305.844 485.288 319.836 485.313 336.367C487.769 322.571 490.14 308.579 511.821 298.376Z" fill="white"/>
<path opacity="0.2" d="M522.385 295.862C487.634 296.426 480.817 317.408 483.286 334.613C484.133 338.207 489.059 341.518 499.574 324.312L490.963 322.816L502.129 320.916L506.957 314.208L498.714 312.319L510.261 311.191C517.545 300.988 522.385 295.874 522.385 295.874V295.862Z" fill="white"/>
<path d="M388.456 161.126L388.431 172.506L390.47 190.349L393.431 207.726L403.614 208.916L399.45 190.349L391.551 159.642L388.456 161.126Z" fill="#FFA8A7"/>
<path d="M392.497 205.605C399.523 202.98 404.117 206.672 404.117 206.672L405.272 236.434L392.73 229.273L392.497 205.617V205.605Z" fill="#EB5E28"/>
<path d="M392.497 205.605C399.523 202.98 404.117 206.672 404.117 206.672L405.272 236.434L392.73 229.273L392.497 205.617V205.605Z" fill="#EB5E28"/>
<path opacity="0.3" d="M392.497 205.605C399.523 202.98 404.117 206.672 404.117 206.672L405.272 236.434L392.73 229.273L392.497 205.617V205.605Z" fill="black"/>
<path opacity="0.3" d="M392.497 205.605C399.523 202.98 404.117 206.672 404.117 206.672L405.272 236.434L392.73 229.273L392.497 205.617V205.605Z" fill="white"/>
<path d="M386.245 120.032C387.399 119.37 388.345 119.897 388.345 121.234L388.714 251.555C388.714 252.879 387.78 254.498 386.625 255.16L335.058 284.886C333.904 285.548 332.958 285.021 332.958 283.684L332.589 153.363C332.589 152.039 333.523 150.42 334.678 149.758L386.245 120.032Z" fill="#EB5E28"/>
<g opacity="0.2">
<path d="M386.245 120.032C387.399 119.37 388.345 119.897 388.345 121.234L388.714 251.555C388.714 252.879 387.78 254.498 386.625 255.16L335.058 284.886C333.904 285.548 332.958 285.021 332.958 283.684L332.589 153.363C332.589 152.039 333.523 150.42 334.678 149.758L386.245 120.032Z" fill="black"/>
</g>
<g opacity="0.1">
<path d="M386.245 120.032C387.399 119.37 388.345 119.897 388.345 121.234L388.714 251.555C388.714 252.879 387.78 254.498 386.625 255.16L335.058 284.886C333.904 285.548 332.958 285.021 332.958 283.684L332.589 153.363C332.589 152.039 333.523 150.42 334.678 149.758L386.245 120.032Z" fill="white"/>
</g>
<path d="M385.532 124.52C386.011 124.435 386.134 124.729 386.011 125.097L361.223 202.122L386.368 250.365C386.49 250.598 386.368 251.028 386.11 251.31C385.692 251.604 385.508 251.579 385.422 251.408L360.658 203.888L336.25 279.748C336.164 280.018 335.968 280.263 335.771 280.373C335.292 280.459 335.181 280.165 335.292 279.797L360.08 202.772L334.936 154.528C334.813 154.295 334.936 153.879 335.194 153.584C335.611 153.29 335.796 153.314 335.882 153.486L360.646 201.006L385.066 125.134C385.152 124.864 385.336 124.619 385.532 124.508V124.52Z" fill="white"/>
<path d="M355.744 222.442L344.676 218.763L337.392 191.281C337.22 190.472 337.294 189.638 337.601 188.878L338.363 186.965C338.768 185.959 338.952 184.868 338.915 183.788L338.78 179.582C338.756 178.895 338.191 178.344 337.503 178.344C336.876 178.344 336.348 178.785 336.238 179.398L335.574 183.04L334.026 184.819L332.626 179.827V173.487L329.481 178.049C328.634 179.276 328.302 180.784 328.536 182.256L329.85 190.239L333.4 221.13C333.928 225.692 336.938 229.579 341.225 231.235L352.857 235.711L355.744 222.454V222.442Z" fill="#FFA8A7"/>
<path d="M379.464 389.638C378.862 391.527 376.798 392.606 374.821 392.766C372.843 392.925 370.89 392.373 368.949 392.017C364.588 391.233 360.375 392.017 356.014 391.907C354.589 391.87 353.14 391.809 351.764 391.441C350.376 391.073 349.049 390.399 348.128 389.307C347.588 388.657 347.219 387.86 347.084 387.026C346.875 388.265 347.305 389.602 348.128 390.583C349.049 391.674 350.376 392.361 351.764 392.716C353.152 393.084 354.589 393.146 356.014 393.182C360.363 393.281 364.576 392.496 368.949 393.293C370.902 393.648 372.855 394.2 374.821 394.041C376.798 393.881 378.862 392.802 379.464 390.914C379.673 390.264 379.685 389.589 379.611 388.903C379.587 389.148 379.538 389.393 379.464 389.638Z" fill="#545454"/>
<path d="M379.353 386.021C379.083 384.696 378.813 383.384 378.555 382.06C378.407 381.361 378.26 380.65 377.879 380.049C377.498 379.448 376.823 378.982 376.11 379.043C373.715 378.724 370.362 377.866 368.372 379.227C365.264 381.361 361.456 382.464 357.672 382.33C355.695 382.256 353.717 381.851 351.752 382.097C349.786 382.342 347.747 383.433 347.17 385.31C346.998 385.874 346.973 386.45 347.072 387.026C347.207 387.86 347.575 388.657 348.116 389.307C349.037 390.399 350.364 391.085 351.752 391.441C353.14 391.809 354.577 391.87 356.002 391.907C360.35 392.005 364.564 391.233 368.937 392.017C370.89 392.373 372.843 392.925 374.808 392.766C376.786 392.606 378.85 391.527 379.452 389.638C379.525 389.393 379.574 389.148 379.599 388.903C379.71 387.958 379.525 386.965 379.341 386.021H379.353Z" fill="#252422"/>
<path d="M367.794 375.07L367.622 380.233C367.585 381.324 368.421 382.268 369.526 382.342C371.307 382.464 373.027 382.452 374.735 382.293C376.184 382.158 377.314 380.981 377.4 379.534L377.609 375.72L367.807 375.07H367.794Z" fill="#FFA8A7"/>
<path d="M401.538 372.335C401.488 373.108 401.304 373.856 400.85 374.469C400.285 375.229 399.351 375.658 398.405 375.842C396.133 376.272 393.664 375.254 392.349 373.353C391.698 372.409 391.33 371.305 390.716 370.348C389.868 369.012 388.578 368.018 387.325 367.05C386.072 366.081 384.783 365.1 383.91 363.775C383.063 362.5 382.682 360.82 383.259 359.41C383.137 359.581 383.026 359.765 382.94 359.962C382.264 361.445 382.657 363.248 383.554 364.609C384.451 365.971 385.753 366.988 387.043 367.982C388.333 368.975 389.635 370.005 390.507 371.379C391.133 372.372 391.514 373.512 392.177 374.481C393.516 376.431 396.034 377.486 398.356 377.044C399.314 376.86 400.26 376.419 400.85 375.634C401.464 374.8 401.599 373.709 401.574 372.666C401.574 372.556 401.574 372.445 401.562 372.335H401.538Z" fill="#545454"/>
<path d="M399.965 365.848C398.393 363.101 395.15 361.102 392.657 359.152C391.244 358.048 389.61 357.104 387.817 356.957C386.023 356.81 384.058 357.632 383.309 359.263C383.284 359.312 383.272 359.361 383.26 359.41C382.682 360.82 383.063 362.5 383.911 363.775C384.783 365.1 386.073 366.081 387.326 367.05C388.591 368.018 389.868 369.012 390.716 370.348C391.33 371.305 391.699 372.421 392.35 373.353C393.664 375.254 396.133 376.259 398.405 375.842C399.339 375.671 400.273 375.241 400.85 374.469C401.304 373.856 401.489 373.108 401.538 372.335C401.55 372.09 401.562 371.832 401.55 371.587C401.513 369.588 400.96 367.589 399.965 365.86V365.848Z" fill="#252422"/>
<path d="M393.148 363.469V368.153C397.435 369.944 400.457 367.835 400.457 367.835L400.899 363.616L393.148 363.469Z" fill="#FFA8A7"/>
<path d="M402.139 278.399C403.552 282.618 401.82 302.668 400.997 321.884C404.056 329.156 403.233 349.783 401.464 364.438C401.464 364.438 398.405 366.314 392.89 364.438L385.962 323.994L385.004 301.135C385.004 301.135 383.259 321.418 381.269 334.43C383.149 344.399 382.682 346.263 378.039 376.921C378.039 376.921 373.285 379.681 367.647 376.921C365.018 333.865 365.988 294.623 366.48 280.508L402.127 278.399H402.139Z" fill="#545454"/>
<path opacity="0.3" d="M385.581 315.054L384.795 296.414C389.622 296.414 394.094 292.808 397.509 289.399C394.241 295.212 387.89 297.799 387.89 297.799L385.581 315.066V315.054Z" fill="black"/>
<path d="M365.743 281.649C387.277 290.65 401.231 282.519 403.123 278.289C402.128 263.426 405.653 246.049 405.383 238.654C405.112 231.272 404.204 222.945 392.731 224.613L380.533 225.802L374.342 227.298L366.922 242.689L365.743 281.637V281.649Z" fill="#EB5E28"/>
<path opacity="0.2" d="M365.743 281.649C387.277 290.65 401.231 282.519 403.123 278.289C402.128 263.426 405.653 246.049 405.383 238.654C405.112 231.272 404.204 222.945 392.731 224.613L380.533 225.802L374.342 227.298L366.922 242.689L365.743 281.637V281.649Z" fill="black"/>
<path opacity="0.3" d="M365.743 281.649C387.277 290.65 401.231 282.519 403.123 278.289C402.128 263.426 405.653 246.049 405.383 238.654C405.112 231.272 404.204 222.945 392.731 224.613L380.533 225.802L374.342 227.298L366.922 242.689L365.743 281.637V281.649Z" fill="white"/>
<path d="M392.73 218.775C393.455 218.873 394.61 218.506 395.113 217.966C395.617 217.426 395.826 216.642 395.678 215.918C396.403 215.783 397.042 215.268 397.312 214.594C397.595 213.919 397.349 212.963 396.931 212.374C397.975 212.116 398.884 211.368 399.363 210.4C399.83 209.431 399.916 208.18 399.474 207.199C400.629 206.905 401.587 205.973 401.906 204.832C402.238 203.692 402.029 202.22 401.218 201.362C402.226 200.062 402.434 198.198 401.759 196.702C401.083 195.205 399.388 194.114 397.742 194.004C398 192.422 397.373 190.729 396.17 189.687C394.954 188.645 393.258 188.35 391.735 188.816C391.207 187.48 389.942 186.474 388.517 186.253C387.092 186.045 385.532 186.474 384.635 187.602C383.935 186.805 382.817 186.388 381.761 186.548C380.704 186.707 379.599 187.283 379.157 188.252C377.805 187.651 376.147 187.786 374.907 188.608C373.678 189.43 372.966 190.938 373.003 192.422C371.909 192.716 371.099 193.832 371.16 194.96C371.221 196.088 372.167 197.229 373.285 197.401C374.341 203.177 376.319 208.903 379.009 214.128C380.213 216.47 381.699 218.861 384.046 220.075C386.576 221.387 390.556 220.639 392.73 218.788V218.775Z" fill="#545454"/>
<path d="M392.73 218.775C393.455 218.873 394.61 218.506 395.113 217.966C395.617 217.426 395.826 216.642 395.678 215.918C396.403 215.783 397.042 215.268 397.312 214.594C397.595 213.919 397.349 212.963 396.931 212.374C397.975 212.116 398.884 211.368 399.363 210.4C399.83 209.431 399.916 208.18 399.474 207.199C400.629 206.905 401.587 205.973 401.906 204.832C402.238 203.692 402.029 202.22 401.218 201.362C402.226 200.062 402.434 198.198 401.759 196.702C401.083 195.205 399.388 194.114 397.742 194.004C398 192.422 397.373 190.729 396.17 189.687C394.954 188.645 393.258 188.35 391.735 188.816C391.207 187.48 389.942 186.474 388.517 186.253C387.092 186.045 385.532 186.474 384.635 187.602C383.935 186.805 382.817 186.388 381.761 186.548C380.704 186.707 379.599 187.283 379.157 188.252C377.805 187.651 376.147 187.786 374.907 188.608C373.678 189.43 372.966 190.938 373.003 192.422C371.909 192.716 371.099 193.832 371.16 194.96C371.221 196.088 372.167 197.229 373.285 197.401C374.341 203.177 376.319 208.903 379.009 214.128C380.213 216.47 381.699 218.861 384.046 220.075C386.576 221.387 390.556 220.639 392.73 218.788V218.775Z" fill="#EB5E28"/>
<path opacity="0.7" d="M392.73 218.775C393.455 218.873 394.61 218.506 395.113 217.966C395.617 217.426 395.826 216.642 395.678 215.918C396.403 215.783 397.042 215.268 397.312 214.594C397.595 213.919 397.349 212.963 396.931 212.374C397.975 212.116 398.884 211.368 399.363 210.4C399.83 209.431 399.916 208.18 399.474 207.199C400.629 206.905 401.587 205.973 401.906 204.832C402.238 203.692 402.029 202.22 401.218 201.362C402.226 200.062 402.434 198.198 401.759 196.702C401.083 195.205 399.388 194.114 397.742 194.004C398 192.422 397.373 190.729 396.17 189.687C394.954 188.645 393.258 188.35 391.735 188.816C391.207 187.48 389.942 186.474 388.517 186.253C387.092 186.045 385.532 186.474 384.635 187.602C383.935 186.805 382.817 186.388 381.761 186.548C380.704 186.707 379.599 187.283 379.157 188.252C377.805 187.651 376.147 187.786 374.907 188.608C373.678 189.43 372.966 190.938 373.003 192.422C371.909 192.716 371.099 193.832 371.16 194.96C371.221 196.088 372.167 197.229 373.285 197.401C374.341 203.177 376.319 208.903 379.009 214.128C380.213 216.47 381.699 218.861 384.046 220.075C386.576 221.387 390.556 220.639 392.73 218.788V218.775Z" fill="black"/>
<path d="M372.425 205.028L369.895 209.406L372.659 210.436L372.425 205.028Z" fill="#F28F8F"/>
<path d="M373.297 197.388C371.627 203.434 371.369 209.86 372.573 216.016C372.782 217.059 373.039 218.15 373.727 218.959C374.501 219.879 375.73 220.333 376.933 220.431C378.137 220.529 379.341 220.308 380.533 220.088V225.79C384.869 226.808 389.328 227.212 392.73 224.6V218.763C390.298 219.474 387.645 219.781 385.163 219.241C382.166 217.623 381.564 212.166 381.982 210.718C382.424 211.442 383.493 211.724 384.328 211.54C385.164 211.356 385.851 210.731 386.269 209.995C386.699 209.259 386.883 208.413 386.994 207.567C387.129 206.537 387.117 205.421 386.552 204.562C385.851 203.495 384.39 203.091 383.161 203.422C381.933 203.753 380.926 204.697 380.299 205.801C380.103 206.157 379.931 206.512 379.796 206.892C379.538 207.579 378.543 207.456 378.481 206.721C378.334 205.09 378.616 203.422 379.341 201.95C378.383 201.963 377.474 201.227 376.897 200.454C376.319 199.682 376.135 198.627 376.43 197.719C374.98 197.891 373.297 197.376 373.297 197.376V197.388Z" fill="#FFA8A7"/>
<path d="M388.456 161.126L386.466 156.356L385.458 151.831C385.323 151.254 385.655 150.666 386.22 150.482C386.822 150.285 387.473 150.604 387.682 151.205L388.529 153.67V146.729L391.428 151.904C391.87 152.689 392.055 153.572 391.981 154.467L391.551 159.642L388.456 161.138V161.126Z" fill="#FFA8A7"/>
<path d="M374.378 227.286C367.512 225.017 355.302 221.338 355.302 221.338C349.823 226.857 350.278 235.772 350.278 235.772L366.922 242.689C382.805 247.716 385.127 230.842 374.378 227.286Z" fill="#EB5E28"/>
<path opacity="0.3" d="M374.378 227.286C367.512 225.017 355.302 221.338 355.302 221.338C349.823 226.857 350.278 235.772 350.278 235.772L366.922 242.689C382.805 247.716 385.127 230.842 374.378 227.286Z" fill="black"/>
<path opacity="0.3" d="M374.378 227.286C367.512 225.017 355.302 221.338 355.302 221.338C349.823 226.857 350.278 235.772 350.278 235.772L366.922 242.689C382.805 247.716 385.127 230.842 374.378 227.286Z" fill="white"/>
<path d="M380.655 373.991L357.476 356.896L348.558 330.125C348.521 328.126 348.472 326.103 348.435 324.092C348.41 322.853 347.723 321.713 346.605 321.185C344.922 320.376 343.104 319.836 341.249 319.665C340.856 318.377 340.34 317.151 339.517 316.121C339.087 315.581 338.338 315.434 337.724 315.728C337.724 315.728 337.711 315.728 337.699 315.74C336.925 316.121 336.655 317.077 337.109 317.813C338.952 320.768 340.377 324.03 340.795 327.464C339.542 326.802 338.461 325.992 337.552 324.999C336.606 323.969 334.923 324.214 334.284 325.453V325.477C335.82 328.739 338.829 331.511 342.084 333.056L346.285 360.501C346.691 363.138 347.993 365.554 349.983 367.344L367.119 382.71L380.631 373.978L380.655 373.991Z" fill="#FFA8A7"/>
<path d="M357.464 356.896L353.103 343.799C349.037 349.219 346.801 356.013 346.9 362.782C347.551 364.523 348.595 366.093 349.995 367.344L367.131 382.71L380.643 373.978L357.464 356.883V356.896Z" fill="#F28F8F"/>
<path d="M363.483 538.465C362.905 539.666 361.1 540.77 359.11 541.101C357.12 541.432 355.105 541.003 353.103 540.721C350.142 540.304 347.133 540.23 344.148 540.488C342.293 540.647 340.438 540.942 338.571 540.88C336.704 540.819 334.788 540.378 333.326 539.225C332.294 538.403 331.545 537.177 331.361 535.889C331.115 537.569 331.975 539.323 333.326 540.39C334.788 541.543 336.704 541.984 338.571 542.045C340.438 542.107 342.293 541.812 344.148 541.653C347.133 541.396 350.142 541.469 353.103 541.886C355.093 542.168 357.255 542.732 359.245 542.413C361.235 542.082 363.04 540.979 363.618 539.777L363.47 538.477L363.483 538.465Z" fill="#263238"/>
<path d="M341.741 534.921C343.411 534.921 342.797 532.456 344.382 530.8C343.731 530.837 343.08 530.849 342.441 530.849C341.016 532.909 340.611 534.921 341.741 534.921Z" fill="white"/>
<path d="M345.217 534.798C346.9 534.798 346.457 531.855 348.103 530.138C347.722 530.273 347.342 530.383 346.961 530.469C346.629 530.543 346.298 530.604 345.966 530.653C344.492 532.738 344.074 534.81 345.217 534.81V534.798Z" fill="white"/>
<path d="M361.763 529.157C361.653 528.617 361.345 528.127 360.891 527.796L351.862 527.575C350.941 528.801 349.578 529.635 348.116 530.138C346.47 531.855 346.9 534.798 345.229 534.798C344.087 534.798 344.505 532.725 345.979 530.641C345.45 530.714 344.934 530.763 344.406 530.8C342.822 532.456 343.436 534.921 341.765 534.921C340.635 534.921 341.04 532.897 342.465 530.849C342.048 530.849 341.618 530.849 341.2 530.837C340.819 530.837 340.426 530.8 340.045 530.776C336.729 533.4 336.446 536.245 336.876 540.709C337.454 540.807 338.031 540.868 338.608 540.893C340.475 540.954 342.33 540.66 344.185 540.5C347.17 540.243 350.18 540.316 353.14 540.733C355.13 541.015 357.157 541.445 359.147 541.113C361.137 540.782 362.942 539.679 363.52 538.477L361.788 529.169L361.763 529.157Z" fill="#545454"/>
<path d="M340.021 530.776C338.498 530.653 336.962 530.42 335.5 530.776C333.67 531.217 331.914 532.48 331.434 534.307C331.299 534.835 331.287 535.362 331.361 535.889C331.545 537.177 332.294 538.403 333.326 539.225C334.333 540.022 335.562 540.476 336.839 540.696C336.409 536.233 336.692 533.388 340.008 530.763L340.021 530.776Z" fill="white"/>
<path d="M351.604 525V529.341C351.604 530.322 352.403 531.131 353.398 531.131H357.955C359.54 531.131 360.83 529.88 360.891 528.298L361.002 525H351.617H351.604Z" fill="#FFA8A7"/>
<path d="M381.7 523.062C381.159 524.153 380.164 524.877 378.96 524.975C377.769 525.073 376.504 524.767 375.496 524.129C373.924 523.136 373.322 521.578 372.254 520.168C371.185 518.758 369.821 517.617 368.482 516.489C367.058 515.299 365.633 514 364.871 512.307C364.65 511.829 364.515 511.302 364.441 510.774C364.306 511.755 364.466 512.81 364.871 513.717C365.633 515.41 367.058 516.697 368.482 517.899C369.834 519.027 371.197 520.18 372.254 521.578C373.322 522.988 373.936 524.546 375.496 525.539C376.504 526.177 377.781 526.483 378.96 526.385C380.177 526.287 381.159 525.551 381.7 524.472C381.884 524.104 381.896 522.988 381.859 522.056C381.835 522.51 381.786 522.878 381.7 523.074V523.062Z" fill="#263238"/>
<path d="M371.431 513.534C371.296 513.754 371.16 514.024 371.21 514.282C371.259 514.539 371.455 514.76 371.701 514.846C372.045 514.968 372.438 514.821 372.72 514.588C373.003 514.355 373.199 514.036 373.421 513.754C374.022 512.994 374.833 512.393 375.742 512.062C376.184 511.903 376.651 511.792 377.13 511.755C376.749 511.412 376.381 511.069 376 510.725C375.288 510.774 374.588 510.934 373.936 511.228C372.88 511.719 371.996 512.54 371.418 513.546L371.431 513.534Z" fill="white"/>
<path d="M371.676 509.953C370.62 510.443 369.736 511.265 369.158 512.27C369.023 512.491 368.888 512.761 368.937 513.018C368.986 513.276 369.183 513.497 369.428 513.583C369.772 513.705 370.165 513.558 370.448 513.325C370.73 513.092 370.927 512.773 371.148 512.491C371.75 511.731 372.561 511.13 373.47 510.799C374.195 510.529 374.981 510.431 375.755 510.492C375.386 510.149 375.005 509.818 374.637 509.474C373.629 509.376 372.598 509.536 371.676 509.965V509.953Z" fill="white"/>
<path d="M373.924 508.824C372.843 507.868 371.713 506.973 370.374 506.458C368.753 505.844 366.75 505.93 365.498 507.132C364.539 508.052 364.232 509.438 364.417 510.787C364.49 511.314 364.625 511.841 364.846 512.319C365.141 512.957 365.522 513.546 365.964 514.085C366.394 510.198 369.772 508.383 373.912 508.824H373.924Z" fill="white"/>
<path d="M381.786 519.26C381.687 517.875 381.614 516.673 380.901 515.459L378.702 513.166C378.186 512.687 377.658 512.221 377.142 511.743C376.663 511.78 376.197 511.89 375.754 512.05C374.845 512.381 374.035 512.982 373.433 513.742C373.212 514.024 373.003 514.343 372.733 514.576C372.45 514.809 372.057 514.956 371.713 514.833C371.467 514.748 371.271 514.527 371.222 514.269C371.172 514.012 371.308 513.754 371.443 513.521C372.02 512.516 372.904 511.694 373.961 511.203C374.6 510.897 375.312 510.738 376.025 510.701C375.939 510.627 375.853 510.541 375.767 510.468C374.993 510.406 374.207 510.505 373.482 510.774C372.573 511.105 371.762 511.706 371.16 512.467C370.939 512.749 370.73 513.068 370.46 513.301C370.178 513.534 369.784 513.681 369.44 513.558C369.195 513.472 368.998 513.251 368.949 512.994C368.9 512.736 369.035 512.479 369.17 512.246C369.748 511.24 370.632 510.419 371.688 509.928C372.61 509.499 373.642 509.34 374.649 509.438C374.636 509.425 374.624 509.413 374.612 509.401C374.391 509.205 374.17 508.996 373.936 508.8C369.797 508.358 366.419 510.173 365.989 514.061C366.714 514.944 367.598 515.729 368.482 516.464C369.834 517.593 371.197 518.745 372.253 520.143C373.322 521.554 373.936 523.111 375.496 524.104C376.504 524.742 377.781 525.049 378.96 524.951C380.176 524.852 381.159 524.117 381.7 523.037C381.798 522.854 381.847 522.473 381.859 522.02C381.908 521.002 381.81 519.616 381.786 519.224V519.26Z" fill="#545454"/>
<path d="M373.863 512.393L374.121 517.053C377.069 518.745 380.164 517.826 381.196 516.746L381.393 512.381H373.863V512.393Z" fill="#FFA8A7"/>
<path d="M380.115 412.362C379.943 412.129 379.796 411.884 379.673 411.639C370.448 416.495 359.368 417.77 349.283 415.085C347.133 431.076 345.279 458.165 346.421 476.033C347.367 496.831 351.199 526.287 351.199 526.287C356.199 527.783 359.945 526.876 361.37 525.784C363.041 505.145 366.701 491.006 363.876 477.369C365.768 467.829 366.984 455.847 366.984 455.847L368.433 476.928L373.322 513.975C378.101 516.415 382.105 513.534 382.105 513.534C385.655 492.343 386.994 477.995 383.886 467.473C388.628 432.707 388.874 423.816 380.14 412.374L380.115 412.362Z" fill="#EB5E28"/>
<path opacity="0.4" d="M380.115 412.362C379.943 412.129 379.796 411.884 379.673 411.639C370.448 416.495 359.368 417.77 349.283 415.085C347.133 431.076 345.279 458.165 346.421 476.033C347.367 496.831 351.199 526.287 351.199 526.287C356.199 527.783 359.945 526.876 361.37 525.784C363.041 505.145 366.701 491.006 363.876 477.369C365.768 467.829 366.984 455.847 366.984 455.847L368.433 476.928L373.322 513.975C378.101 516.415 382.105 513.534 382.105 513.534C385.655 492.343 386.994 477.995 383.886 467.473C388.628 432.707 388.874 423.816 380.14 412.374L380.115 412.362Z" fill="black"/>
<path opacity="0.1" d="M380.115 412.362C379.943 412.129 379.796 411.884 379.673 411.639C370.448 416.495 359.368 417.77 349.283 415.085C347.133 431.076 345.279 458.165 346.421 476.033C347.367 496.831 351.199 526.287 351.199 526.287C356.199 527.783 359.945 526.876 361.37 525.784C363.041 505.145 366.701 491.006 363.876 477.369C365.768 467.829 366.984 455.847 366.984 455.847L368.433 476.928L373.322 513.975C378.101 516.415 382.105 513.534 382.105 513.534C385.655 492.343 386.994 477.995 383.886 467.473C388.628 432.707 388.874 423.816 380.14 412.374L380.115 412.362Z" fill="white"/>
<path opacity="0.2" d="M369.072 451.666L371.688 440.69C374.747 440.187 379.525 438.188 382.031 434.007C378.444 436.79 373.899 438.47 369.354 438.47L366.971 455.835L367.475 463.254L367.684 460.556C367.917 457.564 368.372 454.597 369.072 451.666Z" fill="black"/>
<path d="M361.161 374.69L353.521 376.186C351.838 379.276 350.106 382.17 348.423 385.248C347.146 387.578 345.843 390.043 345.942 392.692C346.04 395.513 347.907 398.186 350.524 399.265L346.875 425.373C361.038 434.007 383.984 427.924 386.097 420.272C384.046 414.999 381.872 413.086 380.545 406.844C379.562 402.27 381.859 395.819 382.265 393.967C382.879 391.135 383.493 388.277 383.555 385.371C383.616 382.464 383.075 379.485 381.54 377.032C381.528 377.007 381.503 376.983 381.491 376.958C379.513 373.856 375.754 372.36 372.106 372.936L361.161 374.677V374.69Z" fill="#EB5E28"/>
<path d="M370.878 368.583C373.077 367.749 374.846 365.921 375.497 363.775C376.197 361.482 375.706 359.03 376.381 356.736C376.713 355.596 377.315 354.639 377.573 353.462C377.855 352.199 377.99 350.911 377.867 349.624C377.499 345.466 374.453 341.763 370.522 339.825C366.603 337.888 360.204 336.894 355.855 337.679C353.853 338.035 351.789 338.685 350.487 340.144C349.173 341.604 349.16 344.265 350.733 345.479C349.762 346.178 349.111 347.269 349.001 348.41C348.89 349.55 349.861 351.402 351.445 351.819C352.87 365.468 359.11 368.215 362.365 369.392C365.621 370.569 367.893 371.452 370.878 368.57V368.583Z" fill="#263238"/>
<path d="M350.647 356.405L348.288 360.501L350.88 361.445L350.647 356.405Z" fill="#FFA8A7"/>
<path d="M350.388 354.578C350.769 350.985 351.826 347.6 354.16 345.883C353.767 348.14 354.209 351.34 356.481 353.057C356.199 355.326 356.088 356.16 356.85 358.735C357.083 357.558 357.697 356.467 358.594 355.657C359.491 354.848 360.83 354.468 361.947 354.946C362.734 355.277 363.311 355.988 363.63 356.773C364.257 358.318 363.901 360.195 362.758 361.409C361.616 362.61 359.749 363.076 358.176 362.537C358.705 365.75 361.444 368.362 364.625 369.061C366.714 369.527 368.888 369.355 370.878 368.583L371.848 373.304C367.905 377.51 361.161 374.677 361.161 374.677L360.277 369.919C352.514 370.385 351.789 370.25 350.929 365.983C350.462 363.64 349.922 358.956 350.376 354.578H350.388Z" fill="#FFA8A7"/>
<path d="M374.551 347.159L373.789 344.167C373.507 343.676 372.782 343.48 372.266 343.688C371.75 343.909 371.406 344.436 371.296 344.988C371.197 345.54 371.308 346.116 371.517 346.644C371.689 347.085 371.922 347.514 372.278 347.821C372.634 348.128 373.138 348.299 373.593 348.177C374.047 348.066 374.588 347.637 374.551 347.171V347.159Z" fill="#EB5E28"/>
<path d="M373.949 347.257C376.221 346.717 378.654 348.128 379.796 350.163C380.938 352.199 380.975 354.701 380.496 356.982C379.771 360.415 377.978 363.518 376.442 366.67C374.907 369.821 373.568 373.255 373.863 376.75C374.256 381.349 377.953 384.966 382.425 386.156C381.233 385.248 380.742 383.912 380.644 382.415C381.81 384.145 383.739 385.346 385.803 385.641C387.879 385.923 389.918 385.297 391.515 383.948C389.697 384.034 387.94 383.262 386.601 382.035C387.768 382.305 389.119 382.035 390.213 381.532C386.478 379.423 385.213 374.542 385.68 370.275C386.147 366.02 387.916 362.01 388.714 357.791C389.512 353.585 389.119 348.716 385.999 345.785C383.567 343.504 379.907 342.879 376.614 343.431C375.533 343.615 374.477 343.897 373.445 344.265C371.873 344.657 372.806 347.465 373.949 347.245V347.257Z" fill="#263238"/>
<path d="M303.993 362.635L315.331 395.414L338.756 382.44L327.541 350.016L303.993 362.635Z" fill="#EB5E28"/>
<path opacity="0.3" d="M303.993 362.635L315.331 395.414L338.756 382.44L327.541 350.016L303.993 362.635Z" fill="black"/>
<path opacity="0.2" d="M303.993 362.635L315.331 395.414L338.756 382.44L327.541 350.016L303.993 362.635Z" fill="white"/>
<path d="M335.267 381.103L325.944 354.112L307.481 363.996L316.915 391.269L335.267 381.103Z" fill="white"/>
<path d="M322.688 356.111L312.431 361.482L311.989 360.121L313.979 358.367L319.593 355.547L322.148 355.081L322.688 356.111Z" fill="#545454"/>
<path d="M319.593 355.547L319.151 354.517L313.672 357.448L313.979 358.367L319.593 355.547Z" fill="#252422"/>
<path d="M322.332 352.812L309.938 359.446L309.397 358.159L321.915 351.598L322.332 352.812Z" fill="#545454"/>
<path d="M318.979 353.143C317.898 349.734 311.412 352.947 312.677 356.442L318.979 353.143Z" fill="#252422"/>
<path d="M348.288 379.203L331.779 400.307L316.756 385.555C315.92 384.733 315.38 383.642 315.232 382.477C314.52 376.873 312.96 372.887 310.97 373.586C309.717 374.027 311.326 379.485 311.326 379.485L309.459 378.418L307.272 372.102H306.29C305.221 372.102 304.275 372.777 303.931 373.782L302.998 376.48C301.855 379.754 302.998 383.397 305.774 385.457L309.066 387.897C309.557 388.265 309.987 388.719 310.319 389.234C316.805 399.057 323.733 407.432 327.946 411.724C329.457 413.257 331.84 413.49 333.633 412.301C340.021 408.082 353.029 395.917 359.712 387.431C362.328 384.108 361.431 379.239 357.795 377.056C354.565 375.119 350.376 376.088 348.3 379.227L348.288 379.203Z" fill="#FFA8A7"/>
<path d="M235.462 197.621C239.049 195.549 241.96 197.217 241.972 201.325L242.193 277.688C242.193 281.796 239.307 286.812 235.72 288.884L143.96 341.775C140.374 343.848 137.462 342.18 137.45 338.072L137.229 261.709C137.229 257.588 140.116 252.585 143.703 250.513L235.462 197.621Z" fill="#EB5E28"/>
<g opacity="0.8">
<path d="M235.462 197.621C239.049 195.549 241.96 197.217 241.972 201.325L242.193 277.688C242.193 281.796 239.307 286.812 235.72 288.884L143.96 341.775C140.374 343.848 137.462 342.18 137.45 338.072L137.229 261.709C137.229 257.588 140.116 252.585 143.703 250.513L235.462 197.621Z" fill="white"/>
</g>
<path d="M236.15 202.637C236.346 202.527 236.543 202.514 236.678 202.637C236.899 202.845 236.838 203.348 236.543 203.765L190.81 269.067L236.764 281.514C237.046 281.587 237.12 282.017 236.899 282.47C236.776 282.74 236.58 282.961 236.383 283.071C236.248 283.145 236.113 283.182 236.002 283.157L189.729 270.624L143.678 336.379C143.567 336.539 143.432 336.661 143.297 336.747C143.1 336.858 142.904 336.87 142.769 336.747C142.56 336.539 142.609 336.036 142.904 335.631L188.636 270.33L142.683 257.883C142.388 257.809 142.327 257.38 142.535 256.914C142.658 256.644 142.867 256.423 143.064 256.313C143.199 256.239 143.334 256.203 143.444 256.239L189.717 268.772L235.769 203.017C235.879 202.845 236.015 202.723 236.15 202.649V202.637Z" fill="white"/>
<path d="M237.44 252.426L242.157 262.408L233.779 287.768L215.292 299.749L221.901 315.373L240.793 296.953C243.053 294.746 244.503 291.852 244.92 288.737L248.47 262.077L244.429 247.005L242.095 244.773L242.169 254.326L239.81 251.04C239.368 250.427 238.521 250.28 237.906 250.696C237.341 251.077 237.145 251.812 237.44 252.426Z" fill="#AB6060"/>
<path d="M214.322 297.211L229.418 289.62C238.263 291.852 238.484 301.184 238.484 301.184L222.871 315.373L214.322 297.211Z" fill="#252422"/>
<path d="M198.39 469.435C197.763 471.397 195.601 472.525 193.55 472.685C191.486 472.844 189.46 472.268 187.421 471.9C182.863 471.078 178.478 471.9 173.945 471.79C172.459 471.753 170.948 471.692 169.511 471.311C168.074 470.931 166.673 470.22 165.715 469.079C165.15 468.405 164.757 467.571 164.622 466.713C164.401 468.013 164.855 469.398 165.715 470.416C166.673 471.557 168.061 472.268 169.511 472.648C170.948 473.028 172.459 473.09 173.945 473.126C178.49 473.237 182.876 472.415 187.421 473.237C189.447 473.605 191.486 474.181 193.55 474.022C195.614 473.862 197.763 472.734 198.39 470.772C198.611 470.097 198.623 469.386 198.55 468.675C198.513 468.932 198.476 469.19 198.39 469.435Z" fill="#263238"/>
<path d="M198.267 465.67C197.984 464.297 197.714 462.923 197.432 461.538C197.284 460.814 197.125 460.066 196.731 459.441C196.338 458.815 195.626 458.325 194.889 458.386C192.395 458.055 188.894 457.16 186.819 458.582C183.576 460.814 179.608 461.967 175.665 461.82C173.601 461.746 171.55 461.317 169.498 461.574C167.447 461.82 165.322 462.96 164.72 464.922C164.536 465.499 164.524 466.112 164.61 466.713C164.745 467.571 165.138 468.417 165.703 469.079C166.661 470.22 168.049 470.931 169.498 471.311C170.936 471.692 172.447 471.753 173.933 471.79C178.478 471.9 182.863 471.078 187.408 471.9C189.435 472.268 191.474 472.844 193.538 472.685C195.601 472.525 197.751 471.397 198.377 469.435C198.451 469.19 198.5 468.932 198.537 468.675C198.66 467.694 198.463 466.664 198.267 465.67Z" fill="#EB5E28"/>
<path d="M186.217 454.266L186.045 459.649C186.008 460.79 186.88 461.771 188.022 461.844C189.877 461.967 191.671 461.955 193.452 461.795C194.963 461.648 196.142 460.434 196.228 458.913L196.437 454.94L186.217 454.266Z" fill="#FFA8A7"/>
<path opacity="0.4" d="M186.217 454.266L186.045 459.649C186.008 460.79 186.88 461.771 188.022 461.844C189.877 461.967 191.671 461.955 193.452 461.795C194.963 461.648 196.142 460.434 196.228 458.913L196.437 454.94L186.217 454.266Z" fill="black"/>
<path d="M221.397 451.396C221.336 452.193 221.152 452.978 220.672 453.616C220.083 454.413 219.112 454.866 218.13 455.05C215.771 455.492 213.192 454.437 211.816 452.463C211.14 451.482 210.747 450.329 210.108 449.323C209.224 447.925 207.885 446.895 206.571 445.89C205.256 444.884 203.917 443.854 203.008 442.481C202.124 441.144 201.719 439.402 202.333 437.931C202.21 438.115 202.087 438.299 202.001 438.507C201.289 440.052 201.706 441.929 202.64 443.351C203.574 444.774 204.937 445.828 206.276 446.871C207.615 447.901 208.978 448.98 209.887 450.415C210.538 451.445 210.931 452.635 211.632 453.64C213.032 455.676 215.661 456.767 218.068 456.313C219.063 456.13 220.058 455.663 220.66 454.842C221.299 453.971 221.434 452.831 221.409 451.752C221.409 451.641 221.409 451.519 221.397 451.408V451.396Z" fill="#263238"/>
<path d="M219.764 444.651C218.13 441.782 214.752 439.697 212.148 437.673C210.674 436.521 208.966 435.54 207.099 435.38C205.232 435.221 203.181 436.079 202.394 437.784C202.37 437.833 202.358 437.882 202.345 437.931C201.743 439.402 202.149 441.144 203.021 442.481C203.93 443.854 205.269 444.884 206.583 445.89C207.898 446.895 209.237 447.938 210.121 449.323C210.76 450.329 211.153 451.482 211.828 452.463C213.192 454.437 215.771 455.504 218.142 455.05C219.125 454.866 220.095 454.413 220.685 453.616C221.164 452.978 221.348 452.193 221.41 451.396C221.422 451.138 221.434 450.881 221.422 450.623C221.385 448.539 220.808 446.466 219.776 444.651H219.764Z" fill="#EB5E28"/>
<path d="M212.651 442.162V447.055C217.122 448.919 220.267 446.724 220.267 446.724L220.721 442.321L212.639 442.174L212.651 442.162Z" fill="#FFA8A7"/>
<path opacity="0.4" d="M212.651 442.162V447.055C217.122 448.919 220.267 446.724 220.267 446.724L220.721 442.321L212.639 442.174L212.651 442.162Z" fill="black"/>
<path d="M222.024 353.474C223.498 357.877 223.043 380.932 222.183 400.982C223.584 410.731 223.535 431.873 221.704 447.141C221.704 447.141 216.594 449.949 209.494 447.386L205.17 401.019L204.163 377.191C204.163 377.191 202.345 398.333 200.269 411.896C201.018 421.854 199.372 440.886 197.911 461.194C197.911 461.194 190.049 465.768 182.249 460.765C179.51 415.882 183.956 370.41 184.853 355.694L222.024 353.499V353.474Z" fill="#252422"/>
<path opacity="0.3" d="M204.765 391.699L203.942 372.262C208.978 372.262 213.646 368.509 217.196 364.953C213.781 371.023 207.173 373.709 207.173 373.709L204.765 391.699Z" fill="black"/>
<path d="M184.079 318.806V356.859C206.521 366.253 221.078 357.766 223.043 353.352C222.011 337.863 225.672 319.738 225.389 312.037C225.107 304.336 224.161 295.666 212.209 297.407L199.495 298.646L193.046 300.215L184.079 318.806Z" fill="#545454"/>
<path d="M172.164 316.734L167.877 321.185L143.997 311.779C143.936 309.903 143.887 306.911 143.543 305.255C143.408 304.569 143.027 303.98 142.327 303.98C141.86 303.98 141.197 304.74 141.111 305.979C141.098 306.212 141.061 307.573 141.025 307.978C140.951 308.799 139.919 309.131 139.379 308.505C138.764 307.782 138.15 307.046 138.064 306.788L137.696 305.734C137.45 305.035 137.315 303.097 137.315 302.349C137.315 302.349 134.256 303.207 133.593 307.414C133.384 308.714 132.979 311.264 133.396 312.687C134.133 315.189 136.332 316.268 140.116 317.506C147.658 322.755 158.197 328.899 163.86 332.136C166.305 333.522 169.314 333.412 171.648 331.854L180.713 325.809L172.152 316.734H172.164Z" fill="#AB6060"/>
<path d="M165.26 326.655C165.26 326.655 165.96 323.184 167.889 321.198L165.838 320.388C164.499 321.541 164.093 324.57 165.26 326.655Z" fill="#873E3E"/>
<path d="M171.107 316.771L183.158 304.937C185.848 302.3 189.324 300.632 193.071 300.191L193.292 300.166C198.402 311.326 191.646 316.771 191.646 316.771L180.443 327.047C173.318 323.27 171.107 316.771 171.107 316.771Z" fill="#252422"/>
<path d="M211.582 290.454C215.648 286.763 218.523 281.686 219.162 276.241C219.334 274.732 219.346 273.138 218.67 271.777C217.995 270.416 216.25 268.993 214.776 269.361C214.862 267.804 213.56 265.339 212.221 264.566C210.87 263.781 209.261 263.585 207.701 263.61C206.141 263.634 204.593 263.867 203.033 263.867C200.564 263.867 194.987 263.168 192.776 262.089C192.801 263.279 193.181 265.216 194.017 266.075C192.42 265.78 190.983 264.382 189.705 263.377C189.484 264.86 191.007 268.184 192.26 269.005C190.098 268.797 189.705 272.525 193.39 272.525C195.012 288.7 206.214 294.991 211.57 290.466L211.582 290.454Z" fill="#263238"/>
<path d="M191.941 279.037L189.938 282.52L191.928 283.255C191.867 281.845 191.867 280.447 191.953 279.037H191.941Z" fill="#873E3E"/>
<path d="M193.403 272.513C192.801 274.426 192.076 276.842 191.941 279.037C191.855 280.447 191.855 281.845 191.916 283.255C192.002 285.23 192.224 287.204 192.604 289.142C192.813 290.196 193.083 291.275 193.771 292.097C194.545 293.017 195.774 293.483 196.99 293.569C198.193 293.667 199.41 293.446 200.601 293.225V298.94C204.949 299.958 208.549 300.411 211.951 297.799L211.595 290.454C209.777 290.748 207.836 290.503 205.478 289.485C202.48 287.866 201.633 285.291 202.063 283.844C202.505 284.567 203.574 284.862 204.409 284.666C205.244 284.482 205.932 283.856 206.362 283.12C206.792 282.385 206.976 281.538 207.087 280.692C207.222 279.662 207.21 278.546 206.645 277.675C205.944 276.609 204.483 276.204 203.242 276.535C202.014 276.866 201.006 277.81 200.38 278.926C200.183 279.282 200.011 279.638 199.876 280.018C199.618 280.705 198.623 280.582 198.562 279.846C198.415 278.215 198.697 276.535 199.422 275.063C198.881 275.296 198.402 275.456 197.813 275.431C197.235 275.407 196.633 275.174 196.277 274.72C195.921 274.266 195.86 273.555 196.216 273.101C194.545 273.469 193.415 272.513 193.415 272.513H193.403Z" fill="#AB6060"/>
<path d="M233.779 287.768C236.444 287.695 238.029 289.657 238.483 290.907C238.287 285.45 235.019 286.333 234.11 286.763L233.779 287.768Z" fill="#873E3E"/>
</g>
<defs>
<clipPath id="clip0_20_5433">
<rect width="567.459" height="580" fill="white" transform="translate(0.0688477)"/>
</clipPath>
</defs>
</svg>
