<svg width="410" height="406" viewBox="0 0 410 406" fill="none" xmlns="http://www.w3.org/2000/svg">
<g clip-path="url(#clip0_20_4851)">
<path d="M60.0416 371.339C-20.0139 325.122 -20.0139 250.199 60.0416 203.982C140.097 157.765 269.894 157.765 349.958 203.982C430.014 250.199 430.014 325.122 349.958 371.339C269.903 417.556 140.106 417.556 60.0416 371.339Z" fill="#F0F0F0"/>
<path d="M168.515 380.06L46.2938 309.455C41.5274 306.706 41.5274 302.199 46.2938 299.45L244.192 185.127C246.157 183.989 249.372 183.989 251.328 185.127L376.549 257.464C379.065 258.921 379.065 262.557 376.549 264.005L175.651 380.052C173.686 381.189 170.471 381.189 168.515 380.052V380.06Z" fill="#E0E0E0"/>
<path d="M320.748 370.271C345.768 370.271 366.05 358.565 366.05 344.124C366.05 329.684 345.768 317.978 320.748 317.978C295.728 317.978 275.445 329.684 275.445 344.124C275.445 358.565 295.728 370.271 320.748 370.271Z" fill="#E0E0E0"/>
<path d="M58.9125 268.435C58.9125 268.435 58.6539 250.036 51.0086 235.024C43.3634 220.011 31.805 209.955 20.2983 207.886C8.78298 205.818 -1.6463 215.556 10.0414 224.122C21.7291 232.688 43.0358 242.357 50.457 270.787L58.9125 268.443V268.435Z" fill="#EB5E28"/>
<path opacity="0.15" d="M58.9125 268.435C58.9125 268.435 58.6539 250.036 51.0086 235.024C43.3634 220.011 31.805 209.955 20.2983 207.886C8.78298 205.818 -1.6463 215.556 10.0414 224.122C21.7291 232.688 43.0358 242.357 50.457 270.787L58.9125 268.443V268.435Z" fill="black"/>
<path d="M55.982 263.376C55.982 263.376 56.0682 263.367 56.1113 263.35C56.4388 263.255 56.6284 262.911 56.5336 262.575C47.2938 231.206 25.2372 216.297 14.8596 212.798C14.5321 212.686 14.1787 212.867 14.0666 213.186C13.9546 213.514 14.127 213.867 14.4545 213.979C24.6166 217.409 46.2336 232.051 55.3269 262.928C55.4131 263.212 55.6889 263.393 55.9734 263.376H55.982Z" fill="white"/>
<path d="M60.0762 285.791C55.801 288.247 53.3532 289.841 45.5096 290.496C40.8294 290.893 34.5029 290.229 29.0469 288.264C27.5902 287.738 25.3406 286.592 26.6077 285.196C27.2627 284.472 34.9511 283.257 37.7006 280.017C34.4856 280.879 30.245 281.853 26.9179 281.93C23.5909 281.999 20.1174 281.206 17.5661 279.069C15.032 276.949 13.6529 273.778 12.3687 270.736C11.9291 269.693 11.5154 268.417 12.1877 267.513C12.6186 266.935 13.3599 266.711 14.0494 266.522C16.9627 265.711 19.876 264.901 22.7893 264.091C24.6856 263.686 23.3496 262.428 22.6256 262.325C21.3758 262.144 20.1863 262.144 19.4623 262.187C16.1267 262.368 12.4462 262.997 9.72256 261.058C8.09353 259.903 7.12817 257.981 6.72307 256.025C6.57654 255.336 6.00767 246.339 6.40416 246.227C8.56759 245.632 10.8431 245.322 13.0668 245.063C15.1785 244.822 17.2385 244.727 19.3416 244.443C21.7205 244.124 24.1167 243.969 26.5128 243.969C27.3231 243.969 28.185 244.003 28.8745 244.443C29.8226 245.037 30.1933 246.235 30.3139 247.338C30.4346 248.45 30.3743 249.605 30.7621 250.648C31.7878 250.561 32.124 249.226 32.0981 248.2C32.0723 247.175 32.0981 245.891 33.0204 245.451C33.4944 245.227 34.0461 245.313 34.5546 245.425C37.8127 246.089 40.9845 247.149 43.9927 248.562C45.3717 249.208 46.7422 249.958 47.7334 251.113C49.1901 252.819 49.6296 255.181 49.6383 257.421C49.6469 259.662 49.3021 261.911 49.4486 264.143C51.207 262.575 53.6462 257.809 53.8358 255.465C57.6111 257.895 59.8521 262.893 60.5502 269.736C61.0157 274.252 60.9036 280.189 60.2744 284.765C60.2572 284.92 60.2141 285.722 60.0762 285.799V285.791Z" fill="#EB5E28"/>
<path opacity="0.3" d="M60.0762 285.791C55.801 288.247 53.3532 289.841 45.5096 290.496C40.8294 290.893 34.5029 290.229 29.0469 288.264C27.5902 287.738 25.3406 286.592 26.6077 285.196C27.2627 284.472 34.9511 283.257 37.7006 280.017C34.4856 280.879 30.245 281.853 26.9179 281.93C23.5909 281.999 20.1174 281.206 17.5661 279.069C15.032 276.949 13.6529 273.778 12.3687 270.736C11.9291 269.693 11.5154 268.417 12.1877 267.513C12.6186 266.935 13.3599 266.711 14.0494 266.522C16.9627 265.711 19.876 264.901 22.7893 264.091C24.6856 263.686 23.3496 262.428 22.6256 262.325C21.3758 262.144 20.1863 262.144 19.4623 262.187C16.1267 262.368 12.4462 262.997 9.72256 261.058C8.09353 259.903 7.12817 257.981 6.72307 256.025C6.57654 255.336 6.00767 246.339 6.40416 246.227C8.56759 245.632 10.8431 245.322 13.0668 245.063C15.1785 244.822 17.2385 244.727 19.3416 244.443C21.7205 244.124 24.1167 243.969 26.5128 243.969C27.3231 243.969 28.185 244.003 28.8745 244.443C29.8226 245.037 30.1933 246.235 30.3139 247.338C30.4346 248.45 30.3743 249.605 30.7621 250.648C31.7878 250.561 32.124 249.226 32.0981 248.2C32.0723 247.175 32.0981 245.891 33.0204 245.451C33.4944 245.227 34.0461 245.313 34.5546 245.425C37.8127 246.089 40.9845 247.149 43.9927 248.562C45.3717 249.208 46.7422 249.958 47.7334 251.113C49.1901 252.819 49.6296 255.181 49.6383 257.421C49.6469 259.662 49.3021 261.911 49.4486 264.143C51.207 262.575 53.6462 257.809 53.8358 255.465C57.6111 257.895 59.8521 262.893 60.5502 269.736C61.0157 274.252 60.9036 280.189 60.2744 284.765C60.2572 284.92 60.2141 285.722 60.0762 285.799V285.791Z" fill="black"/>
<path d="M59.3694 284.946C59.1798 284.946 58.9988 284.843 58.9126 284.671C46.6819 261.196 19.6347 251.303 13.0582 249.941C12.7824 249.881 12.6014 249.605 12.6531 249.329C12.7134 249.053 12.9893 248.872 13.2651 248.924C19.945 250.312 47.4059 260.351 59.8262 284.188C59.9555 284.438 59.8607 284.757 59.6107 284.886C59.5332 284.929 59.4556 284.946 59.3694 284.946Z" fill="white"/>
<path d="M23.8408 271.416C23.5736 271.416 23.3495 271.21 23.3236 270.942C23.2978 270.658 23.5133 270.408 23.7977 270.382C37.2954 269.322 41.6568 264.04 41.6999 263.988C41.8809 263.764 42.1998 263.729 42.4239 263.902C42.648 264.083 42.6825 264.402 42.5101 264.626C42.3291 264.858 37.8815 270.313 23.8753 271.416C23.858 271.416 23.8494 271.416 23.8322 271.416H23.8408Z" fill="white"/>
<path d="M386.038 205.947C380.057 212.488 369.084 223.252 362.706 233.645C362.689 233.671 362.672 233.697 362.663 233.722C360.172 237.799 358.388 241.814 357.897 245.494L357.448 252.139L354.716 250.561L354.259 250.294L353.13 249.648C351.51 248.709 350.493 246.994 350.45 245.132C350.01 228.931 354.337 215.16 358.526 206.818C364.258 195.434 374.997 183.826 384.332 184.963C393.011 186.023 394.382 196.83 386.038 205.947Z" fill="#EB5E28"/>
<path opacity="0.15" d="M386.038 205.947C380.057 212.488 369.084 223.252 362.706 233.645C362.689 233.671 362.672 233.697 362.663 233.722C360.172 237.799 358.388 241.814 357.897 245.494L357.448 252.139L354.716 250.561L354.259 250.294L353.13 249.648C351.51 248.709 350.493 246.994 350.45 245.132C350.01 228.931 354.337 215.16 358.526 206.818C364.258 195.434 374.997 183.826 384.332 184.963C393.011 186.023 394.382 196.83 386.038 205.947Z" fill="black"/>
<path d="M381.634 191.245C370.205 198.467 353.889 223.64 354.259 250.294L353.13 249.648C353.035 222.829 369.49 197.597 381.031 190.297C381.298 190.125 381.643 190.211 381.806 190.478C381.97 190.737 381.893 191.082 381.634 191.245Z" fill="white"/>
<path d="M392.813 227.302C390.822 232.706 379.462 237.394 371.075 245.193C368.869 247.244 366.947 249.364 365.326 251.441C363.706 253.517 360.801 254.069 358.517 252.75L357.517 252.173L357.448 252.139L354.716 250.562C356.336 244.46 359.25 238.678 362.663 233.722C362.672 233.697 362.689 233.671 362.706 233.645C368.257 225.596 375.109 219.779 379.893 218.46C389.296 215.875 395.201 220.813 392.813 227.302Z" fill="#EB5E28"/>
<path opacity="0.3" d="M392.813 227.302C390.822 232.706 379.462 237.394 371.075 245.193C368.869 247.244 366.947 249.364 365.326 251.441C363.706 253.517 360.801 254.069 358.517 252.75L357.517 252.173L357.448 252.139L354.716 250.562C356.336 244.46 359.25 238.678 362.663 233.722C362.672 233.697 362.689 233.671 362.706 233.645C368.257 225.596 375.109 219.779 379.893 218.46C389.296 215.875 395.201 220.813 392.813 227.302Z" fill="black"/>
<path d="M384.823 224.053C377.954 225.992 364.645 234.369 358.517 252.75L357.517 252.173C363.732 233.567 376.962 225.105 384.521 222.976C384.832 222.89 385.125 223.062 385.211 223.364C385.297 223.665 385.125 223.976 384.823 224.053Z" fill="white"/>
<path d="M52.5256 296.442C52.5256 299.433 54.7666 303.147 57.5248 304.741L166.377 367.59C169.135 369.185 173.617 369.185 176.375 367.59L368.05 256.947C370.808 255.353 373.049 251.639 373.049 248.648C373.049 245.658 370.808 241.944 368.05 240.349L259.198 177.5C256.44 175.906 251.958 175.906 249.199 177.5L57.5248 288.143C54.7666 289.738 52.5256 293.452 52.5256 296.442Z" fill="#252422"/>
<path d="M373.049 248.648C373.049 251.638 370.808 255.353 368.05 256.947L176.376 367.599C174.996 368.392 173.186 368.788 171.385 368.788V357.964C173.186 357.964 174.996 357.559 176.376 356.767L368.05 246.123C370.472 244.727 370.774 242.573 368.955 240.987C371.282 242.788 373.049 245.994 373.049 248.648Z" fill="black"/>
<path d="M171.376 357.964V368.78C169.566 368.78 167.748 368.383 166.377 367.59L57.5248 304.741C54.7666 303.147 52.5256 299.433 52.5256 296.442C52.5256 293.633 54.4994 290.194 57.0163 288.462C54.7753 290.065 54.9476 292.418 57.5248 293.909L166.377 356.758C167.748 357.551 169.566 357.956 171.376 357.956V357.964Z" fill="#252422"/>
<path d="M47.8368 288.325C45.3889 286.601 45.3889 284.309 45.3889 281.12V120.071C45.3889 116.883 47.6299 113.005 50.3881 111.41L242.054 0.767055C244.812 -0.827231 247.364 0.32755 249.949 1.82704C252.544 3.32653 254.19 4.61058 254.19 7.79915V168.848C254.19 172.036 251.949 175.914 249.191 177.509L57.5162 288.152C53.3359 290.97 50.4915 290.203 47.8282 288.333L47.8368 288.325Z" fill="#252422"/>
<path d="M57.5248 288.143C53.3445 290.953 50.4915 290.194 47.8368 288.316C45.3975 286.592 45.3889 284.291 45.3889 281.111V120.071C45.3889 118.477 45.9492 116.71 46.8456 115.15L53.9823 119.304C53.0773 120.855 52.5256 122.622 52.5256 124.208V285.256C52.5256 288.445 54.758 289.729 57.5248 288.143Z" fill="#232323"/>
<path d="M254.199 7.79038C254.199 4.61043 251.958 3.31777 249.199 4.90343L57.5247 115.555C56.1456 116.357 54.8872 117.727 53.9908 119.296L46.8541 115.15H46.8455C47.7505 113.582 49.0089 112.212 50.388 111.41L242.054 0.766909C244.812 -0.827378 247.363 0.327403 249.949 1.81828C252.544 3.31777 254.199 4.61043 254.199 7.79038Z" fill="#545454"/>
<path d="M60.2141 121.321L245.011 14.6761C246.665 13.7195 248.01 14.4951 248.01 16.4082V164.125C248.01 166.038 246.665 168.365 245.011 169.322L60.2141 275.967C58.5592 276.923 57.2146 276.148 57.2146 274.234V126.526C57.2146 124.613 58.5592 122.286 60.2141 121.329V121.321Z" fill="#353535"/>
<path d="M60.2141 121.321C58.5592 122.277 57.2146 124.604 57.2146 126.517V273.338L240.925 167.323C242.58 166.366 243.925 164.039 243.925 162.126V15.3052L60.2141 121.321Z" fill="#EB5E28"/>
<path opacity="0.65" d="M60.2141 121.321C58.5592 122.277 57.2146 124.604 57.2146 126.517V273.338L240.925 167.323C242.58 166.366 243.925 164.039 243.925 162.126V15.3052L60.2141 121.321Z" fill="white"/>
<path d="M71.3588 288.436L249.269 185.739C250.648 184.946 252.889 184.946 254.268 185.739L259.448 188.453C260.827 189.246 260.827 190.539 259.448 191.34L81.5036 294.021C80.1245 294.814 77.8835 294.814 76.5045 294.021L71.3588 291.315C69.9797 290.522 69.9797 289.229 71.3588 288.428V288.436Z" fill="#545454"/>
<path d="M85.3132 296.735L263.223 194.037C264.602 193.245 266.645 193.133 267.791 193.788L314.102 220.52C315.249 221.175 315.05 222.355 313.671 223.157L135.968 325.717C134.589 326.51 132.538 326.63 131.392 325.975L84.8908 299.364C83.7445 298.709 83.9341 297.528 85.3132 296.735Z" fill="#232323"/>
<path d="M238.012 236.747L243.58 233.533C243.812 233.395 243.847 233.197 243.657 233.085L238.744 230.249C238.555 230.137 238.201 230.155 237.969 230.292L232.4 233.507C232.168 233.645 232.133 233.843 232.323 233.955L237.236 236.79C237.434 236.902 237.779 236.885 238.012 236.747ZM230.237 225.828L224.669 229.043C224.436 229.181 224.402 229.379 224.591 229.491L229.504 232.326C229.694 232.438 230.047 232.421 230.28 232.283L235.848 229.069C236.081 228.931 236.124 228.733 235.926 228.621L231.013 225.785C230.823 225.673 230.47 225.69 230.237 225.828ZM212.24 236.221L202.811 241.659C202.578 241.797 202.543 241.995 202.733 242.107L207.646 244.943C207.844 245.055 208.189 245.037 208.422 244.899L217.851 239.462C218.084 239.324 218.118 239.126 217.929 239.014L213.016 236.178C212.818 236.066 212.473 236.084 212.24 236.221ZM222.092 230.534L216.524 233.748C216.291 233.886 216.257 234.084 216.446 234.196L221.359 237.031C221.549 237.144 221.902 237.126 222.135 236.988L227.703 233.774C227.936 233.636 227.979 233.438 227.781 233.326L222.868 230.491C222.678 230.379 222.325 230.396 222.092 230.534ZM200.242 243.15L194.674 246.365C194.433 246.502 194.398 246.701 194.596 246.813L199.509 249.648C199.699 249.76 200.052 249.743 200.285 249.605L205.853 246.39C206.086 246.252 206.12 246.054 205.931 245.942L201.018 243.107C200.828 242.995 200.475 243.012 200.242 243.15ZM192.097 247.847L186.529 251.061C186.296 251.199 186.262 251.397 186.451 251.509L191.364 254.345C191.554 254.457 191.907 254.439 192.14 254.301L197.708 251.087C197.941 250.949 197.975 250.751 197.786 250.639L192.873 247.804C192.674 247.692 192.33 247.709 192.097 247.847ZM212.74 260.256L218.308 257.042C218.541 256.904 218.575 256.706 218.386 256.594L213.473 253.759C213.274 253.647 212.93 253.664 212.697 253.802L207.129 257.016C206.896 257.154 206.853 257.352 207.051 257.464L211.964 260.299C212.154 260.411 212.507 260.394 212.74 260.256ZM204.595 264.953L210.163 261.739C210.396 261.601 210.43 261.403 210.24 261.29L205.327 258.455C205.129 258.343 204.784 258.36 204.552 258.498L198.984 261.713C198.751 261.851 198.716 262.049 198.906 262.161L203.819 264.996C204.017 265.108 204.362 265.091 204.595 264.953ZM196.45 269.65L202.018 266.435C202.25 266.297 202.285 266.099 202.095 265.987L197.182 263.152C196.984 263.04 196.639 263.057 196.407 263.195L190.839 266.409C190.606 266.547 190.571 266.746 190.761 266.858L195.674 269.693C195.872 269.805 196.217 269.788 196.45 269.65ZM188.304 274.346L193.872 271.132C194.105 270.994 194.14 270.796 193.95 270.684L189.037 267.849C188.847 267.737 188.494 267.754 188.261 267.892L182.693 271.106C182.461 271.244 182.418 271.442 182.616 271.554L187.529 274.389C187.718 274.502 188.072 274.484 188.304 274.346ZM229.858 241.444L235.426 238.229C235.659 238.091 235.693 237.893 235.503 237.781L230.59 234.946C230.401 234.834 230.047 234.851 229.815 234.989L224.247 238.203C224.014 238.341 223.971 238.54 224.169 238.652L229.082 241.487C229.28 241.599 229.625 241.582 229.866 241.444H229.858ZM220.877 255.551L233.305 248.381C233.538 248.243 233.573 248.045 233.383 247.933L220.739 240.634C220.54 240.522 220.196 240.539 219.963 240.677L213.533 244.391C213.3 244.529 213.266 244.727 213.455 244.839L220.48 248.898C220.67 249.01 220.635 249.208 220.402 249.346L215.257 252.311C215.024 252.449 214.981 252.647 215.179 252.759L220.092 255.594C220.282 255.706 220.635 255.689 220.868 255.551H220.877ZM183.952 252.543L178.384 255.758C178.151 255.896 178.117 256.094 178.306 256.206L183.219 259.041C183.409 259.153 183.762 259.136 183.995 258.998L189.563 255.784C189.796 255.646 189.83 255.448 189.64 255.336L184.727 252.5C184.538 252.388 184.184 252.406 183.952 252.543ZM175.807 257.24L170.239 260.455C170.006 260.592 169.971 260.791 170.161 260.903L175.074 263.738C175.272 263.85 175.617 263.833 175.85 263.695L181.418 260.48C181.65 260.343 181.685 260.144 181.495 260.032L176.582 257.197C176.393 257.085 176.039 257.102 175.807 257.24ZM130.538 307.292C130.728 307.404 131.081 307.387 131.314 307.249L136.882 304.035C137.115 303.897 137.149 303.698 136.96 303.586L132.047 300.751C131.848 300.639 131.504 300.656 131.271 300.794L125.703 304.009C125.47 304.147 125.436 304.345 125.625 304.457L130.538 307.292ZM110.671 294.839L105.103 298.054C104.87 298.192 104.827 298.39 105.025 298.502L109.938 301.337C110.137 301.449 110.481 301.432 110.714 301.294L116.282 298.08C116.515 297.942 116.549 297.744 116.36 297.632L111.447 294.796C111.248 294.684 110.904 294.702 110.671 294.839ZM120.661 304.069C120.859 304.181 121.204 304.164 121.436 304.026L127.004 300.812C127.237 300.674 127.272 300.475 127.082 300.363L122.169 297.528C121.971 297.416 121.626 297.433 121.393 297.571L115.825 300.786C115.593 300.924 115.558 301.122 115.748 301.234L120.661 304.069ZM143.321 309.24L148.889 306.025C149.121 305.887 149.164 305.689 148.966 305.577L144.053 302.742C143.864 302.63 143.51 302.647 143.278 302.785L137.71 305.999C137.477 306.137 137.442 306.336 137.632 306.448L142.545 309.283C142.735 309.395 143.088 309.378 143.321 309.24ZM134.4 313.988C134.589 314.1 134.943 314.083 135.175 313.945L140.743 310.731C140.976 310.593 141.011 310.394 140.821 310.282L135.908 307.447C135.71 307.335 135.365 307.352 135.132 307.49L129.564 310.705C129.332 310.843 129.297 311.041 129.487 311.153L134.4 313.988ZM118.808 290.143L113.239 293.357C112.998 293.495 112.972 293.693 113.162 293.805L118.075 296.641C118.265 296.753 118.618 296.735 118.851 296.597L124.419 293.383C124.651 293.245 124.686 293.047 124.496 292.935L119.583 290.1C119.394 289.988 119.04 290.005 118.808 290.143ZM159.516 266.642L153.948 269.857C153.715 269.994 153.681 270.193 153.871 270.305L158.784 273.14C158.982 273.252 159.327 273.235 159.559 273.097L165.127 269.882C165.36 269.745 165.395 269.546 165.205 269.434L160.292 266.599C160.102 266.487 159.749 266.504 159.516 266.642ZM126.953 285.437L121.385 288.652C121.152 288.79 121.117 288.988 121.307 289.1L126.22 291.935C126.418 292.047 126.763 292.03 126.996 291.892L132.564 288.678C132.797 288.54 132.831 288.342 132.641 288.23L127.728 285.394C127.53 285.282 127.185 285.3 126.953 285.437ZM167.661 261.937L162.093 265.151C161.861 265.289 161.826 265.487 162.016 265.599L166.929 268.435C167.127 268.547 167.472 268.529 167.704 268.392L173.272 265.177C173.505 265.039 173.54 264.841 173.35 264.729L168.437 261.894C168.239 261.782 167.894 261.799 167.661 261.937ZM151.38 271.339L145.812 274.553C145.579 274.691 145.536 274.889 145.734 275.001L150.647 277.837C150.837 277.949 151.19 277.931 151.423 277.793L156.991 274.579C157.223 274.441 157.267 274.243 157.068 274.131L152.155 271.296C151.966 271.184 151.612 271.201 151.38 271.339ZM143.234 276.035L137.666 279.25C137.434 279.388 137.391 279.586 137.589 279.698L142.502 282.533C142.691 282.645 143.045 282.628 143.278 282.49L148.846 279.276C149.078 279.138 149.113 278.94 148.923 278.828L144.01 275.992C143.821 275.88 143.467 275.898 143.234 276.035ZM135.089 280.732L129.521 283.947C129.289 284.084 129.254 284.283 129.444 284.395L134.357 287.23C134.555 287.342 134.9 287.325 135.132 287.187L140.7 283.972C140.933 283.835 140.968 283.636 140.778 283.524L135.865 280.689C135.667 280.577 135.322 280.594 135.089 280.732ZM172.014 283.74L177.582 280.525C177.815 280.387 177.858 280.189 177.66 280.077L172.747 277.242C172.548 277.13 172.204 277.147 171.971 277.285L166.403 280.499C166.17 280.637 166.136 280.836 166.325 280.948L171.238 283.783C171.437 283.895 171.781 283.878 172.014 283.74ZM248.208 215.427L242.64 218.641C242.407 218.779 242.373 218.977 242.563 219.089L247.476 221.925C247.665 222.037 248.019 222.019 248.251 221.881L253.819 218.667C254.052 218.529 254.087 218.331 253.897 218.219L248.984 215.384C248.794 215.272 248.441 215.289 248.208 215.427ZM238.356 221.114L232.788 224.329C232.556 224.467 232.521 224.665 232.711 224.777L237.624 227.612C237.813 227.724 238.167 227.707 238.399 227.569L243.967 224.355C244.2 224.217 244.235 224.019 244.045 223.907L239.132 221.071C238.942 220.959 238.589 220.977 238.356 221.114ZM256.353 210.73L250.785 213.944C250.553 214.082 250.518 214.281 250.708 214.393L255.621 217.228C255.81 217.34 256.164 217.323 256.396 217.185L261.964 213.97C262.197 213.832 262.24 213.634 262.042 213.522L257.129 210.687C256.931 210.575 256.586 210.592 256.345 210.73H256.353ZM210.99 252.319L216.558 249.105C216.791 248.967 216.826 248.769 216.636 248.657L211.723 245.822C211.533 245.71 211.18 245.727 210.947 245.865L205.379 249.079C205.146 249.217 205.112 249.415 205.302 249.527L210.215 252.362C210.413 252.475 210.758 252.457 210.99 252.319ZM265.274 205.982C265.085 205.87 264.731 205.887 264.499 206.025L258.931 209.239C258.698 209.377 258.655 209.575 258.853 209.687L263.766 212.523C263.956 212.635 264.309 212.617 264.542 212.479L270.11 209.265C270.342 209.127 270.385 208.929 270.187 208.817L265.274 205.982ZM180.159 279.034L185.727 275.82C185.96 275.682 185.994 275.484 185.805 275.372L180.892 272.537C180.694 272.425 180.349 272.442 180.116 272.58L174.548 275.794C174.315 275.932 174.281 276.13 174.471 276.242L179.384 279.078C179.573 279.19 179.927 279.172 180.159 279.034ZM279.996 221.399L285.564 218.184C285.797 218.047 285.831 217.848 285.642 217.736L280.729 214.901C280.539 214.789 280.186 214.806 279.953 214.944L274.385 218.159C274.152 218.296 274.109 218.495 274.307 218.607L279.22 221.442C279.41 221.554 279.763 221.537 279.996 221.399ZM264.128 221.64L269.696 218.426C269.929 218.288 269.963 218.09 269.773 217.978L264.861 215.142C264.671 215.03 264.318 215.048 264.085 215.185L258.517 218.4C258.284 218.538 258.241 218.736 258.439 218.848L263.352 221.683C263.542 221.795 263.895 221.778 264.128 221.64ZM273.006 210.437C272.816 210.325 272.463 210.342 272.23 210.48L266.662 213.695C266.429 213.832 266.395 214.031 266.584 214.143L271.497 216.978C271.687 217.09 272.04 217.073 272.273 216.935L277.841 213.72C278.074 213.583 278.117 213.384 277.919 213.272L273.006 210.437ZM274.721 209.446L287.365 216.745C287.564 216.857 287.908 216.84 288.141 216.702L293.709 213.488C293.942 213.35 293.976 213.152 293.787 213.04L281.142 205.74C280.944 205.628 280.599 205.646 280.367 205.783L274.799 208.998C274.566 209.136 274.531 209.334 274.721 209.446ZM255.948 219.882L250.38 223.097C250.147 223.234 250.104 223.433 250.303 223.545L255.216 226.38C255.414 226.492 255.759 226.475 255.991 226.337L261.559 223.122C261.792 222.985 261.827 222.786 261.637 222.674L256.724 219.839C256.526 219.727 256.181 219.744 255.948 219.882ZM194.674 255.249L189.106 258.464C188.873 258.602 188.839 258.8 189.028 258.912L193.941 261.747C194.131 261.859 194.484 261.842 194.717 261.704L200.285 258.49C200.518 258.352 200.552 258.154 200.363 258.042L195.45 255.206C195.252 255.094 194.907 255.112 194.674 255.249ZM271.084 226.139C271.273 226.251 271.627 226.233 271.859 226.096L277.427 222.881C277.66 222.743 277.695 222.545 277.505 222.433L272.592 219.598C272.402 219.486 272.049 219.503 271.816 219.641L266.248 222.855C266.016 222.993 265.972 223.191 266.171 223.303L271.084 226.139ZM202.819 250.544L197.251 253.759C197.019 253.896 196.984 254.095 197.174 254.207L202.087 257.042C202.276 257.154 202.63 257.137 202.862 256.999L208.43 253.784C208.663 253.647 208.698 253.448 208.508 253.336L203.595 250.501C203.405 250.389 203.052 250.406 202.819 250.544ZM138.683 302.57C138.882 302.682 139.226 302.664 139.459 302.526L145.027 299.312C145.26 299.174 145.294 298.976 145.105 298.864L140.192 296.029C140.002 295.917 139.649 295.934 139.416 296.072L133.848 299.286C133.615 299.424 133.581 299.622 133.771 299.734L138.683 302.57ZM129.547 292.84L123.979 296.055C123.746 296.192 123.712 296.391 123.901 296.503L128.814 299.338C129.013 299.45 129.357 299.433 129.59 299.295L135.158 296.08C135.391 295.943 135.425 295.744 135.236 295.632L130.323 292.797C130.133 292.685 129.78 292.702 129.547 292.84ZM147.604 297.821L153.172 294.607C153.405 294.469 153.448 294.271 153.25 294.159L148.337 291.323C148.147 291.211 147.794 291.229 147.561 291.366L141.993 294.581C141.761 294.719 141.726 294.917 141.916 295.029L146.829 297.864C147.018 297.976 147.372 297.959 147.604 297.821ZM155.75 293.125L161.318 289.91C161.55 289.772 161.593 289.574 161.395 289.462L156.482 286.627C156.293 286.515 155.939 286.532 155.706 286.67L150.138 289.884C149.906 290.022 149.863 290.22 150.061 290.332L154.974 293.168C155.163 293.28 155.517 293.262 155.75 293.125ZM163.895 288.428L169.463 285.213C169.696 285.075 169.73 284.877 169.54 284.765L164.627 281.93C164.438 281.818 164.084 281.835 163.852 281.973L158.284 285.188C158.051 285.325 158.016 285.524 158.206 285.636L163.119 288.471C163.317 288.583 163.662 288.566 163.895 288.428ZM137.692 288.143L132.124 291.358C131.892 291.496 131.857 291.694 132.047 291.806L136.96 294.641C137.149 294.753 137.503 294.736 137.735 294.598L143.303 291.384C143.536 291.246 143.571 291.048 143.381 290.936L138.468 288.1C138.27 287.988 137.925 288.006 137.692 288.143ZM145.837 283.447L140.269 286.661C140.037 286.799 139.994 286.997 140.192 287.109L145.105 289.945C145.303 290.057 145.648 290.039 145.881 289.901L151.449 286.687C151.681 286.549 151.716 286.351 151.526 286.239L146.613 283.404C146.424 283.292 146.07 283.309 145.837 283.447ZM178.401 264.651L172.833 267.866C172.6 268.004 172.566 268.202 172.755 268.314L177.668 271.149C177.867 271.261 178.211 271.244 178.444 271.106L184.012 267.892C184.245 267.754 184.279 267.556 184.09 267.444L179.177 264.608C178.987 264.496 178.634 264.514 178.401 264.651ZM170.256 269.348L164.688 272.563C164.455 272.7 164.412 272.899 164.61 273.011L169.523 275.846C169.713 275.958 170.066 275.941 170.299 275.803L175.867 272.588C176.1 272.45 176.143 272.252 175.944 272.14L171.031 269.305C170.842 269.193 170.488 269.21 170.256 269.348ZM186.537 259.946L180.969 263.161C180.737 263.298 180.702 263.497 180.892 263.609L185.805 266.444C185.994 266.556 186.348 266.539 186.581 266.401L192.149 263.186C192.381 263.048 192.416 262.85 192.226 262.738L187.313 259.903C187.124 259.791 186.77 259.808 186.537 259.946ZM153.974 278.741L148.406 281.956C148.173 282.094 148.13 282.292 148.328 282.404L153.241 285.239C153.431 285.351 153.784 285.334 154.017 285.196L159.585 281.982C159.818 281.844 159.852 281.646 159.663 281.534L154.75 278.698C154.56 278.586 154.207 278.604 153.974 278.741ZM162.111 274.045L156.543 277.259C156.31 277.397 156.275 277.595 156.465 277.707L161.378 280.543C161.568 280.655 161.921 280.637 162.154 280.499L167.722 277.285C167.954 277.147 167.998 276.949 167.799 276.837L162.886 274.002C162.697 273.89 162.343 273.907 162.111 274.045ZM151.474 304.509L157.042 301.294C157.275 301.156 157.31 300.958 157.12 300.846L152.207 298.011C152.017 297.899 151.664 297.916 151.431 298.054L145.863 301.268C145.631 301.406 145.596 301.604 145.786 301.716L150.699 304.552C150.897 304.664 151.242 304.646 151.474 304.509ZM108.232 302.302L103.319 299.467C103.129 299.355 102.776 299.372 102.543 299.51L96.975 302.725C96.7423 302.863 96.7078 303.061 96.8974 303.173L101.81 306.008C102.009 306.12 102.353 306.103 102.586 305.965L108.154 302.751C108.387 302.613 108.421 302.414 108.232 302.302ZM118.963 305.034L114.05 302.199C113.86 302.087 113.507 302.104 113.274 302.242L104.706 307.189C104.474 307.327 104.439 307.525 104.629 307.637L109.542 310.472C109.74 310.584 110.085 310.567 110.318 310.429L118.885 305.482C119.118 305.344 119.152 305.146 118.963 305.034ZM101 296.641L96.0872 293.805C95.8976 293.693 95.5442 293.711 95.3115 293.848L88.4592 297.804C88.2264 297.942 88.1833 298.14 88.3816 298.252L93.2946 301.087C93.4842 301.199 93.8376 301.182 94.0703 301.044L100.923 297.089C101.155 296.951 101.19 296.753 101 296.641ZM106.258 293.607C106.448 293.719 106.801 293.702 107.034 293.564L112.602 290.35C112.834 290.212 112.877 290.013 112.679 289.901L107.766 287.066C107.577 286.954 107.223 286.971 106.991 287.109L101.422 290.324C101.181 290.462 101.147 290.66 101.345 290.772L106.258 293.607ZM128.832 308.257L123.919 305.422C123.72 305.31 123.376 305.327 123.143 305.465L112.429 311.644C112.197 311.782 112.162 311.98 112.352 312.092L117.265 314.927C117.463 315.039 117.808 315.022 118.04 314.884L128.754 308.697C128.987 308.559 129.03 308.361 128.832 308.249V308.257ZM132.702 314.945L127.789 312.109C127.599 311.997 127.246 312.015 127.013 312.153L120.161 316.108C119.928 316.246 119.885 316.444 120.083 316.556L124.996 319.391C125.186 319.503 125.539 319.486 125.772 319.348L132.624 315.393C132.857 315.255 132.891 315.057 132.702 314.945ZM166.791 258.671C166.98 258.783 167.334 258.765 167.567 258.628L173.135 255.413C173.367 255.275 173.41 255.077 173.212 254.965L168.299 252.13C168.101 252.018 167.756 252.035 167.515 252.173L161.947 255.387C161.714 255.525 161.671 255.723 161.869 255.835L166.782 258.671H166.791ZM150.509 268.073C150.707 268.185 151.052 268.167 151.285 268.03L156.853 264.815C157.086 264.677 157.12 264.479 156.93 264.367L152.017 261.532C151.828 261.42 151.474 261.437 151.242 261.575L145.674 264.789C145.441 264.927 145.406 265.125 145.596 265.237L150.509 268.073ZM114.403 288.919C114.601 289.031 114.946 289.014 115.179 288.876L120.747 285.662C120.98 285.524 121.023 285.325 120.824 285.213L115.911 282.378C115.722 282.266 115.368 282.283 115.136 282.421L109.568 285.636C109.335 285.774 109.3 285.972 109.49 286.084L114.403 288.919ZM158.654 263.376C158.844 263.488 159.197 263.471 159.43 263.333L164.998 260.118C165.231 259.981 165.265 259.782 165.076 259.67L160.163 256.835C159.964 256.723 159.62 256.74 159.387 256.878L153.819 260.093C153.586 260.23 153.543 260.429 153.741 260.541L158.654 263.376ZM142.373 272.778C142.571 272.89 142.916 272.873 143.148 272.735L148.716 269.52C148.949 269.383 148.983 269.184 148.794 269.072L143.881 266.237C143.683 266.125 143.338 266.142 143.105 266.28L137.537 269.495C137.304 269.632 137.27 269.831 137.46 269.943L142.373 272.778ZM137.235 315.591C137.037 315.479 136.692 315.496 136.46 315.634L127.892 320.581C127.659 320.719 127.625 320.917 127.815 321.029L132.728 323.864C132.926 323.976 133.271 323.959 133.503 323.821L142.071 318.874C142.304 318.736 142.338 318.538 142.148 318.426L137.235 315.591ZM130.685 279.526C130.883 279.638 131.228 279.62 131.461 279.483L137.029 276.268C137.261 276.13 137.296 275.932 137.106 275.82L132.193 272.985C131.995 272.873 131.65 272.89 131.417 273.028L125.849 276.242C125.617 276.38 125.582 276.578 125.772 276.69L130.685 279.526ZM122.54 284.222C122.738 284.334 123.083 284.317 123.315 284.179L128.883 280.965C129.116 280.827 129.151 280.629 128.961 280.517L124.048 277.681C123.85 277.569 123.505 277.587 123.272 277.725L117.704 280.939C117.472 281.077 117.437 281.275 117.627 281.387L122.54 284.222ZM288.064 228.526C287.865 228.414 287.521 228.431 287.288 228.569L273.575 236.48C273.342 236.618 273.299 236.816 273.497 236.928L278.41 239.763C278.6 239.875 278.953 239.858 279.186 239.72L292.899 231.809C293.132 231.671 293.175 231.473 292.977 231.361L288.064 228.526ZM270.067 238.919C269.877 238.807 269.524 238.824 269.291 238.962L263.723 242.176C263.49 242.314 263.456 242.512 263.645 242.624L268.558 245.46C268.756 245.572 269.101 245.554 269.334 245.417L274.902 242.202C275.135 242.064 275.169 241.866 274.98 241.754L270.067 238.919ZM159.62 299.829L165.188 296.615C165.42 296.477 165.455 296.279 165.265 296.167L160.352 293.331C160.154 293.219 159.809 293.237 159.577 293.374L154.008 296.589C153.776 296.727 153.741 296.925 153.931 297.037L158.844 299.872C159.042 299.984 159.387 299.967 159.62 299.829ZM253.785 248.321C253.587 248.209 253.242 248.226 253.009 248.364L247.441 251.578C247.208 251.716 247.174 251.914 247.363 252.026L252.276 254.862C252.475 254.974 252.819 254.956 253.052 254.819L258.62 251.604C258.853 251.466 258.887 251.268 258.698 251.156L253.785 248.321ZM296.209 223.829C296.01 223.717 295.666 223.734 295.433 223.872L289.865 227.087C289.632 227.224 289.598 227.423 289.787 227.535L294.7 230.37C294.899 230.482 295.243 230.465 295.476 230.327L301.044 227.112C301.277 226.975 301.311 226.776 301.122 226.664L296.209 223.829ZM309.267 221.968L296.622 214.668C296.424 214.556 296.079 214.574 295.847 214.711L290.279 217.926C290.046 218.064 290.003 218.262 290.201 218.374L302.846 225.673C303.044 225.785 303.389 225.768 303.621 225.63L309.189 222.416C309.422 222.278 309.456 222.08 309.267 221.968ZM223.368 265.884C223.178 265.772 222.825 265.789 222.592 265.927L215.739 269.882C215.507 270.02 215.472 270.218 215.662 270.331L220.575 273.166C220.773 273.278 221.118 273.261 221.351 273.123L228.203 269.167C228.436 269.029 228.479 268.831 228.28 268.719L223.368 265.884ZM243.933 254.008C243.735 253.896 243.39 253.914 243.157 254.052L234.59 258.998C234.357 259.136 234.323 259.334 234.512 259.446L239.425 262.282C239.615 262.394 239.968 262.376 240.201 262.238L248.768 257.292C249.001 257.154 249.036 256.956 248.846 256.844L243.933 254.008ZM204.509 276.768C204.319 276.656 203.966 276.673 203.733 276.811L157.887 303.276C157.654 303.414 157.611 303.612 157.81 303.724L162.723 306.56C162.912 306.672 163.266 306.654 163.498 306.516L209.344 280.051C209.577 279.913 209.62 279.715 209.422 279.603L204.509 276.768ZM156.086 304.715C155.896 304.603 155.543 304.621 155.31 304.758L148.458 308.714C148.225 308.852 148.19 309.05 148.38 309.162L153.293 311.997C153.491 312.109 153.836 312.092 154.069 311.954L160.921 307.999C161.154 307.861 161.188 307.663 160.999 307.551L156.086 304.715ZM213.929 271.322C213.74 271.21 213.386 271.227 213.154 271.365L206.301 275.32C206.069 275.458 206.026 275.656 206.224 275.768L211.137 278.604C211.326 278.716 211.68 278.698 211.913 278.56L218.765 274.605C218.998 274.467 219.032 274.269 218.842 274.157L213.929 271.322ZM146.656 310.153C146.467 310.041 146.113 310.058 145.881 310.196L139.028 314.152C138.796 314.29 138.761 314.488 138.951 314.6L143.864 317.435C144.062 317.547 144.407 317.53 144.639 317.392L151.492 313.437C151.724 313.299 151.767 313.1 151.569 312.988L146.656 310.153ZM232.78 260.437C232.59 260.325 232.237 260.343 232.004 260.48L225.152 264.436C224.919 264.574 224.885 264.772 225.074 264.884L229.987 267.719C230.177 267.831 230.53 267.814 230.763 267.676L237.615 263.721C237.848 263.583 237.882 263.385 237.693 263.273L232.78 260.437ZM261.921 243.615C261.723 243.503 261.378 243.521 261.146 243.659L255.578 246.873C255.345 247.011 255.31 247.209 255.5 247.321L260.413 250.156C260.603 250.268 260.956 250.251 261.189 250.113L266.757 246.899C266.989 246.761 267.024 246.563 266.834 246.451L261.921 243.615ZM279.599 230.568L285.167 227.354C285.4 227.216 285.443 227.018 285.245 226.906L280.332 224.07C280.142 223.958 279.789 223.976 279.556 224.113L273.988 227.328C273.756 227.466 273.721 227.664 273.911 227.776L278.824 230.611C279.013 230.723 279.367 230.706 279.599 230.568ZM246.148 232.033L251.716 228.819C251.949 228.681 251.983 228.483 251.794 228.371L246.881 225.535C246.691 225.423 246.338 225.441 246.105 225.578L240.537 228.793C240.296 228.931 240.27 229.129 240.459 229.241L245.372 232.076C245.571 232.188 245.915 232.171 246.148 232.033ZM224.755 262.23L241.037 252.828C241.27 252.69 241.304 252.492 241.115 252.38L236.202 249.544C236.012 249.432 235.659 249.45 235.426 249.588L219.144 258.99C218.911 259.127 218.877 259.326 219.067 259.438L223.979 262.273C224.178 262.385 224.523 262.368 224.755 262.23ZM270.679 235.317C270.868 235.429 271.222 235.411 271.454 235.273L277.022 232.059C277.255 231.921 277.298 231.723 277.1 231.611L272.187 228.776C271.997 228.664 271.644 228.681 271.411 228.819L265.843 232.033C265.61 232.171 265.576 232.369 265.766 232.481L270.679 235.317ZM263.731 230.809L269.299 227.595C269.532 227.457 269.567 227.259 269.377 227.147L264.464 224.312C264.274 224.2 263.921 224.217 263.688 224.355L258.12 227.569C257.888 227.707 257.844 227.905 258.043 228.017L262.956 230.853C263.145 230.965 263.499 230.947 263.731 230.809ZM216.61 266.935L222.178 263.721C222.411 263.583 222.445 263.385 222.256 263.273L217.343 260.437C217.153 260.325 216.8 260.343 216.567 260.48L210.999 263.695C210.766 263.833 210.732 264.031 210.921 264.143L215.834 266.978C216.033 267.09 216.377 267.073 216.61 266.935ZM252.682 245.71C252.88 245.822 253.225 245.804 253.457 245.666L259.025 242.452C259.258 242.314 259.292 242.116 259.103 242.004L254.19 239.169C253.992 239.057 253.647 239.074 253.414 239.212L247.846 242.426C247.613 242.564 247.579 242.762 247.769 242.874L252.682 245.71ZM175.901 290.436L181.469 287.221C181.702 287.083 181.737 286.885 181.547 286.773L176.634 283.938C176.444 283.826 176.091 283.843 175.858 283.981L170.29 287.195C170.058 287.333 170.023 287.532 170.213 287.644L175.126 290.479C175.315 290.591 175.669 290.574 175.901 290.436ZM184.047 285.739L189.615 282.525C189.847 282.387 189.882 282.189 189.692 282.077L184.779 279.241C184.59 279.129 184.236 279.146 184.003 279.284L178.435 282.499C178.203 282.637 178.168 282.835 178.358 282.947L183.271 285.782C183.469 285.894 183.814 285.877 184.047 285.739ZM167.765 295.141L173.333 291.927C173.566 291.789 173.6 291.591 173.41 291.479L168.497 288.643C168.299 288.531 167.954 288.548 167.722 288.686L162.154 291.901C161.921 292.039 161.886 292.237 162.076 292.349L166.989 295.184C167.187 295.296 167.532 295.279 167.765 295.141ZM200.328 276.346L205.896 273.131C206.129 272.993 206.172 272.795 205.974 272.683L201.061 269.848C200.871 269.736 200.518 269.753 200.285 269.891L194.717 273.105C194.484 273.243 194.45 273.442 194.64 273.554L199.553 276.389C199.751 276.501 200.096 276.484 200.328 276.346ZM192.183 281.042L197.751 277.828C197.984 277.69 198.027 277.492 197.829 277.38L192.916 274.545C192.726 274.433 192.373 274.45 192.14 274.588L186.572 277.802C186.339 277.94 186.305 278.138 186.494 278.25L191.407 281.085C191.597 281.198 191.95 281.18 192.183 281.042ZM208.465 271.64L214.033 268.426C214.266 268.288 214.3 268.09 214.11 267.978L209.197 265.143C209.008 265.031 208.654 265.048 208.422 265.186L202.854 268.4C202.621 268.538 202.587 268.736 202.776 268.848L207.689 271.684C207.887 271.796 208.232 271.778 208.465 271.64ZM253.449 206.585C253.647 206.697 253.992 206.68 254.224 206.542L259.792 203.327C260.025 203.19 260.06 202.991 259.87 202.879L258.56 202.121C258.37 202.009 258.017 202.026 257.784 202.164L252.216 205.378C251.983 205.516 251.949 205.715 252.139 205.827L253.449 206.585ZM212.835 232.111C213.024 232.223 213.378 232.206 213.611 232.068L219.179 228.853C219.411 228.715 219.446 228.517 219.256 228.405L214.343 225.57C214.154 225.458 213.8 225.475 213.567 225.613L207.999 228.827C207.767 228.965 207.724 229.163 207.922 229.275L212.835 232.111ZM229.117 222.709C229.306 222.821 229.66 222.804 229.892 222.666L235.46 219.451C235.702 219.313 235.727 219.115 235.538 219.003L230.625 216.168C230.435 216.056 230.082 216.073 229.849 216.211L224.281 219.425C224.048 219.563 224.014 219.761 224.204 219.874L229.117 222.709ZM202.888 237.85C203.086 237.962 203.431 237.945 203.664 237.807L209.232 234.593C209.465 234.455 209.499 234.257 209.31 234.145L204.397 231.309C204.207 231.197 203.854 231.214 203.621 231.352L198.053 234.567C197.82 234.705 197.786 234.903 197.975 235.015L202.888 237.85ZM220.971 227.414C221.161 227.526 221.514 227.509 221.747 227.371L227.315 224.157C227.548 224.019 227.582 223.82 227.393 223.708L222.48 220.873C222.29 220.761 221.937 220.778 221.704 220.916L216.136 224.131C215.903 224.269 215.86 224.467 216.058 224.579L220.971 227.414ZM186.606 247.252C186.805 247.364 187.149 247.347 187.382 247.209L192.95 243.995C193.183 243.857 193.217 243.659 193.028 243.546L188.115 240.711C187.917 240.599 187.572 240.616 187.339 240.754L181.771 243.969C181.538 244.107 181.504 244.305 181.693 244.417L186.606 247.252ZM194.752 242.555C194.95 242.667 195.295 242.65 195.527 242.512L201.095 239.298C201.328 239.16 201.363 238.962 201.173 238.85L196.26 236.015C196.062 235.903 195.717 235.92 195.484 236.058L189.916 239.272C189.684 239.41 189.649 239.608 189.839 239.72L194.752 242.555ZM237.167 215.987C237.357 216.099 237.71 216.082 237.943 215.944L243.511 212.729C243.743 212.592 243.778 212.393 243.588 212.281L242.278 211.523C242.089 211.411 241.735 211.428 241.502 211.566L235.934 214.78C235.702 214.918 235.659 215.117 235.857 215.229L237.167 215.987ZM261.594 201.888C261.792 202 262.137 201.983 262.37 201.845L267.938 198.631C268.17 198.493 268.205 198.295 268.015 198.183L266.705 197.424C266.507 197.312 266.162 197.329 265.929 197.467L260.361 200.682C260.129 200.82 260.094 201.018 260.284 201.13L261.594 201.888ZM271.92 207.843C272.118 207.955 272.463 207.938 272.695 207.8L278.263 204.586C278.496 204.448 278.531 204.25 278.341 204.137L273.428 201.302C273.238 201.19 272.885 201.207 272.652 201.345L267.084 204.56C266.852 204.698 266.817 204.896 267.007 205.008L271.92 207.843ZM287.745 225.88L293.313 222.666C293.545 222.528 293.588 222.33 293.39 222.218L288.477 219.382C288.288 219.27 287.934 219.288 287.702 219.425L282.133 222.64C281.901 222.778 281.866 222.976 282.056 223.088L286.969 225.923C287.159 226.035 287.512 226.018 287.745 225.88ZM245.321 211.282C245.51 211.394 245.864 211.376 246.096 211.239L251.664 208.024C251.897 207.886 251.932 207.688 251.742 207.576L250.432 206.818C250.234 206.706 249.889 206.723 249.656 206.861L244.088 210.075C243.855 210.213 243.821 210.411 244.011 210.523L245.321 211.282ZM178.479 251.949C178.668 252.061 179.022 252.044 179.254 251.906L184.822 248.691C185.055 248.553 185.098 248.355 184.9 248.243L179.987 245.408C179.797 245.296 179.444 245.313 179.211 245.451L173.643 248.665C173.41 248.803 173.376 249.002 173.566 249.114L178.479 251.949Z" fill="#CCC5B9"/>
<path d="M203.397 293.986L204.543 294.65L234.883 312.153L288.831 281.017L289.951 280.37L258.474 262.204L203.397 293.986Z" fill="#353535"/>
<path d="M288.331 281.301L258.474 264.083L205.043 294.934L234.883 312.153L288.331 281.301Z" fill="#CCC5B9"/>
<path d="M322.411 41.4599C322.411 39.1935 321.618 37.5906 320.334 36.8322C319.032 36.0652 311.516 31.7305 310.206 30.9894C308.913 30.2482 307.129 30.3603 305.155 31.4978L164.438 112.729V159.291L174.522 165.108L315.24 83.8766C319.196 81.5929 322.403 76.0344 322.403 71.467V41.4513L322.411 41.4599Z" fill="#EB5E28"/>
<path opacity="0.15" d="M322.411 41.4599C322.411 39.1935 321.618 37.5906 320.334 36.8322C319.032 36.0652 311.516 31.7305 310.206 30.9894C308.913 30.2482 307.129 30.3603 305.155 31.4978L164.438 112.729V159.291L174.522 165.108L315.24 83.8766C319.196 81.5929 322.403 76.0344 322.403 71.467V41.4513L322.411 41.4599Z" fill="black"/>
<path d="M315.24 37.3233C319.196 35.0396 322.403 36.8924 322.403 41.4598V71.4755C322.403 76.0429 319.196 81.6014 315.24 83.8851L174.522 165.116V118.554L315.24 37.3233Z" fill="#EB5E28"/>
<path d="M313.801 80.0503C316.455 78.5163 318.627 74.7503 318.627 71.6824V43.9505C318.627 41.7615 317.076 40.8739 315.188 41.9598L177.367 121.579V158.86L313.801 80.0416V80.0503Z" fill="#FAFAFA"/>
<path d="M201.38 135.868C201.38 136.083 201.328 136.298 201.225 136.505C201.121 136.721 201.001 136.867 200.863 136.945L198.484 138.315C198.346 138.393 198.225 138.384 198.122 138.289C198.018 138.194 197.975 138.039 197.975 137.824V130.464C197.975 129.628 197.846 129.034 197.579 128.689C197.311 128.336 196.898 128.327 196.329 128.655C195.76 128.982 195.346 129.473 195.088 130.128C194.829 130.783 194.7 131.524 194.7 132.36V139.72C194.7 139.935 194.648 140.151 194.545 140.357C194.441 140.573 194.329 140.719 194.183 140.797L191.804 142.167C191.666 142.245 191.545 142.236 191.442 142.141C191.338 142.047 191.287 141.891 191.287 141.676V122.596C191.287 122.381 191.338 122.165 191.442 121.959C191.545 121.743 191.657 121.597 191.804 121.519L194.183 120.149C194.321 120.071 194.441 120.08 194.545 120.175C194.648 120.269 194.7 120.425 194.7 120.64V126.836C194.915 126.302 195.251 125.724 195.7 125.078C196.157 124.44 196.674 123.949 197.268 123.605C197.872 123.26 198.423 123.07 198.932 123.036C199.432 123.01 199.863 123.156 200.225 123.492C200.587 123.829 200.863 124.354 201.061 125.07C201.259 125.785 201.363 126.716 201.363 127.862V135.859L201.38 135.868Z" fill="#545454"/>
<path d="M207.922 126.974C207.922 127.422 207.982 127.732 208.111 127.896C208.241 128.068 208.448 128.068 208.732 127.896L210.24 127.026C210.378 126.948 210.499 126.957 210.602 127.052C210.706 127.146 210.749 127.301 210.749 127.517V130.456C210.749 130.671 210.697 130.886 210.602 131.093C210.499 131.309 210.378 131.455 210.24 131.533L208.448 132.567C207.853 132.912 207.318 133.093 206.827 133.11C206.336 133.127 205.931 132.989 205.586 132.688C205.25 132.386 204.983 131.938 204.793 131.343C204.603 130.749 204.509 129.999 204.509 129.111V124.225L203.112 125.035C202.974 125.113 202.854 125.104 202.75 125.009C202.647 124.914 202.604 124.759 202.604 124.544V121.605C202.604 121.39 202.655 121.174 202.75 120.967C202.854 120.752 202.974 120.605 203.112 120.528L204.509 119.718V114.978C204.509 114.763 204.56 114.547 204.655 114.34C204.759 114.125 204.879 113.978 205.017 113.901L207.396 112.531C207.534 112.453 207.655 112.462 207.758 112.556C207.861 112.651 207.905 112.806 207.905 113.022V117.762L210.042 116.529C210.18 116.452 210.301 116.46 210.404 116.555C210.508 116.65 210.551 116.805 210.551 117.02V119.959C210.551 120.175 210.499 120.39 210.404 120.597C210.301 120.812 210.18 120.959 210.042 121.036L207.905 122.269V126.983L207.922 126.974Z" fill="#545454"/>
<path d="M216.877 121.803C216.877 122.252 216.937 122.562 217.067 122.726C217.196 122.898 217.403 122.898 217.687 122.726L219.196 121.855C219.334 121.778 219.454 121.786 219.558 121.881C219.661 121.976 219.704 122.131 219.704 122.346V125.285C219.704 125.5 219.653 125.716 219.558 125.923C219.454 126.138 219.334 126.285 219.196 126.362L217.403 127.396C216.808 127.741 216.274 127.922 215.783 127.939C215.3 127.957 214.886 127.819 214.541 127.517C214.205 127.215 213.938 126.767 213.748 126.173C213.559 125.569 213.464 124.828 213.464 123.932V119.046L212.068 119.856C211.93 119.933 211.809 119.925 211.706 119.83C211.602 119.735 211.559 119.58 211.559 119.365V116.426C211.559 116.21 211.611 116.004 211.706 115.788C211.809 115.573 211.93 115.426 212.068 115.349L213.464 114.539V109.799C213.464 109.583 213.516 109.377 213.61 109.161C213.714 108.946 213.835 108.799 213.972 108.722L216.351 107.351C216.489 107.274 216.61 107.282 216.713 107.377C216.817 107.472 216.86 107.627 216.86 107.843V112.582L218.997 111.35C219.135 111.273 219.256 111.281 219.359 111.376C219.463 111.471 219.506 111.626 219.506 111.841V114.78C219.506 114.995 219.454 115.211 219.359 115.418C219.256 115.633 219.135 115.78 218.997 115.857L216.86 117.089V121.803H216.877Z" fill="#545454"/>
<path d="M227.255 122.01C226.893 122.226 226.565 122.346 226.289 122.389C226.014 122.433 225.772 122.424 225.574 122.364C225.376 122.303 225.203 122.217 225.066 122.088C224.928 121.967 224.816 121.838 224.729 121.717V127.913C224.729 128.129 224.678 128.344 224.574 128.551C224.471 128.767 224.35 128.913 224.212 128.991L221.833 130.369C221.695 130.447 221.575 130.438 221.471 130.344C221.368 130.249 221.316 130.094 221.316 129.878V110.799C221.316 110.583 221.368 110.376 221.471 110.161C221.575 109.945 221.695 109.799 221.833 109.721L224.117 108.403C224.255 108.325 224.376 108.334 224.479 108.429C224.583 108.523 224.626 108.679 224.626 108.894V109.566C224.738 109.308 224.859 109.032 224.997 108.748C225.126 108.455 225.29 108.17 225.488 107.894C225.686 107.619 225.919 107.343 226.203 107.076C226.488 106.809 226.841 106.55 227.255 106.309C227.824 105.981 228.358 105.8 228.858 105.774C229.358 105.749 229.806 105.895 230.177 106.231C230.556 106.567 230.858 107.084 231.09 107.782C231.323 108.48 231.452 109.394 231.478 110.523C231.487 110.807 231.495 111.195 231.495 111.686C231.495 112.177 231.495 112.574 231.478 112.875C231.452 114.03 231.323 115.099 231.09 116.064C230.858 117.029 230.556 117.9 230.177 118.675C229.797 119.442 229.358 120.114 228.858 120.674C228.349 121.235 227.815 121.683 227.255 122.01ZM228.108 114.478C228.143 113.918 228.143 113.367 228.108 112.85C228.074 112.195 227.927 111.686 227.677 111.324C227.427 110.962 227.005 110.954 226.41 111.298C226.134 111.462 225.893 111.669 225.695 111.919C225.497 112.169 225.324 112.445 225.195 112.746C225.066 113.048 224.962 113.349 224.885 113.668C224.807 113.987 224.755 114.289 224.738 114.599C224.712 114.901 224.704 115.254 224.704 115.642C224.704 116.03 224.712 116.357 224.738 116.641C224.764 116.917 224.816 117.167 224.885 117.4C224.962 117.624 225.066 117.813 225.195 117.96C225.324 118.106 225.497 118.193 225.695 118.21C225.893 118.227 226.134 118.158 226.41 118.003C227.005 117.658 227.427 117.167 227.677 116.521C227.927 115.874 228.074 115.194 228.108 114.496V114.478Z" fill="#545454"/>
<path d="M236.736 105.283C236.736 105.498 236.684 105.714 236.589 105.921C236.486 106.136 236.365 106.283 236.227 106.36L233.754 107.791C233.616 107.868 233.495 107.86 233.392 107.765C233.288 107.67 233.245 107.515 233.245 107.3V103.491C233.245 103.275 233.297 103.068 233.392 102.853C233.495 102.637 233.607 102.491 233.754 102.413L236.227 100.983C236.365 100.905 236.486 100.914 236.589 101.009C236.693 101.103 236.736 101.259 236.736 101.474V105.283ZM236.736 115.461C236.736 115.676 236.684 115.883 236.589 116.098C236.486 116.314 236.365 116.46 236.227 116.538L233.754 117.968C233.616 118.046 233.495 118.037 233.392 117.943C233.288 117.848 233.245 117.693 233.245 117.477V113.668C233.245 113.453 233.297 113.237 233.392 113.03C233.495 112.815 233.607 112.668 233.754 112.591L236.227 111.16C236.365 111.083 236.486 111.091 236.589 111.186C236.693 111.281 236.736 111.436 236.736 111.652V115.461Z" fill="#545454"/>
<path d="M244.597 89.7195C244.657 89.4696 244.752 89.2197 244.881 88.9612C245.01 88.7026 245.191 88.5044 245.433 88.3665L247.777 87.0135C247.889 86.9446 247.984 86.9532 248.07 87.0308C248.148 87.1083 248.191 87.2376 248.191 87.41C248.191 87.4875 248.182 87.5823 248.156 87.6943L241.787 114.901C241.735 115.125 241.649 115.366 241.52 115.633C241.39 115.9 241.201 116.107 240.951 116.254L238.649 117.581C238.537 117.65 238.434 117.641 238.356 117.564C238.27 117.486 238.236 117.357 238.236 117.184C238.236 117.107 238.244 117.012 238.27 116.9L244.597 89.7109V89.7195Z" fill="#545454"/>
<path d="M251.078 85.9707C251.139 85.7208 251.234 85.4709 251.363 85.2124C251.492 84.9538 251.673 84.7556 251.914 84.6178L254.259 83.2648C254.371 83.1958 254.466 83.2044 254.552 83.282C254.629 83.3596 254.673 83.4888 254.673 83.6612C254.673 83.7387 254.664 83.8335 254.638 83.9456L248.268 111.152C248.217 111.376 248.131 111.617 248.001 111.884C247.872 112.152 247.682 112.358 247.432 112.505L245.122 113.832C245.01 113.901 244.916 113.892 244.829 113.815C244.743 113.737 244.709 113.608 244.709 113.436C244.709 113.358 244.717 113.263 244.743 113.151L251.07 85.9621L251.078 85.9707Z" fill="#545454"/>
<path d="M263.568 85.626C263.757 85.5139 263.904 85.5139 263.999 85.6087C264.102 85.7035 264.171 85.8242 264.205 85.9534L265.602 91.7532L266.998 84.3419C267.033 84.161 267.102 83.9714 267.205 83.7559C267.308 83.5405 267.446 83.3767 267.636 83.2733L269.98 81.9203C270.11 81.8514 270.213 81.8514 270.299 81.9376C270.385 82.0238 270.429 82.1616 270.429 82.3598C270.429 82.4374 270.429 82.515 270.411 82.6011L267.403 97.8029C267.369 98.0011 267.3 98.1993 267.205 98.4147C267.11 98.6216 266.972 98.7853 266.783 98.8973L264.628 100.138C264.438 100.25 264.3 100.25 264.214 100.138C264.128 100.035 264.059 99.9056 264.007 99.7677L262.663 94.4333L261.318 101.319C261.266 101.526 261.197 101.724 261.111 101.931C261.025 102.138 260.887 102.293 260.697 102.405L258.543 103.646C258.353 103.758 258.215 103.758 258.12 103.654C258.026 103.551 257.957 103.43 257.922 103.275L254.914 91.5378C254.905 91.4688 254.897 91.3913 254.897 91.3137C254.897 91.1241 254.94 90.9259 255.026 90.7449C255.112 90.5553 255.224 90.4261 255.345 90.3571L257.689 89.0041C257.879 88.8921 258.026 88.8921 258.12 88.9869C258.224 89.0817 258.293 89.2023 258.327 89.3316L259.723 95.1314L261.12 87.7201C261.154 87.5477 261.223 87.3495 261.327 87.1341C261.43 86.9186 261.577 86.7549 261.758 86.6515L263.533 85.626H263.568Z" fill="#545454"/>
<path d="M279.936 76.181C280.125 76.069 280.272 76.0689 280.367 76.1637C280.461 76.2585 280.539 76.3792 280.573 76.5085L281.97 82.2996L283.366 74.8883C283.401 74.716 283.469 74.5178 283.573 74.3023C283.676 74.0869 283.823 73.9231 284.004 73.8197L286.348 72.4667C286.478 72.3978 286.581 72.3978 286.667 72.484C286.753 72.5701 286.797 72.708 286.797 72.9062C286.797 72.9838 286.797 73.0613 286.779 73.1475L283.771 88.3493C283.737 88.5475 283.668 88.7457 283.573 88.9611C283.478 89.168 283.34 89.3317 283.151 89.4437L280.996 90.6847C280.806 90.7967 280.668 90.7967 280.582 90.6847C280.496 90.5813 280.427 90.452 280.375 90.3141L279.031 84.9797L277.686 91.8653C277.634 92.0721 277.565 92.2703 277.479 92.4772C277.393 92.684 277.255 92.8391 277.065 92.9511L274.911 94.1921C274.721 94.3041 274.583 94.3041 274.488 94.2007C274.393 94.0973 274.324 93.9767 274.29 93.8215L271.282 82.0841C271.273 82.0152 271.265 81.9376 271.265 81.8601C271.265 81.6705 271.308 81.4723 271.394 81.2913C271.48 81.1017 271.592 80.9725 271.713 80.9035L274.057 79.5505C274.247 79.4385 274.393 79.4385 274.488 79.5333C274.583 79.6281 274.661 79.7487 274.695 79.878L276.091 85.6691L277.488 78.2579C277.522 78.0769 277.591 77.8873 277.695 77.6719C277.798 77.4564 277.936 77.2927 278.126 77.1893L279.901 76.1637L279.936 76.181Z" fill="#545454"/>
<path d="M296.295 66.7359C296.484 66.6238 296.631 66.6238 296.726 66.7186C296.829 66.8134 296.898 66.9341 296.933 67.0633L298.329 72.8631L299.725 65.4518C299.76 65.2794 299.829 65.0812 299.932 64.8658C300.035 64.6504 300.173 64.4952 300.363 64.3832L302.707 63.0302C302.837 62.9527 302.94 62.9613 303.026 63.0475C303.113 63.1336 303.156 63.2715 303.156 63.4697C303.156 63.5473 303.156 63.6248 303.138 63.711L300.13 78.9128C300.096 79.111 300.027 79.3092 299.932 79.5246C299.837 79.7314 299.699 79.8952 299.51 79.9986L297.355 81.2395C297.165 81.3516 297.027 81.3516 296.941 81.2395C296.855 81.1361 296.786 81.0069 296.734 80.869L295.39 75.5346L294.045 82.4202C293.993 82.627 293.924 82.8252 293.838 83.032C293.752 83.2389 293.614 83.394 293.425 83.506L291.27 84.747C291.08 84.859 290.942 84.859 290.847 84.7556C290.753 84.6522 290.684 84.5315 290.649 84.3764L287.641 72.639C287.632 72.5701 287.624 72.4925 287.624 72.415C287.624 72.2254 287.667 72.0272 287.753 71.8462C287.839 71.6566 287.951 71.5273 288.072 71.4584L290.416 70.1054C290.606 69.9934 290.753 69.9934 290.847 70.0882C290.951 70.183 291.02 70.3036 291.054 70.4329L292.451 76.2326L293.847 68.8214C293.881 68.6404 293.95 68.4508 294.054 68.2353C294.157 68.0199 294.304 67.8648 294.485 67.7528L296.26 66.7272L296.295 66.7359Z" fill="#545454"/>
<path d="M307.353 74.6986C307.353 74.914 307.302 75.1294 307.198 75.3363C307.095 75.5517 306.974 75.6982 306.836 75.7758L304.363 77.2063C304.225 77.2839 304.104 77.2753 304.001 77.1805C303.897 77.0857 303.854 76.9306 303.854 76.7151V72.9061C303.854 72.6906 303.906 72.4752 304.001 72.2684C304.104 72.0529 304.225 71.9064 304.363 71.8288L306.836 70.3983C306.974 70.3207 307.095 70.3294 307.198 70.4242C307.302 70.5189 307.353 70.6741 307.353 70.8895V74.6986Z" fill="#545454"/>
<path d="M168.316 104.999L168.248 104.956L151 94.7176C151 94.7176 150.992 94.7176 150.983 94.709L150.888 94.6487C143.295 90.0726 133.159 90.7965 122.255 97.9148C100.354 112.212 83.6669 146.881 84.9857 175.363C85.6407 189.556 90.6485 199.527 98.2076 204.198L98.2765 204.241L115.524 214.479L115.601 214.53C123.195 219.115 133.34 218.4 144.252 211.281C166.153 196.985 182.84 162.315 181.521 133.834C180.866 119.64 175.858 109.669 168.299 105.007L168.316 104.999Z" fill="#3D3D3D"/>
<path d="M114.989 214.117L98.3024 204.232H98.2938L98.2248 204.18C90.6658 199.501 85.658 189.53 85.0029 175.363C84.4168 162.66 87.4163 148.742 92.8464 135.945L92.9585 135.661L110.102 146.174C104.663 158.963 101.673 172.889 102.259 185.592C102.896 199.484 107.706 209.325 115.006 214.117H114.989Z" fill="#252422"/>
<path d="M144.277 211.273C166.179 196.976 182.857 162.307 181.547 133.825C180.237 105.352 161.413 93.8559 139.52 108.153C117.618 122.45 100.931 157.119 102.25 185.601C103.569 214.074 122.385 225.57 144.277 211.273Z" fill="#545454"/>
<path d="M131.917 203.75C128.987 203.75 126.229 203.043 123.755 201.612C116.86 197.648 112.903 188.548 112.903 176.655C112.903 154.775 126.203 129.24 142.554 119.735C149.992 115.409 157.249 114.857 163.007 118.167C169.902 122.131 173.859 131.231 173.859 143.124C173.859 165.004 160.559 190.539 144.208 200.044C139.976 202.509 135.796 203.75 131.917 203.75ZM154.836 119.339C151.535 119.339 147.915 120.425 144.208 122.588C128.763 131.567 116.196 155.826 116.196 176.664C116.196 187.341 119.549 195.399 125.393 198.76C130.081 201.457 136.175 200.906 142.545 197.2C157.991 188.212 170.557 163.961 170.557 143.124C170.557 132.446 167.205 124.389 161.361 121.028C159.404 119.899 157.198 119.339 154.836 119.339Z" fill="#EB5E28"/>
<path d="M131.917 149.044C128.289 149.044 124.953 147.915 122.074 145.657L123.6 143.71C128.633 147.657 135.443 147.484 142.769 143.227C150.354 138.815 157.482 130.636 162.843 120.209L165.041 121.338C159.473 132.179 152 140.711 144.01 145.364C139.795 147.812 135.701 149.044 131.917 149.044Z" fill="#EB5E28"/>
<path d="M123.927 199.57L121.729 198.441C127.298 187.6 134.77 179.068 142.76 174.423C151.018 169.623 158.809 169.52 164.696 174.13L163.171 176.078C158.129 172.131 151.328 172.303 144.002 176.561C136.417 180.973 129.289 189.143 123.927 199.57Z" fill="#EB5E28"/>
<path d="M140.192 200.802C139.045 200.802 137.925 200.492 136.856 199.88C131.047 196.537 127.435 184.497 127.435 168.451C127.435 146.338 134.167 125.095 142.769 120.097C145.2 118.684 147.673 118.615 149.923 119.907C155.732 123.251 159.344 135.29 159.344 151.336C159.344 173.45 152.612 194.692 144.01 199.691C142.734 200.432 141.45 200.802 140.192 200.802ZM146.57 121.459C145.751 121.459 144.898 121.717 144.01 122.234C136.365 126.681 129.909 147.846 129.909 168.451C129.909 185.428 134.02 195.39 138.089 197.734C139.563 198.588 141.097 198.527 142.769 197.553C150.414 193.107 156.87 171.941 156.87 151.336C156.87 134.359 152.759 124.397 148.69 122.053C148.001 121.657 147.303 121.459 146.579 121.459H146.57Z" fill="#EB5E28"/>
<path d="M144.622 121.166H142.148V198.622H144.622V121.166Z" fill="#EB5E28"/>
<path d="M171.592 142.036L113.934 175.588L115.178 177.725L172.836 144.173L171.592 142.036Z" fill="#EB5E28"/>
<path d="M345.14 105.283C344.856 104.689 344.494 104.309 344.115 104.085L341.546 102.603C340.426 101.965 339.064 102.603 338.34 103.043L336.736 102.12C334.789 100.948 332.082 103.405 331.479 103.991L330.789 103.594C329.876 103.043 328.626 103.396 327.523 103.947V94.6058C327.523 93.5803 327.169 92.8564 326.6 92.5031L326.574 92.4858C326.557 92.4858 326.549 92.4686 326.531 92.46L324.006 91.0036H323.989V90.9949C323.394 90.6675 322.575 90.7192 321.679 91.2362C319.86 92.2876 318.378 94.8471 318.378 96.9498V125.552C318.248 125.492 318.119 125.432 317.981 125.371C315.731 123.786 313.361 122.838 311.275 123.208C309.284 123.561 307.5 125.259 306.983 126.173C305.888 128.094 307.69 129.301 310.008 131.955C312.31 134.584 314.335 137.746 316.421 139.694C318.515 141.642 320.032 142.15 320.032 142.15V145.89L322.575 147.364L341.951 136.178V132.438C341.951 132.438 344.356 122.855 345.123 118.848C345.89 114.84 346.597 108.36 345.123 105.283H345.14Z" fill="#EB5E28"/>
<path opacity="0.8" d="M345.14 105.283C344.856 104.689 344.494 104.309 344.115 104.085L341.546 102.603C340.426 101.965 339.064 102.603 338.34 103.043L336.736 102.12C334.789 100.948 332.082 103.405 331.479 103.991L330.789 103.594C329.876 103.043 328.626 103.396 327.523 103.947V94.6058C327.523 93.5803 327.169 92.8564 326.6 92.5031L326.574 92.4858C326.557 92.4858 326.549 92.4686 326.531 92.46L324.006 91.0036H323.989V90.9949C323.394 90.6675 322.575 90.7192 321.679 91.2362C319.86 92.2876 318.378 94.8471 318.378 96.9498V125.552C318.248 125.492 318.119 125.432 317.981 125.371C315.731 123.786 313.361 122.838 311.275 123.208C309.284 123.561 307.5 125.259 306.983 126.173C305.888 128.094 307.69 129.301 310.008 131.955C312.31 134.584 314.335 137.746 316.421 139.694C318.515 141.642 320.032 142.15 320.032 142.15V145.89L322.575 147.364L341.951 136.178V132.438C341.951 132.438 344.356 122.855 345.123 118.848C345.89 114.84 346.597 108.36 345.123 105.283H345.14Z" fill="white"/>
<path opacity="0.2" d="M327.531 103.973V107.145C327.635 107.05 328.729 106.102 330.022 105.438L327.531 103.982V103.973ZM339.236 102.595C338.891 102.732 338.59 102.888 338.348 103.034L339.167 103.517C339.624 103.749 340.038 104.18 340.383 104.852C340.383 104.852 341.012 104.344 341.848 104.034L339.228 102.595H339.236ZM333.203 102.62C332.392 103.129 331.746 103.723 331.479 103.982L333.16 104.956C333.16 104.956 333.229 104.982 333.254 105.008C333.496 105.128 333.711 105.318 333.901 105.576C333.978 105.49 334.702 104.749 335.685 104.12L333.194 102.62H333.203ZM318.386 96.9327V125.535C319.24 125.949 320.093 126.483 320.938 127.103V98.3977L318.386 96.9241V96.9327ZM318.99 141.142C316.895 139.194 314.87 136.031 312.577 133.403C310.405 130.913 308.672 129.697 309.388 127.965L306.836 126.492C306.13 128.224 307.845 129.439 310.026 131.938C312.327 134.558 314.344 137.721 316.438 139.677C318.533 141.624 320.05 142.133 320.05 142.133V145.873L322.601 147.347V143.606C322.601 143.606 321.084 143.098 318.99 141.142Z" fill="#EB5E28"/>
<path opacity="0.1" d="M327.531 103.973V107.145C327.635 107.05 328.729 106.102 330.022 105.438L327.531 103.982V103.973ZM339.236 102.595C338.891 102.732 338.59 102.888 338.348 103.034L339.167 103.517C339.624 103.749 340.038 104.18 340.383 104.852C340.383 104.852 341.012 104.344 341.848 104.034L339.228 102.595H339.236ZM333.203 102.62C332.392 103.129 331.746 103.723 331.479 103.982L333.16 104.956C333.16 104.956 333.229 104.982 333.254 105.008C333.496 105.128 333.711 105.318 333.901 105.576C333.978 105.49 334.702 104.749 335.685 104.12L333.194 102.62H333.203ZM318.386 96.9327V125.535C319.24 125.949 320.093 126.483 320.938 127.103V98.3977L318.386 96.9241V96.9327ZM318.99 141.142C316.895 139.194 314.87 136.031 312.577 133.403C310.405 130.913 308.672 129.697 309.388 127.965L306.836 126.492C306.13 128.224 307.845 129.439 310.026 131.938C312.327 134.558 314.344 137.721 316.438 139.677C318.533 141.624 320.05 142.133 320.05 142.133V145.873L322.601 147.347V143.606C322.601 143.606 321.084 143.098 318.99 141.142Z" fill="black"/>
<path d="M322.592 147.364V143.624C322.592 143.624 321.075 143.115 318.981 141.168C316.886 139.22 314.861 136.049 312.568 133.429C310.249 130.775 308.448 129.568 309.543 127.646C310.06 126.733 311.844 125.035 313.835 124.682C316.05 124.285 318.567 125.371 320.937 127.129V98.4235C320.937 96.3208 322.411 93.7613 324.238 92.7099C326.057 91.6586 327.54 92.5117 327.54 94.6144V107.153C327.54 107.153 332.082 103.12 333.918 105.593C333.918 105.593 338.383 100.914 340.4 104.87C340.4 104.87 343.675 102.224 345.157 105.292C346.631 108.36 345.925 114.849 345.157 118.856C344.39 122.863 341.986 132.446 341.986 132.446V136.187L322.609 147.372L322.592 147.364Z" fill="#EB5E28"/>
<path opacity="0.65" d="M322.592 147.364V143.624C322.592 143.624 321.075 143.115 318.981 141.168C316.886 139.22 314.861 136.049 312.568 133.429C310.249 130.775 308.448 129.568 309.543 127.646C310.06 126.733 311.844 125.035 313.835 124.682C316.05 124.285 318.567 125.371 320.937 127.129V98.4235C320.937 96.3208 322.411 93.7613 324.238 92.7099C326.057 91.6586 327.54 92.5117 327.54 94.6144V107.153C327.54 107.153 332.082 103.12 333.918 105.593C333.918 105.593 338.383 100.914 340.4 104.87C340.4 104.87 343.675 102.224 345.157 105.292C346.631 108.36 345.925 114.849 345.157 118.856C344.39 122.863 341.986 132.446 341.986 132.446V136.187L322.609 147.372L322.592 147.364Z" fill="white"/>
<g opacity="0.1">
<path d="M327.522 112.522C327.522 112.522 327.936 106.8 330.039 105.438C330.039 105.438 330.005 105.447 329.962 105.464C328.626 106.162 327.522 107.136 327.522 107.136V107.024C327.497 107.093 327.522 107.136 327.522 107.136V112.522Z" fill="black"/>
<path d="M333.909 105.585V110.816C333.909 110.816 334.487 105.438 335.694 104.137C334.668 104.792 333.909 105.576 333.909 105.585Z" fill="black"/>
<path d="M340.382 104.852V110.109C340.382 110.109 340.701 104.818 341.839 104.034C341.012 104.344 340.382 104.852 340.382 104.852Z" fill="black"/>
</g>
<path opacity="0.15" d="M279.582 255.155C264.697 262.575 257.939 270.365 265.645 275.82C273.351 281.284 294.321 288.669 294.321 288.669L297.071 297.907L327.54 280.319V269.857C327.54 269.857 308.741 256.895 301.406 254.405C294.063 251.906 288.314 250.794 279.591 255.146L279.582 255.155Z" fill="black"/>
<path d="M321.584 302.328C321.584 302.328 316.981 313.6 316.749 318.047C316.507 322.683 315.387 324.217 316.171 329.259C316.343 330.353 316.921 332.559 317.059 333.447C317.188 334.24 316.886 334.878 315.869 335.093C313.861 335.507 310.517 331.732 308.931 327.621C307.345 323.511 305.087 314.238 304.949 313.126C304.811 312.058 305.173 310.722 305.587 309.886C306.319 308.412 306.509 308.206 306.509 308.206C307.173 306.189 307.491 302.354 308.052 299.7L321.584 302.328Z" fill="#FFA8A7"/>
<path d="M301.018 317.349C301.018 317.349 300.51 318.271 300.484 318.866C300.432 319.788 302.527 322.838 303.346 323.942C304.165 325.053 304.966 326.441 304.854 329.207C304.733 332.163 306.044 335.015 307.948 337.454C309.862 339.893 313.18 342.565 318.059 344.073C322.946 345.572 324.661 343.125 324.661 343.125C324.661 343.125 326.178 340.772 325.264 339.807C324.351 338.842 301.018 317.34 301.018 317.34V317.349Z" fill="#252422"/>
<path d="M306.509 308.206C306.363 308.206 306.095 308.154 305.716 308.619C305.57 308.792 304.682 310.989 303.941 312.144C303.148 313.376 301.26 315.488 301.01 317.358C302.139 320.977 305.535 323.493 306.044 326.915C306.552 330.336 306.613 334.3 311.862 338.48C317.111 342.659 322.515 343.09 324.454 341.987C326.394 340.884 326.221 338.799 323.515 334.843C320.645 330.638 318.705 321.537 318.705 321.529C318.438 320.27 318.3 318.935 318.197 317.659C318.102 316.41 318.464 315.083 318.559 313.824C318.602 313.23 318.628 312.592 318.317 312.092C318.007 311.584 317.421 311.325 316.869 311.092C315.99 310.722 315.111 310.343 314.172 310.179C313.232 310.015 312.232 310.067 311.388 310.515C310.784 310.843 310.284 311.36 309.646 311.627C308.793 311.98 307.742 311.791 307.069 311.17C306.07 310.248 306.216 309.421 306.371 308.8C306.354 308.783 306.492 308.223 306.492 308.223L306.509 308.206Z" fill="#545454"/>
<path d="M308.802 335.119C308.802 335.119 310.836 330.982 316.412 331C321.989 331.017 323.92 333.861 324.764 335.524C325.773 337.515 326.824 341.117 324.523 342.142C322.041 343.263 319.162 342.918 314.628 340.643C310.103 338.376 308.793 335.11 308.793 335.11L308.802 335.119Z" fill="#FAFAFA"/>
<path d="M309.819 318.323C309.974 318.4 310.164 318.4 310.327 318.323C311.189 317.883 315.749 316.927 318.404 319.391C318.748 319.116 318.679 318.607 318.24 317.901C315.137 315.927 310.819 316.806 309.776 317.34C309.5 317.478 309.405 317.814 309.56 318.082C309.621 318.194 309.715 318.271 309.819 318.323Z" fill="#FAFAFA"/>
<path d="M318.973 322.64C319.162 322.149 318.921 321.382 318.654 321.106C315.585 319.443 311.577 320.279 310.586 320.779C310.31 320.917 310.215 321.253 310.371 321.52C310.431 321.632 310.526 321.71 310.629 321.761C310.784 321.839 310.974 321.839 311.138 321.761C311.974 321.339 316.301 320.434 318.973 322.632V322.64Z" fill="#FAFAFA"/>
<path d="M321.248 330.172C321.274 329.491 321.024 328.811 320.533 328.156C317.438 326.294 313.224 327.156 312.198 327.673C311.922 327.811 311.827 328.147 311.982 328.414C312.043 328.526 312.138 328.604 312.241 328.656C312.396 328.733 312.586 328.733 312.75 328.656C313.663 328.19 318.688 327.156 321.248 330.172Z" fill="#FAFAFA"/>
<path d="M311.431 325.217C311.586 325.295 311.775 325.295 311.939 325.217C312.793 324.786 317.257 323.855 319.921 326.208C320.041 325.691 319.895 325.139 319.455 324.553C316.387 322.89 312.379 323.718 311.388 324.226C311.112 324.364 311.017 324.7 311.172 324.967C311.232 325.079 311.327 325.157 311.431 325.208V325.217Z" fill="#FAFAFA"/>
<path d="M326.54 316.168C326.54 316.168 328.824 329.922 331.358 335.257C333.892 340.591 335.194 343.168 338.693 347.21C339.452 348.089 341.184 349.726 341.805 350.433C342.356 351.062 342.451 351.794 341.658 352.553C340.107 354.035 333.522 354.388 329.824 351.622C326.135 348.856 322.773 342.961 320.567 340.738C319.739 339.902 318.964 339.049 318.222 338.135C317.507 337.256 317.705 336.429 317.645 335.446C317.61 334.972 317.679 333.68 317.679 333.68C317.171 331.362 315.809 327.733 315.085 325.476L326.54 316.168Z" fill="#FFA8A7"/>
<path d="M316.386 344.073C316.386 344.073 316.317 345.176 316.559 345.753C316.929 346.649 320.265 348.597 321.532 349.286C322.799 349.967 324.178 350.924 325.316 353.595C326.523 356.448 329.031 358.559 331.935 360.016C334.831 361.472 339.167 362.523 344.459 361.756C349.751 360.998 350.286 357.913 350.286 357.913C350.286 357.913 350.665 355.009 349.372 354.5C348.079 353.992 316.395 344.073 316.395 344.073H316.386Z" fill="#252422"/>
<path d="M317.498 332.964C317.352 333.025 317.085 333.102 316.929 333.714C316.869 333.947 317.007 336.42 316.826 337.842C316.628 339.359 315.783 342.203 316.386 344.081C319.076 347.003 323.411 347.865 325.419 350.872C327.428 353.88 329.255 357.603 336.09 359.214C342.925 360.826 348.235 358.826 349.57 356.905C350.915 354.991 349.812 353.104 345.485 350.562C340.891 347.865 334.987 340.117 334.987 340.109C334.168 339.04 333.444 337.842 332.78 336.67C332.134 335.533 331.875 334.111 331.41 332.878C331.186 332.292 330.927 331.68 330.401 331.344C329.876 331.008 329.212 331.017 328.591 331.043C327.6 331.086 326.592 331.12 325.626 331.379C324.661 331.637 323.739 332.137 323.144 332.939C322.713 333.516 322.48 334.231 321.998 334.766C321.351 335.481 320.274 335.774 319.351 335.481C317.998 335.05 317.765 334.205 317.636 333.55C317.61 333.542 317.498 332.956 317.498 332.956V332.964Z" fill="#545454"/>
<path d="M331.694 357.413C331.694 357.413 331.772 352.587 337.055 350.122C342.339 347.649 345.433 349.476 346.985 350.674C348.829 352.105 351.432 355.043 349.717 357.051C347.864 359.214 344.985 360.179 339.684 360.05C334.383 359.921 331.694 357.422 331.694 357.422V357.413Z" fill="#FAFAFA"/>
<path d="M325.152 341.065C325.333 341.065 325.514 340.988 325.635 340.833C326.256 340.031 330.143 337.092 333.754 338.239C333.953 337.825 333.668 337.377 332.927 336.903C329.108 336.42 325.419 339.187 324.67 340.152C324.471 340.402 324.532 340.764 324.799 340.953C324.902 341.031 325.032 341.065 325.152 341.065Z" fill="#FAFAFA"/>
<path d="M335.745 341.057C335.702 340.505 335.142 339.893 334.754 339.747C331.108 339.54 327.686 342.117 326.971 343.047C326.773 343.297 326.833 343.659 327.1 343.849C327.204 343.926 327.333 343.961 327.454 343.961C327.635 343.961 327.816 343.883 327.936 343.728C328.54 342.953 332.229 340.169 335.745 341.057Z" fill="#FAFAFA"/>
<path d="M341.262 347.175C340.977 346.52 340.443 345.986 339.684 345.581C335.918 345.202 332.315 347.899 331.582 348.847C331.384 349.097 331.444 349.459 331.711 349.649C331.815 349.726 331.944 349.761 332.065 349.761C332.246 349.761 332.427 349.683 332.548 349.528C333.203 348.683 337.495 345.46 341.262 347.167V347.175Z" fill="#FAFAFA"/>
<path d="M329.764 346.865C329.945 346.865 330.126 346.787 330.246 346.632C330.858 345.84 334.668 342.97 338.245 344.004C338.133 343.461 337.745 343.004 337.064 342.651C333.418 342.444 329.996 345.021 329.281 345.952C329.083 346.201 329.143 346.563 329.41 346.753C329.514 346.831 329.643 346.865 329.764 346.865Z" fill="#FAFAFA"/>
<path d="M296.192 237.85C301.829 241.987 321.472 253.319 329.445 260.696C331.746 262.825 332.504 265.634 331.944 271.752C331.177 280.051 324.652 308.352 324.652 308.352C323.756 309.946 322.17 306.922 322.17 306.922L291.046 267.418L296.192 237.85Z" fill="#EB5E28"/>
<path opacity="0.3" d="M296.192 237.85C301.829 241.987 321.472 253.319 329.445 260.696C331.746 262.825 332.504 265.634 331.944 271.752C331.177 280.051 324.652 308.352 324.652 308.352C323.756 309.946 322.17 306.922 322.17 306.922L291.046 267.418L296.192 237.85Z" fill="black"/>
<path opacity="0.3" d="M323.299 299.545C316.102 293.53 292.839 256.835 292.839 256.835C292.839 256.835 292.839 256.835 292.847 256.826C296.019 254.146 297.648 244.874 297.648 244.874C298.907 248.45 297.579 253.853 296.605 255.827C298.441 257.412 308.784 265.918 315.973 271.615C317.774 273.045 319.619 274.803 320.239 278.052C321.722 285.834 323.471 297.985 323.299 299.553V299.545Z" fill="black"/>
<path d="M296.192 237.85L256.129 246.718C258.086 254.069 258.646 257.869 260.689 261.739C262.74 265.625 265.007 269.762 275.428 274.898C285.461 279.836 297.717 284.92 300.165 286.092C302.01 286.971 302.889 290.668 303.725 295.451C304.604 300.475 304.682 304.405 309.646 314.945C314.516 325.269 315.507 327.501 315.507 327.501C315.507 327.501 323.041 328.285 328.031 323.89C328.031 323.89 321.213 288.497 319.757 282.128C318.946 278.569 318.929 276.69 314.508 272.787C310.715 269.434 293.795 256.628 293.795 256.628C293.795 256.628 300.518 247.606 296.183 237.859L296.192 237.85Z" fill="#EB5E28"/>
<path opacity="0.3" d="M296.192 237.85L256.129 246.718C258.086 254.069 258.646 257.869 260.689 261.739C262.74 265.625 265.007 269.762 275.428 274.898C285.461 279.836 297.717 284.92 300.165 286.092C302.01 286.971 302.889 290.668 303.725 295.451C304.604 300.475 304.682 304.405 309.646 314.945C314.516 325.269 315.507 327.501 315.507 327.501C315.507 327.501 323.041 328.285 328.031 323.89C328.031 323.89 321.213 288.497 319.757 282.128C318.946 278.569 318.929 276.69 314.508 272.787C310.715 269.434 293.795 256.628 293.795 256.628C293.795 256.628 300.518 247.606 296.183 237.859L296.192 237.85Z" fill="black"/>
<path d="M342.244 171.313C341.572 171.244 340.874 171.425 340.262 171.709C339.529 172.054 338.883 172.553 338.228 173.036C337.228 173.769 336.211 174.467 335.159 175.13C334.228 175.716 333.246 176.371 332.142 176.561C331.772 176.621 330.979 176.638 331.384 176.07C331.91 175.337 332.505 174.639 332.901 173.82C333.297 173.01 333.47 172.036 333.125 171.2C333.022 170.951 332.858 170.701 332.608 170.589C332.255 170.425 332.082 170.614 331.875 170.847C331.66 171.088 331.41 171.295 331.169 171.511C330.669 171.95 330.169 172.398 329.677 172.846C326.799 175.466 323.291 177.733 322.058 181.516C321.877 182.067 321.067 184.558 321.041 188.712C321.015 192.866 320.765 207.318 320.765 207.318C320.765 207.318 309.284 197.666 304.302 193.503C301.898 191.495 298.545 189.065 294.847 188.712C292.227 188.462 290.701 188.479 290.701 188.479L298.527 207.455C298.527 207.455 313.335 218.469 320.429 222.261C326.833 225.682 329.953 223.217 330.729 221.425C332.013 218.452 333.332 217.056 331.522 200.441C331.393 199.156 331.229 195.477 331.091 194.193C330.901 191.513 331.212 188.789 332.246 188.203C334.159 187.135 336.03 185.963 337.676 184.524C338.762 183.576 339.745 182.498 340.546 181.3C340.882 180.801 341.468 180.06 341.529 179.448C341.589 178.819 341.322 178.164 341.512 177.543C341.641 177.121 341.925 176.776 342.029 176.328C342.244 175.415 342.167 174.363 342.753 173.57C343.072 173.131 343.606 172.743 343.537 172.209C343.477 171.778 343.037 171.511 342.615 171.407C342.494 171.381 342.365 171.356 342.244 171.347V171.313Z" fill="#FFA8A7"/>
<path d="M330.531 178.517C330.212 180.758 328.609 183.558 327.54 184.498C327.54 184.498 329.333 183.481 330.082 181.921C330.91 180.206 330.815 179.336 330.531 178.526V178.517Z" fill="#F28F8F"/>
<path d="M289.917 188.074C293.916 188.246 297.028 188.333 300.432 190.306C303.837 192.271 319.058 205.008 319.058 205.008C319.058 205.008 319.205 198.527 319.601 195.106C319.869 192.736 320.265 191.995 321.006 192.116C321.006 192.116 322.325 194.141 326.066 194.417C329.807 194.701 331.065 193.141 331.065 193.141C331.065 193.141 332.151 192.883 332.548 194.417C332.944 195.942 333.642 212.505 332.961 217.28C332.28 222.054 330.143 224.269 327.273 224.941C324.402 225.613 317.757 221.597 309.784 216.228C301.803 210.859 293.14 205.861 293.14 205.861L289.934 188.074H289.917Z" fill="#EB5E28"/>
<path opacity="0.7" d="M289.917 188.074C293.916 188.246 297.028 188.333 300.432 190.306C303.837 192.271 319.058 205.008 319.058 205.008C319.058 205.008 319.205 198.527 319.601 195.106C319.869 192.736 320.265 191.995 321.006 192.116C321.006 192.116 322.325 194.141 326.066 194.417C329.807 194.701 331.065 193.141 331.065 193.141C331.065 193.141 332.151 192.883 332.548 194.417C332.944 195.942 333.642 212.505 332.961 217.28C332.28 222.054 330.143 224.269 327.273 224.941C324.402 225.613 317.757 221.597 309.784 216.228C301.803 210.859 293.14 205.861 293.14 205.861L289.934 188.074H289.917Z" fill="white"/>
<path opacity="0.1" d="M319.058 205.008C318.412 209.455 319.386 214.306 319.386 214.306C319.386 214.306 316.464 208.67 317.369 203.508L319.058 205.008Z" fill="black"/>
<path d="M257.06 191.573C256.405 195.063 249.768 228.241 257.31 252.983C270.894 254.586 294.761 248.347 298.338 239.358C298.338 239.358 295.924 230.827 294.882 226.656C295.106 219.813 294.882 206.749 294.744 202.707C294.468 194.701 293.218 188.505 289.245 187.919C289.245 187.919 281.263 187.6 276.436 187.798C272.265 187.971 269.127 188.014 269.127 188.014L257.06 191.573Z" fill="#FAFAFA"/>
<path d="M277.014 244.314C276.135 242.366 260.008 232.412 260.008 232.412C260.008 232.412 260.249 227.802 261.215 219.313C262.18 210.825 262.456 200.656 259.396 195.546L256.31 195.666C254.569 205.956 251.018 232.387 257.302 252.992C264.542 253.845 274.713 252.475 283.168 249.639C281.608 248.597 277.712 245.865 277.014 244.314Z" fill="#F0F0F0"/>
<path d="M267.731 180.223C267.757 178.508 264.464 173.381 262.973 169.322C260.482 162.54 260.267 156.447 266.412 153.81C266.412 153.81 270.256 147.183 279.944 146.855C289.632 146.528 297.088 154.706 293.865 165.642L267.722 180.232L267.731 180.223Z" fill="#545454"/>
<path d="M270.127 169.753C268.86 169.753 268.403 167.934 267.533 166.961C266.662 165.987 263.671 164.892 261.741 167.676C259.948 170.27 261.689 174.001 263.646 175.449C266.111 177.267 267.8 175.509 267.8 175.509L267.576 189.203C267.576 189.203 268.015 192.236 273.609 194.003C280.074 196.037 285.332 192.641 281.479 188.376L281.625 184.765C283.461 185.179 285.969 185.403 287.874 185.11C290.029 184.782 291.753 183.162 292.865 179.835C295.028 173.346 294.425 164.703 292.192 156.809C290.063 158.498 280.194 161.652 271.308 158.524C271.618 163.979 271.36 169.744 270.127 169.744V169.753Z" fill="#FFA8A7"/>
<path d="M266.611 173.975C266.611 174.415 266.249 174.777 265.809 174.777C265.369 174.777 265.007 174.415 265.007 173.975C265.007 173.536 265.369 173.174 265.809 173.174C266.249 173.174 266.611 173.536 266.611 173.975Z" fill="#252422"/>
<path d="M281.625 184.765C281.625 184.765 276.23 183.188 274.109 181.697C272.541 180.594 271.144 178.844 270.8 177.922C270.8 177.922 271.61 180.809 273.075 182.481C275.652 185.403 281.556 186.756 281.556 186.756L281.625 184.756V184.765Z" fill="#F28F8F"/>
<path d="M281.194 169.675C281.212 170.442 280.617 171.08 279.876 171.088C279.134 171.097 278.522 170.485 278.505 169.718C278.488 168.951 279.083 168.314 279.824 168.305C280.565 168.296 281.177 168.908 281.194 169.675Z" fill="#252422"/>
<path d="M279.721 165.099L276.816 166.624C276.411 165.788 276.73 164.772 277.531 164.349C278.333 163.927 279.315 164.263 279.721 165.09V165.099Z" fill="#252422"/>
<path d="M280.772 176.724L285.383 178.198C284.926 179.491 283.53 180.206 282.255 179.801C280.979 179.396 280.315 178.017 280.772 176.724Z" fill="#F28F8F"/>
<path d="M292.149 165.039L288.96 164.168C289.167 163.272 290.055 162.738 290.934 162.979C291.813 163.22 292.356 164.143 292.149 165.039Z" fill="#252422"/>
<path d="M291.322 168.615C291.339 169.382 290.744 170.02 290.003 170.028C289.262 170.037 288.65 169.425 288.633 168.658C288.615 167.891 289.21 167.254 289.951 167.245C290.693 167.236 291.305 167.848 291.322 168.615Z" fill="#252422"/>
<path d="M292.804 156.817C295.787 154.697 297.441 151.854 296.649 147.95C295.485 149.113 292.227 149.329 289.374 147.967C286.331 146.519 281.513 144.546 274.756 145.856C269.489 146.873 266.404 150.88 266.404 153.818C267.429 155.921 268.851 157.05 271.299 158.532C271.299 158.532 276.35 162.66 284.004 162.186C288.926 161.885 291.486 159.48 291.486 159.48C291.486 159.48 288.736 159.722 287.443 158.868C287.443 158.868 290.572 158.403 292.796 156.817H292.804Z" fill="#37474F"/>
<path d="M285.547 175.018L289.658 173.139L284.409 165.901L285.547 175.018Z" fill="#F28F8F"/>
<path opacity="0.15" d="M330.695 262.17C330.341 261.635 329.927 261.153 329.445 260.705C324.652 256.275 315.654 250.415 308.009 245.546L273.221 265.625C273.006 265.746 273.006 266.056 273.221 266.177L298.484 280.758L330.686 262.17H330.695Z" fill="black"/>
<path d="M341.244 251.958V252.518C341.244 253.345 340.805 254.103 340.09 254.517L299.648 277.863C299.295 278.069 298.89 278.173 298.493 278.173C298.097 278.173 297.691 278.069 297.329 277.863L275.281 265.177C274.575 264.772 274.126 263.997 274.126 263.178V262.402C274.126 262.514 274.17 262.6 274.273 262.661L298.484 276.639L341.236 251.958H341.244Z" fill="#37474F"/>
<path d="M298.493 276.639V278.173C298.89 278.173 299.295 278.069 299.648 277.863L340.09 254.517C340.805 254.103 341.245 253.336 341.245 252.518V251.958L298.493 276.639Z" fill="#252422"/>
<path d="M341.244 251.957L317.266 238.117C316.843 237.867 316.318 237.867 315.887 238.117L274.282 262.135C274.075 262.256 274.075 262.549 274.282 262.669L298.484 276.647L341.236 251.966L341.244 251.957Z" fill="#545454"/>
<path d="M298.269 274.605L285.34 267.142L323.161 245.313L336.159 252.733L298.269 274.605Z" fill="#37474F"/>
<path d="M336.159 252.733L335.668 253.018L323.153 245.882L285.831 267.426L285.34 267.142L323.153 245.313L336.159 252.733Z" fill="#252422"/>
<path d="M291.917 253.853L292.158 253.991L298.493 257.654L309.767 251.139L310 251.01L303.423 247.209L291.917 253.853Z" fill="#252422"/>
<path d="M292.158 253.991L298.493 257.654L309.767 251.139L303.423 247.485L292.158 253.991Z" fill="#37474F"/>
<path d="M304.182 258.386C302.372 256.585 299.734 254.095 297.528 253.362C297.243 253.267 296.812 253.069 295.976 252.88C296.735 252.733 297.502 252.673 298.252 252.423C298.993 252.173 299.691 251.768 300.174 251.148C300.363 250.898 300.501 250.501 300.26 250.303C300.174 250.234 300.062 250.191 299.941 250.191C298.286 250.139 296.976 249.881 295.476 249.777C294.821 249.734 294.08 249.639 293.451 249.812C292.83 249.976 292.218 250.156 291.615 250.372C288.865 251.32 286.366 252.182 282.47 251.268L275.471 247.537C275.471 247.537 273.98 247.166 271.773 250.898C269.567 254.629 270.86 256.68 270.86 256.68L278.721 259.395C278.721 259.395 278.798 259.421 278.833 259.438C279.695 259.765 280.479 260.437 282.547 261.075C284.995 261.825 288.133 260.937 290.262 260.825C292.391 260.713 296.002 261.696 297.976 262.497C299.95 263.299 302.32 260.256 303.311 260.627C304.302 260.989 306.018 260.196 304.199 258.395L304.182 258.386Z" fill="#FFA8A7"/>
<path d="M295.054 251.708C293.623 251.561 292.037 252.199 292.037 252.199C292.037 252.199 293.804 252.233 295.967 252.88C296.726 252.733 297.493 252.673 298.243 252.423C298.898 252.207 299.519 251.863 299.984 251.354C298.795 252.164 296.485 251.845 295.054 251.699V251.708Z" fill="#F28F8F"/>
<path d="M257.06 191.573C259.051 192.357 261.646 200.665 260.051 208.653L256.345 233.636C256.345 233.636 260.887 236.325 267.257 240.272C271.67 243.004 275.462 245.511 275.462 247.537C272.566 248.579 269.972 253.905 270.842 256.68C268.869 259.024 250.63 248.915 244.252 244.555C241.296 242.53 239.805 241.737 240.942 232.611C242.201 222.511 243.063 211.29 245.028 203.801C247.079 195.985 249.372 192.952 257.052 191.581L257.06 191.573Z" fill="#EB5E28"/>
<path opacity="0.7" d="M257.06 191.573C259.051 192.357 261.646 200.665 260.051 208.653L256.345 233.636C256.345 233.636 260.887 236.325 267.257 240.272C271.67 243.004 275.462 245.511 275.462 247.537C272.566 248.579 269.972 253.905 270.842 256.68C268.869 259.024 250.63 248.915 244.252 244.555C241.296 242.53 239.805 241.737 240.942 232.611C242.201 222.511 243.063 211.29 245.028 203.801C247.079 195.985 249.372 192.952 257.052 191.581L257.06 191.573Z" fill="white"/>
<path d="M299.148 276.975C299.915 277.268 300.786 277.216 301.51 276.794L341.779 253.552C342.485 253.147 342.977 252.44 343.115 251.639L347.519 225.354C347.545 225.208 347.554 225.053 347.554 224.906C347.554 224.174 347.261 223.476 346.743 222.959L304.897 247.114C304.371 247.416 304.018 247.933 303.914 248.528L299.148 276.975Z" fill="#37474F"/>
<path d="M298.493 276.639L298.769 276.794C298.889 276.863 299.019 276.923 299.148 276.975L303.914 248.528C304.018 247.933 304.38 247.416 304.897 247.114L346.743 222.959C346.58 222.795 346.39 222.657 346.183 222.536L304.251 246.735C303.725 247.037 303.371 247.554 303.268 248.148L298.493 276.63V276.639Z" fill="#545454"/>
<path d="M304.302 247.657L303.656 247.287C303.466 247.545 303.328 247.838 303.268 248.157L298.493 276.639L298.769 276.794C298.889 276.863 299.019 276.923 299.148 276.975L303.914 248.528C303.966 248.2 304.113 247.907 304.302 247.649V247.657Z" fill="#252422"/>
<path d="M321.825 252.716C322.118 250.958 323.937 248.623 325.885 247.494C327.833 246.373 329.169 246.89 328.876 248.648C328.583 250.406 326.764 252.742 324.816 253.871C322.868 254.991 321.532 254.483 321.825 252.716Z" fill="#EB5E28"/>
</g>
<defs>
<clipPath id="clip0_20_4851">
<rect width="410" height="406" fill="white"/>
</clipPath>
</defs>
</svg>
