<svg width="157" height="44" viewBox="0 0 157 44" fill="none" xmlns="http://www.w3.org/2000/svg">
<g clip-path="url(#clip0_35_4)">
<path d="M0.301758 43.3124V36.2504C1.57421 34.1824 3.00024 32.2904 4.57984 30.5744C6.15943 28.8144 7.95842 27.0544 9.9768 25.2944C12.4339 23.1824 14.211 21.5544 15.3079 20.4104C16.4049 19.2664 16.9534 18.0784 16.9534 16.8464C16.9534 14.7784 15.4396 13.7444 12.412 13.7444C10.4375 13.7444 8.52883 13.9644 6.68597 14.4044C4.88698 14.8444 3.17575 15.4164 1.55227 16.1204V2.85444C3.48289 2.01844 5.76454 1.35844 8.3972 0.87444C11.0299 0.390438 13.7722 0.148438 16.6243 0.148438C22.2406 0.148438 26.409 1.42444 29.1294 3.97644C31.8498 6.52844 33.2101 9.87244 33.2101 14.0084C33.2101 15.8124 33.0126 17.3744 32.6177 18.6944C32.2228 20.0144 31.5646 21.2684 30.6432 22.4564C29.7657 23.6004 28.559 24.8544 27.0233 26.2184C26.1457 27.0104 25.1804 27.8684 24.1274 28.7924C23.0743 29.6724 22.3064 30.4644 21.8238 31.1684H33.5391V43.3124H0.301758ZM63.496 43.9724C55.9051 43.9724 50.4423 42.0804 47.1076 38.2964C43.7729 34.5124 42.1056 29.1004 42.1056 22.0604C42.1056 14.9764 43.7729 9.56444 47.1076 5.82444C50.4423 2.04044 55.9051 0.148438 63.496 0.148438C71.0868 0.148438 76.5496 2.04044 79.8843 5.82444C83.219 9.56444 84.8864 14.9764 84.8864 22.0604C84.8864 29.1004 83.219 34.5124 79.8843 38.2964C76.5496 42.0804 71.0868 43.9724 63.496 43.9724ZM63.496 30.3764C65.3827 30.3764 66.699 29.6944 67.445 28.3304C68.2348 26.9664 68.6297 24.8764 68.6297 22.0604C68.6297 19.2444 68.2348 17.1544 67.445 15.7904C66.699 14.4264 65.3827 13.7444 63.496 13.7444C61.6092 13.7444 60.271 14.4264 59.4812 15.7904C58.7352 17.1544 58.3623 19.2444 58.3623 22.0604C58.3623 24.8764 58.7352 26.9664 59.4812 28.3304C60.271 29.6944 61.6092 30.3764 63.496 30.3764ZM114.812 43.9724C107.221 43.9724 101.759 42.0804 98.424 38.2964C95.0893 34.5124 93.422 29.1004 93.422 22.0604C93.422 14.9764 95.0893 9.56444 98.424 5.82444C101.759 2.04044 107.221 0.148438 114.812 0.148438C122.403 0.148438 127.866 2.04044 131.201 5.82444C134.535 9.56444 136.203 14.9764 136.203 22.0604C136.203 29.1004 134.535 34.5124 131.201 38.2964C127.866 42.0804 122.403 43.9724 114.812 43.9724ZM114.812 30.3764C116.699 30.3764 118.015 29.6944 118.761 28.3304C119.551 26.9664 119.946 24.8764 119.946 22.0604C119.946 19.2444 119.551 17.1544 118.761 15.7904C118.015 14.4264 116.699 13.7444 114.812 13.7444C112.926 13.7444 111.587 14.4264 110.798 15.7904C110.052 17.1544 109.679 19.2444 109.679 22.0604C109.679 24.8764 110.052 26.9664 110.798 28.3304C111.587 29.6944 112.926 30.3764 114.812 30.3764ZM144.738 43.3124V32.1584H156.98V43.3124H144.738Z" fill="#FFFCF2"/>
</g>
<defs>
<clipPath id="clip0_35_4">
<rect width="157" height="44" fill="white"/>
</clipPath>
</defs>
</svg>
