<svg width="229" height="64" viewBox="0 0 229 64" fill="none" xmlns="http://www.w3.org/2000/svg">
<g clip-path="url(#clip0_47_20)">
<path d="M0.439941 62.9999V52.7279C2.29594 49.7199 4.37594 46.9679 6.67994 44.4719C8.98394 41.9119 11.6079 39.3519 14.5519 36.7919C18.1359 33.7199 20.7279 31.3519 22.3279 29.6879C23.9279 28.0239 24.7279 26.2959 24.7279 24.5039C24.7279 21.4959 22.5199 19.9919 18.1039 19.9919C15.2239 19.9919 12.4399 20.3119 9.75194 20.9519C7.12794 21.5919 4.63194 22.4239 2.26394 23.4479V4.15195C5.07994 2.93595 8.40794 1.97595 12.2479 1.27195C16.0879 0.567943 20.0879 0.215942 24.2479 0.215942C32.4399 0.215942 38.5199 2.07195 42.4879 5.78395C46.4559 9.49595 48.4399 14.3599 48.4399 20.3759C48.4399 22.9999 48.1519 25.2719 47.5759 27.1919C46.9999 29.1119 46.0399 30.9359 44.6959 32.6639C43.4159 34.3279 41.6559 36.1519 39.4159 38.1359C38.1359 39.2879 36.7279 40.5359 35.1919 41.8799C33.6559 43.1599 32.5359 44.3119 31.8319 45.3359H48.9199V62.9999H0.439941ZM92.6149 63.9599C81.5429 63.9599 73.5749 61.2079 68.7109 55.7039C63.8469 50.1999 61.4149 42.3279 61.4149 32.0879C61.4149 21.7839 63.8469 13.9119 68.7109 8.47195C73.5749 2.96795 81.5429 0.215942 92.6149 0.215942C103.687 0.215942 111.655 2.96795 116.519 8.47195C121.383 13.9119 123.815 21.7839 123.815 32.0879C123.815 42.3279 121.383 50.1999 116.519 55.7039C111.655 61.2079 103.687 63.9599 92.6149 63.9599ZM92.6149 44.1839C95.3669 44.1839 97.2869 43.1919 98.3749 41.2079C99.5269 39.2239 100.103 36.1839 100.103 32.0879C100.103 27.9919 99.5269 24.9519 98.3749 22.9679C97.2869 20.9839 95.3669 19.9919 92.6149 19.9919C89.8629 19.9919 87.9109 20.9839 86.7589 22.9679C85.6709 24.9519 85.1269 27.9919 85.1269 32.0879C85.1269 36.1839 85.6709 39.2239 86.7589 41.2079C87.9109 43.1919 89.8629 44.1839 92.6149 44.1839ZM167.465 63.9599C156.393 63.9599 148.425 61.2079 143.561 55.7039C138.697 50.1999 136.265 42.3279 136.265 32.0879C136.265 21.7839 138.697 13.9119 143.561 8.47195C148.425 2.96795 156.393 0.215942 167.465 0.215942C178.537 0.215942 186.505 2.96795 191.369 8.47195C196.233 13.9119 198.665 21.7839 198.665 32.0879C198.665 42.3279 196.233 50.1999 191.369 55.7039C186.505 61.2079 178.537 63.9599 167.465 63.9599ZM167.465 44.1839C170.217 44.1839 172.137 43.1919 173.225 41.2079C174.377 39.2239 174.953 36.1839 174.953 32.0879C174.953 27.9919 174.377 24.9519 173.225 22.9679C172.137 20.9839 170.217 19.9919 167.465 19.9919C164.713 19.9919 162.761 20.9839 161.609 22.9679C160.521 24.9519 159.977 27.9919 159.977 32.0879C159.977 36.1839 160.521 39.2239 161.609 41.2079C162.761 43.1919 164.713 44.1839 167.465 44.1839ZM211.115 62.9999V46.7759H228.971V62.9999H211.115Z" fill="#FFFCF2"/>
</g>
<defs>
<clipPath id="clip0_47_20">
<rect width="229" height="64" fill="white"/>
</clipPath>
</defs>
</svg>
